Idiqlat-ExtraLight.ufo
<glyph name="exclam" format="2">
  <advance width="635"/>
  <unicode hex="0021"/>
  <outline>
    <component base="period" xOffset="23"/>
    <contour>
      <point x="269" y="520" type="line"/>
      <point x="364" y="520" type="line"/>
      <point x="476" y="1372" type="line" smooth="yes"/>
      <point x="496" y="1514"/>
      <point x="397" y="1587"/>
      <point x="316" y="1587" type="curve" smooth="yes"/>
      <point x="238" y="1587"/>
      <point x="141" y="1514"/>
      <point x="159" y="1372" type="curve" smooth="yes"/>
    </contour>
  </outline>
</glyph>
<glyph name="numbersign" format="2">
  <advance width="1207"/>
  <unicode hex="0023"/>
  <note>
numbersign
</note>
  <outline>
    <contour>
      <point x="590" y="0" type="line"/>
      <point x="726" y="0" type="line"/>
      <point x="1004" y="1335" type="line"/>
      <point x="870" y="1335" type="line"/>
    </contour>
    <contour>
      <point x="75" y="381" type="line"/>
      <point x="1088" y="381" type="line"/>
      <point x="1088" y="507" type="line"/>
      <point x="75" y="507" type="line"/>
    </contour>
    <contour>
      <point x="199" y="0" type="line"/>
      <point x="334" y="0" type="line"/>
      <point x="612" y="1335" type="line"/>
      <point x="481" y="1335" type="line"/>
    </contour>
    <contour>
      <point x="115" y="826" type="line"/>
      <point x="1129" y="826" type="line"/>
      <point x="1129" y="952" type="line"/>
      <point x="115" y="952" type="line"/>
    </contour>
  </outline>
</glyph>
<glyph name="dollar" format="2">
  <advance width="1124"/>
  <unicode hex="0024"/>
  <note>
dollar
</note>
  <outline>
    <contour>
      <point x="520" y="-19" type="curve" smooth="yes"/>
      <point x="836" y="-19"/>
      <point x="1051" y="143"/>
      <point x="1051" y="369" type="curve" smooth="yes"/>
      <point x="1051" y="792"/>
      <point x="369" y="724"/>
      <point x="369" y="1041" type="curve" smooth="yes"/>
      <point x="369" y="1161"/>
      <point x="479" y="1234"/>
      <point x="617" y="1234" type="curve" smooth="yes"/>
      <point x="688" y="1234"/>
      <point x="740" y="1223"/>
      <point x="792" y="1192" type="curve"/>
      <point x="860" y="983" type="line"/>
      <point x="983" y="991" type="line"/>
      <point x="960" y="1301" type="line"/>
      <point x="879" y="1338"/>
      <point x="753" y="1357"/>
      <point x="640" y="1357" type="curve" smooth="yes"/>
      <point x="332" y="1357"/>
      <point x="121" y="1200"/>
      <point x="121" y="965" type="curve" smooth="yes"/>
      <point x="121" y="518"/>
      <point x="794" y="606"/>
      <point x="794" y="290" type="curve" smooth="yes"/>
      <point x="794" y="173"/>
      <point x="698" y="105"/>
      <point x="552" y="105" type="curve" smooth="yes"/>
      <point x="466" y="105"/>
      <point x="376" y="131"/>
      <point x="308" y="175" type="curve"/>
      <point x="238" y="397" type="line"/>
      <point x="117" y="389" type="line"/>
      <point x="128" y="71" type="line"/>
      <point x="225" y="16"/>
      <point x="390" y="-19"/>
    </contour>
    <contour>
      <point x="528" y="-262" type="line"/>
      <point x="651" y="-262" type="line"/>
      <point x="651" y="1599" type="line"/>
      <point x="528" y="1599" type="line"/>
    </contour>
  </outline>
</glyph>
<glyph name="percent" format="2">
  <advance width="1761"/>
  <unicode hex="0025"/>
  <note>
percent
</note>
  <outline>
    <contour>
      <point x="419" y="-28" type="line"/>
      <point x="1464" y="1262" type="line"/>
      <point x="1341" y="1365" type="line"/>
      <point x="298" y="73" type="line"/>
    </contour>
    <contour>
      <point x="449" y="648" type="curve" smooth="yes"/>
      <point x="651" y="648"/>
      <point x="818" y="800"/>
      <point x="818" y="1001" type="curve" smooth="yes"/>
      <point x="818" y="1210"/>
      <point x="661" y="1352"/>
      <point x="449" y="1352" type="curve" smooth="yes"/>
      <point x="249" y="1352"/>
      <point x="81" y="1199"/>
      <point x="81" y="1001" type="curve" smooth="yes"/>
      <point x="81" y="794"/>
      <point x="236" y="648"/>
    </contour>
    <contour>
      <point x="452" y="811" type="curve" smooth="yes"/>
      <point x="348" y="811"/>
      <point x="272" y="889"/>
      <point x="272" y="1004" type="curve" smooth="yes"/>
      <point x="272" y="1116"/>
      <point x="348" y="1192"/>
      <point x="452" y="1192" type="curve" smooth="yes"/>
      <point x="552" y="1192"/>
      <point x="635" y="1119"/>
      <point x="635" y="1004" type="curve" smooth="yes"/>
      <point x="635" y="886"/>
      <point x="552" y="811"/>
    </contour>
    <contour>
      <point x="1310" y="-16" type="curve" smooth="yes"/>
      <point x="1513" y="-16"/>
      <point x="1680" y="133"/>
      <point x="1680" y="332" type="curve" smooth="yes"/>
      <point x="1680" y="541"/>
      <point x="1522" y="685"/>
      <point x="1310" y="685" type="curve" smooth="yes"/>
      <point x="1111" y="685"/>
      <point x="943" y="530"/>
      <point x="943" y="332" type="curve" smooth="yes"/>
      <point x="943" y="125"/>
      <point x="1098" y="-16"/>
    </contour>
    <contour>
      <point x="1312" y="146" type="curve" smooth="yes"/>
      <point x="1211" y="146"/>
      <point x="1134" y="220"/>
      <point x="1134" y="335" type="curve" smooth="yes"/>
      <point x="1134" y="449"/>
      <point x="1211" y="525"/>
      <point x="1312" y="525" type="curve" smooth="yes"/>
      <point x="1414" y="525"/>
      <point x="1497" y="450"/>
      <point x="1497" y="335" type="curve" smooth="yes"/>
      <point x="1497" y="217"/>
      <point x="1414" y="146"/>
    </contour>
  </outline>
</glyph>
<glyph name="ampersand" format="2">
  <advance width="1045"/>
  <unicode hex="0026"/>
  <note>
ampersand
</note>
  <outline>
    <contour>
      <point x="358" y="-11" type="curve" smooth="yes"/>
      <point x="587" y="-11"/>
      <point x="748" y="123"/>
      <point x="883" y="395" type="curve"/>
      <point x="981" y="411" type="line"/>
      <point x="976" y="472" type="line"/>
      <point x="667" y="472" type="line"/>
      <point x="663" y="409" type="line"/>
      <point x="762" y="395" type="line"/>
      <point x="682" y="171"/>
      <point x="570" y="87"/>
      <point x="409" y="87" type="curve" smooth="yes"/>
      <point x="279" y="87"/>
      <point x="211" y="151"/>
      <point x="211" y="240" type="curve" smooth="yes"/>
      <point x="211" y="317"/>
      <point x="254" y="383"/>
      <point x="377" y="444" type="curve"/>
      <point x="589" y="541"/>
      <point x="673" y="634"/>
      <point x="673" y="751" type="curve" smooth="yes"/>
      <point x="673" y="867"/>
      <point x="590" y="938"/>
      <point x="460" y="938" type="curve" smooth="yes"/>
      <point x="311" y="938"/>
      <point x="202" y="829"/>
      <point x="202" y="681" type="curve" smooth="yes"/>
      <point x="202" y="564"/>
      <point x="255" y="466"/>
      <point x="388" y="286" type="curve" smooth="yes"/>
      <point x="535" y="86"/>
      <point x="658" y="-11"/>
      <point x="834" y="-11" type="curve" smooth="yes"/>
      <point x="931" y="-11"/>
      <point x="1012" y="25"/>
      <point x="1064" y="95" type="curve"/>
      <point x="1028" y="139" type="line"/>
      <point x="984" y="106"/>
      <point x="940" y="91"/>
      <point x="892" y="91" type="curve" smooth="yes"/>
      <point x="767" y="91"/>
      <point x="668" y="172"/>
      <point x="530" y="355" type="curve" smooth="yes"/>
      <point x="393" y="533"/>
      <point x="346" y="625"/>
      <point x="346" y="728" type="curve" smooth="yes"/>
      <point x="346" y="817"/>
      <point x="393" y="864"/>
      <point x="454" y="864" type="curve" smooth="yes"/>
      <point x="504" y="864"/>
      <point x="543" y="827"/>
      <point x="543" y="752" type="curve" smooth="yes"/>
      <point x="543" y="653"/>
      <point x="494" y="582"/>
      <point x="332" y="494" type="curve"/>
      <point x="132" y="423"/>
      <point x="46" y="320"/>
      <point x="46" y="211" type="curve" smooth="yes"/>
      <point x="46" y="90"/>
      <point x="148" y="-11"/>
    </contour>
  </outline>
</glyph>
<glyph name="quotesingle" format="2">
  <advance width="364"/>
  <unicode hex="0027"/>
  <outline>
    <contour>
      <point x="182" y="1120" type="curve" smooth="yes"/>
      <point x="124" y="1120"/>
      <point x="82" y="1077"/>
      <point x="82" y="996" type="curve" smooth="yes"/>
      <point x="82" y="926"/>
      <point x="131" y="765"/>
      <point x="154" y="674" type="curve"/>
      <point x="210" y="674" type="line"/>
      <point x="233" y="765"/>
      <point x="282" y="926"/>
      <point x="282" y="996" type="curve" smooth="yes"/>
      <point x="282" y="1077"/>
      <point x="239" y="1120"/>
    </contour>
  </outline>
</glyph>
<glyph name="parenleft" format="2">
  <advance width="852"/>
  <unicode hex="0028"/>
  <note>
parenleft
</note>
  <outline>
    <contour>
      <point x="773" y="1657" type="line"/>
      <point x="405" y="1378"/>
      <point x="217" y="1003"/>
      <point x="217" y="567" type="curve" smooth="yes"/>
      <point x="217" y="134"/>
      <point x="405" y="-235"/>
      <point x="773" y="-520" type="curve"/>
      <point x="852" y="-452" type="line"/>
      <point x="615" y="-212"/>
      <point x="484" y="146"/>
      <point x="484" y="567" type="curve" smooth="yes"/>
      <point x="484" y="986"/>
      <point x="615" y="1349"/>
      <point x="852" y="1590" type="curve"/>
    </contour>
  </outline>
</glyph>
<glyph name="parenright" format="2">
  <advance width="852"/>
  <unicode hex="0029"/>
  <note>
parenright
</note>
  <outline>
    <contour>
      <point x="78" y="1657" type="curve"/>
      <point x="0" y="1590" type="line"/>
      <point x="236" y="1349"/>
      <point x="368" y="986"/>
      <point x="368" y="567" type="curve" smooth="yes"/>
      <point x="368" y="146"/>
      <point x="236" y="-212"/>
      <point x="0" y="-452" type="curve"/>
      <point x="78" y="-520" type="line"/>
      <point x="447" y="-235"/>
      <point x="633" y="134"/>
      <point x="633" y="567" type="curve" smooth="yes"/>
      <point x="633" y="1003"/>
      <point x="447" y="1378"/>
    </contour>
  </outline>
</glyph>
<glyph name="asterisk" format="2">
  <advance width="822"/>
  <unicode hex="002A"/>
  <outline>
    <contour>
      <point x="401" y="616" type="curve"/>
      <point x="346" y="616"/>
      <point x="330" y="581"/>
      <point x="330" y="533" type="curve" smooth="yes"/>
      <point x="330" y="467"/>
      <point x="361" y="380"/>
      <point x="361" y="343" type="curve" smooth="yes"/>
      <point x="361" y="331"/>
      <point x="358" y="324"/>
      <point x="350" y="324" type="curve" smooth="yes"/>
      <point x="314" y="324"/>
      <point x="200" y="466"/>
      <point x="127" y="466" type="curve" smooth="yes"/>
      <point x="95" y="466"/>
      <point x="69" y="427"/>
      <point x="69" y="385" type="curve" smooth="yes"/>
      <point x="69" y="278"/>
      <point x="291" y="288"/>
      <point x="291" y="231" type="curve" smooth="yes"/>
      <point x="291" y="200"/>
      <point x="67" y="126"/>
      <point x="67" y="51" type="curve" smooth="yes"/>
      <point x="67" y="19"/>
      <point x="110" y="-6"/>
      <point x="137" y="-6" type="curve" smooth="yes"/>
      <point x="220" y="-6"/>
      <point x="306" y="133"/>
      <point x="338" y="133" type="curve" smooth="yes"/>
      <point x="347" y="133"/>
      <point x="349" y="124"/>
      <point x="349" y="109" type="curve" smooth="yes"/>
      <point x="349" y="71"/>
      <point x="329" y="-4"/>
      <point x="329" y="-66" type="curve" smooth="yes"/>
      <point x="329" y="-124"/>
      <point x="345" y="-166"/>
      <point x="404" y="-166" type="curve" smooth="yes"/>
      <point x="460" y="-166"/>
      <point x="476" y="-118"/>
      <point x="476" y="-64" type="curve" smooth="yes"/>
      <point x="476" y="0"/>
      <point x="454" y="78"/>
      <point x="454" y="111" type="curve" smooth="yes"/>
      <point x="454" y="122"/>
      <point x="457" y="126"/>
      <point x="463" y="126" type="curve" smooth="yes"/>
      <point x="496" y="126"/>
      <point x="607" y="-7"/>
      <point x="683" y="-7" type="curve" smooth="yes"/>
      <point x="706" y="-7"/>
      <point x="746" y="15"/>
      <point x="746" y="70" type="curve" smooth="yes"/>
      <point x="746" y="174"/>
      <point x="514" y="189"/>
      <point x="514" y="224" type="curve" smooth="yes"/>
      <point x="514" y="258"/>
      <point x="756" y="295"/>
      <point x="756" y="387" type="curve" smooth="yes"/>
      <point x="756" y="424"/>
      <point x="715" y="462"/>
      <point x="681" y="462" type="curve" smooth="yes"/>
      <point x="600" y="462"/>
      <point x="502" y="325"/>
      <point x="463" y="325" type="curve" smooth="yes"/>
      <point x="449" y="325"/>
      <point x="445" y="339"/>
      <point x="445" y="358" type="curve" smooth="yes"/>
      <point x="445" y="400"/>
      <point x="465" y="473"/>
      <point x="465" y="530" type="curve" smooth="yes"/>
      <point x="465" y="578"/>
      <point x="451" y="615"/>
    </contour>
    <contour>
      <point x="338" y="231" type="curve" smooth="yes"/>
      <point x="338" y="265"/>
      <point x="370" y="299"/>
      <point x="404" y="299" type="curve" smooth="yes"/>
      <point x="442" y="299"/>
      <point x="473" y="263"/>
      <point x="473" y="225" type="curve" smooth="yes"/>
      <point x="473" y="190"/>
      <point x="442" y="159"/>
      <point x="407" y="159" type="curve" smooth="yes"/>
      <point x="370" y="159"/>
      <point x="338" y="194"/>
    </contour>
  </outline>
</glyph>
<glyph name="plus" format="2">
  <advance width="757"/>
  <unicode hex="002B"/>
  <outline>
    <contour>
      <point x="681" y="407" type="line"/>
      <point x="76" y="407" type="line"/>
      <point x="76" y="306" type="line"/>
      <point x="681" y="306" type="line"/>
    </contour>
    <contour>
      <point x="327" y="661" type="line"/>
      <point x="327" y="52" type="line"/>
      <point x="430" y="52" type="line"/>
      <point x="430" y="661" type="line"/>
    </contour>
  </outline>
</glyph>
<glyph name="hyphen" format="2">
  <advance width="892"/>
  <unicode hex="002D"/>
  <outline>
    <contour>
      <point x="168" y="285" type="line"/>
      <point x="724" y="285" type="line"/>
      <point x="724" y="505" type="line"/>
      <point x="168" y="502" type="line"/>
    </contour>
  </outline>
</glyph>
<glyph name="period" format="2">
  <advance width="364"/>
  <unicode hex="002E"/>
  <note>
period
</note>
  <outline>
    <contour>
      <point x="182" y="-14" type="curve" smooth="yes"/>
      <point x="245" y="-14"/>
      <point x="292" y="31"/>
      <point x="292" y="92" type="curve" smooth="yes"/>
      <point x="292" y="154"/>
      <point x="245" y="201"/>
      <point x="182" y="201" type="curve" smooth="yes"/>
      <point x="120" y="201"/>
      <point x="72" y="154"/>
      <point x="72" y="92" type="curve" smooth="yes"/>
      <point x="72" y="31"/>
      <point x="120" y="-14"/>
    </contour>
  </outline>
</glyph>
<glyph name="slash" format="2">
  <advance width="549"/>
  <unicode hex="002F"/>
  <note>
slash
</note>
  <outline>
    <contour>
      <point x="34" y="-252" type="line"/>
      <point x="148" y="-252" type="line"/>
      <point x="570" y="1022" type="line"/>
      <point x="457" y="1022" type="line"/>
    </contour>
  </outline>
</glyph>
<glyph name="zero" format="2">
  <advance width="1158"/>
  <unicode hex="0030"/>
  <outline>
    <contour>
      <point x="590" y="-19" type="curve" smooth="yes"/>
      <point x="867" y="-19"/>
      <point x="1084" y="283"/>
      <point x="1084" y="679" type="curve" smooth="yes"/>
      <point x="1084" y="1085"/>
      <point x="886" y="1354"/>
      <point x="594" y="1354" type="curve" smooth="yes"/>
      <point x="288" y="1354"/>
      <point x="75" y="1069"/>
      <point x="75" y="656" type="curve" smooth="yes"/>
      <point x="75" y="251"/>
      <point x="282" y="-19"/>
    </contour>
    <contour>
      <point x="607" y="115" type="curve" smooth="yes"/>
      <point x="450" y="115"/>
      <point x="348" y="351"/>
      <point x="348" y="708" type="curve" smooth="yes"/>
      <point x="348" y="1043"/>
      <point x="429" y="1229"/>
      <point x="572" y="1229" type="curve" smooth="yes"/>
      <point x="722" y="1229"/>
      <point x="816" y="994"/>
      <point x="816" y="622" type="curve" smooth="yes"/>
      <point x="816" y="293"/>
      <point x="742" y="115"/>
    </contour>
  </outline>
</glyph>
<glyph name="one" format="2">
  <advance width="1158"/>
  <unicode hex="0031"/>
  <outline>
    <contour>
      <point x="708" y="471" type="curve" smooth="yes"/>
      <point x="708" y="870" type="line" smooth="yes"/>
      <point x="708" y="1093"/>
      <point x="713" y="1249"/>
      <point x="721" y="1359" type="curve"/>
      <point x="246" y="1168" type="line"/>
      <point x="254" y="1051" type="line"/>
      <point x="460" y="1095" type="line"/>
      <point x="466" y="1035"/>
      <point x="471" y="925"/>
      <point x="471" y="824" type="curve" smooth="yes"/>
      <point x="471" y="471" type="line" smooth="yes"/>
      <point x="471" y="300"/>
      <point x="463" y="155"/>
      <point x="458" y="130" type="curve"/>
      <point x="272" y="96" type="line"/>
      <point x="280" y="0" type="line"/>
      <point x="904" y="0" type="line"/>
      <point x="912" y="96" type="line"/>
      <point x="722" y="130" type="line"/>
      <point x="716" y="149"/>
      <point x="708" y="275"/>
    </contour>
  </outline>
</glyph>
<glyph name="two" format="2">
  <advance width="1158"/>
  <unicode hex="0032"/>
  <outline>
    <contour>
      <point x="130" y="-3" type="line"/>
      <point x="186" y="0"/>
      <point x="243" y="0"/>
      <point x="300" y="0" type="curve" smooth="yes"/>
      <point x="755" y="0" type="line" smooth="yes"/>
      <point x="836" y="0"/>
      <point x="946" y="-2"/>
      <point x="1024" y="-8" type="curve"/>
      <point x="1085" y="374" type="line"/>
      <point x="970" y="385" type="line"/>
      <point x="897" y="209" type="line"/>
      <point x="867" y="202"/>
      <point x="837" y="201"/>
      <point x="794" y="201" type="curve" smooth="yes"/>
      <point x="355" y="201" type="line"/>
      <point x="353" y="168" type="line"/>
      <point x="743" y="431"/>
      <point x="952" y="703"/>
      <point x="952" y="952" type="curve" smooth="yes"/>
      <point x="952" y="1190"/>
      <point x="773" y="1354"/>
      <point x="523" y="1354" type="curve" smooth="yes"/>
      <point x="321" y="1354"/>
      <point x="152" y="1239"/>
      <point x="73" y="1043" type="curve"/>
      <point x="152" y="986" type="line"/>
      <point x="225" y="1101"/>
      <point x="324" y="1161"/>
      <point x="442" y="1161" type="curve" smooth="yes"/>
      <point x="596" y="1161"/>
      <point x="690" y="1058"/>
      <point x="690" y="899" type="curve" smooth="yes"/>
      <point x="690" y="667"/>
      <point x="534" y="442"/>
      <point x="121" y="92" type="curve"/>
    </contour>
  </outline>
</glyph>
<glyph name="three" format="2">
  <advance width="1158"/>
  <unicode hex="0033"/>
  <outline>
    <contour>
      <point x="580" y="698" type="line"/>
      <point x="789" y="760"/>
      <point x="936" y="881"/>
      <point x="936" y="1056" type="curve" smooth="yes"/>
      <point x="936" y="1228"/>
      <point x="792" y="1354"/>
      <point x="568" y="1354" type="curve" smooth="yes"/>
      <point x="377" y="1354"/>
      <point x="211" y="1252"/>
      <point x="136" y="1088" type="curve"/>
      <point x="214" y="1033" type="line"/>
      <point x="279" y="1119"/>
      <point x="373" y="1166"/>
      <point x="476" y="1166" type="curve" smooth="yes"/>
      <point x="604" y="1166"/>
      <point x="688" y="1100"/>
      <point x="688" y="986" type="curve" smooth="yes"/>
      <point x="688" y="845"/>
      <point x="568" y="752"/>
      <point x="360" y="726" type="curve"/>
      <point x="374" y="609" type="line"/>
      <point x="408" y="615"/>
      <point x="449" y="617"/>
      <point x="491" y="617" type="curve" smooth="yes"/>
      <point x="666" y="617"/>
      <point x="774" y="522"/>
      <point x="774" y="366" type="curve" smooth="yes"/>
      <point x="774" y="183"/>
      <point x="625" y="68"/>
      <point x="434" y="107" type="curve"/>
      <point x="526" y="71" type="line"/>
      <point x="377" y="202" type="line" smooth="yes"/>
      <point x="321" y="251"/>
      <point x="290" y="266"/>
      <point x="236" y="266" type="curve" smooth="yes"/>
      <point x="178" y="266"/>
      <point x="138" y="220"/>
      <point x="138" y="164" type="curve" smooth="yes"/>
      <point x="138" y="55"/>
      <point x="277" y="-19"/>
      <point x="475" y="-19" type="curve" smooth="yes"/>
      <point x="795" y="-19"/>
      <point x="1022" y="180"/>
      <point x="1022" y="402" type="curve" smooth="yes"/>
      <point x="1022" y="603"/>
      <point x="867" y="729"/>
      <point x="604" y="737" type="curve"/>
    </contour>
  </outline>
</glyph>
<glyph name="four" format="2">
  <advance width="1158"/>
  <unicode hex="0034"/>
  <outline>
    <contour>
      <point x="902" y="358" type="curve"/>
      <point x="899" y="985" type="line"/>
      <point x="899" y="1111"/>
      <point x="902" y="1234"/>
      <point x="907" y="1343" type="curve"/>
      <point x="779" y="1343" type="line"/>
      <point x="58" y="447" type="line"/>
      <point x="78" y="358" type="line"/>
      <point x="1098" y="358" type="line"/>
      <point x="1098" y="523" type="line"/>
      <point x="248" y="523" type="line"/>
      <point x="253" y="476" type="line"/>
      <point x="703" y="1077" type="line"/>
      <point x="666" y="1090" type="line"/>
      <point x="666" y="358" type="line"/>
      <point x="666" y="202"/>
      <point x="666" y="160"/>
      <point x="662" y="130" type="curve"/>
      <point x="473" y="96" type="line"/>
      <point x="481" y="0" type="line"/>
      <point x="1041" y="0" type="line"/>
      <point x="1048" y="96" type="line"/>
      <point x="905" y="130" type="line"/>
      <point x="904" y="160"/>
      <point x="902" y="202"/>
    </contour>
  </outline>
</glyph>
<glyph name="five" format="2">
  <advance width="1158"/>
  <unicode hex="0035"/>
  <outline>
    <contour>
      <point x="470" y="-19" type="curve" smooth="yes"/>
      <point x="790" y="-19"/>
      <point x="1022" y="175"/>
      <point x="1022" y="403" type="curve" smooth="yes"/>
      <point x="1022" y="654"/>
      <point x="811" y="795"/>
      <point x="347" y="841" type="curve"/>
      <point x="410" y="753" type="line"/>
      <point x="449" y="1119" type="line"/>
      <point x="936" y="1119" type="line"/>
      <point x="956" y="1335" type="line"/>
      <point x="342" y="1335" type="line"/>
      <point x="259" y="637" type="line"/>
      <point x="646" y="593"/>
      <point x="773" y="518"/>
      <point x="773" y="342" type="curve" smooth="yes"/>
      <point x="773" y="181"/>
      <point x="624" y="66"/>
      <point x="429" y="107" type="curve"/>
      <point x="525" y="71" type="line"/>
      <point x="373" y="202" type="line" smooth="yes"/>
      <point x="311" y="253"/>
      <point x="285" y="266"/>
      <point x="235" y="266" type="curve" smooth="yes"/>
      <point x="177" y="266"/>
      <point x="134" y="224"/>
      <point x="134" y="164" type="curve" smooth="yes"/>
      <point x="134" y="55"/>
      <point x="275" y="-19"/>
    </contour>
  </outline>
</glyph>
<glyph name="six" format="2">
  <advance width="1158"/>
  <unicode hex="0036"/>
  <outline>
    <contour>
      <point x="316" y="573" type="curve"/>
      <point x="321" y="476" type="line"/>
      <point x="374" y="560"/>
      <point x="470" y="625"/>
      <point x="577" y="625" type="curve" smooth="yes"/>
      <point x="716" y="625"/>
      <point x="808" y="518"/>
      <point x="808" y="351" type="curve" smooth="yes"/>
      <point x="808" y="206"/>
      <point x="724" y="100"/>
      <point x="606" y="100" type="curve" smooth="yes"/>
      <point x="458" y="100"/>
      <point x="358" y="261"/>
      <point x="358" y="488" type="curve" smooth="yes"/>
      <point x="358" y="907"/>
      <point x="560" y="1155"/>
      <point x="973" y="1257" type="curve"/>
      <point x="938" y="1375" type="line"/>
      <point x="418" y="1309"/>
      <point x="100" y="933"/>
      <point x="100" y="500" type="curve" smooth="yes"/>
      <point x="100" y="194"/>
      <point x="295" y="-19"/>
      <point x="586" y="-19" type="curve" smooth="yes"/>
      <point x="849" y="-19"/>
      <point x="1056" y="177"/>
      <point x="1056" y="423" type="curve" smooth="yes"/>
      <point x="1056" y="643"/>
      <point x="888" y="807"/>
      <point x="671" y="807" type="curve" smooth="yes"/>
      <point x="539" y="807"/>
      <point x="403" y="713"/>
    </contour>
  </outline>
</glyph>
<glyph name="seven" format="2">
  <advance width="1158"/>
  <unicode hex="0037"/>
  <outline>
    <contour>
      <point x="556" y="0" type="line"/>
      <point x="1056" y="1241" type="line"/>
      <point x="1048" y="1336" type="line"/>
      <point x="991" y="1336"/>
      <point x="930" y="1335"/>
      <point x="879" y="1335" type="curve" smooth="yes"/>
      <point x="418" y="1335" type="line" smooth="yes"/>
      <point x="334" y="1335"/>
      <point x="235" y="1336"/>
      <point x="151" y="1343" type="curve"/>
      <point x="100" y="949" type="line"/>
      <point x="214" y="938" type="line"/>
      <point x="270" y="1108" type="line"/>
      <point x="295" y="1113"/>
      <point x="339" y="1116"/>
      <point x="371" y="1116" type="curve" smooth="yes"/>
      <point x="910" y="1116" type="line"/>
      <point x="910" y="1200" type="line"/>
      <point x="347" y="76" type="line"/>
      <point x="347" y="0" type="line"/>
    </contour>
  </outline>
</glyph>
<glyph name="eight" format="2">
  <advance width="1158"/>
  <unicode hex="0038"/>
  <outline>
    <contour>
      <point x="565" y="-19" type="curve" smooth="yes"/>
      <point x="878" y="-19"/>
      <point x="1085" y="136"/>
      <point x="1085" y="371" type="curve" smooth="yes"/>
      <point x="1085" y="795"/>
      <point x="369" y="708"/>
      <point x="369" y="1046" type="curve" smooth="yes"/>
      <point x="369" y="1163"/>
      <point x="457" y="1233"/>
      <point x="578" y="1233" type="curve" smooth="yes"/>
      <point x="721" y="1233"/>
      <point x="805" y="1140"/>
      <point x="805" y="991" type="curve" smooth="yes"/>
      <point x="805" y="878"/>
      <point x="771" y="795"/>
      <point x="685" y="696" type="curve"/>
      <point x="722" y="667" type="line"/>
      <point x="922" y="726"/>
      <point x="1035" y="847"/>
      <point x="1035" y="1014" type="curve" smooth="yes"/>
      <point x="1035" y="1210"/>
      <point x="870" y="1354"/>
      <point x="603" y="1354" type="curve" smooth="yes"/>
      <point x="324" y="1354"/>
      <point x="125" y="1199"/>
      <point x="125" y="985" type="curve" smooth="yes"/>
      <point x="125" y="526"/>
      <point x="839" y="622"/>
      <point x="839" y="298" type="curve" smooth="yes"/>
      <point x="839" y="185"/>
      <point x="745" y="113"/>
      <point x="598" y="113" type="curve" smooth="yes"/>
      <point x="423" y="113"/>
      <point x="317" y="209"/>
      <point x="317" y="351" type="curve" smooth="yes"/>
      <point x="317" y="453"/>
      <point x="368" y="543"/>
      <point x="497" y="635" type="curve"/>
      <point x="444" y="675" type="line"/>
      <point x="212" y="628"/>
      <point x="73" y="505"/>
      <point x="73" y="332" type="curve" smooth="yes"/>
      <point x="73" y="126"/>
      <point x="266" y="-19"/>
    </contour>
  </outline>
</glyph>
<glyph name="nine" format="2">
  <advance width="1158"/>
  <unicode hex="0039"/>
  <outline>
    <contour>
      <point x="842" y="760" type="curve"/>
      <point x="839" y="857" type="line"/>
      <point x="784" y="771"/>
      <point x="688" y="706"/>
      <point x="583" y="706" type="curve" smooth="yes"/>
      <point x="444" y="706"/>
      <point x="353" y="815"/>
      <point x="353" y="980" type="curve" smooth="yes"/>
      <point x="353" y="1126"/>
      <point x="434" y="1233"/>
      <point x="554" y="1233" type="curve" smooth="yes"/>
      <point x="700" y="1233"/>
      <point x="798" y="1072"/>
      <point x="798" y="845" type="curve" smooth="yes"/>
      <point x="798" y="429"/>
      <point x="598" y="181"/>
      <point x="185" y="79" type="curve"/>
      <point x="222" y="-36" type="line"/>
      <point x="739" y="26"/>
      <point x="1059" y="400"/>
      <point x="1059" y="831" type="curve" smooth="yes"/>
      <point x="1059" y="1137"/>
      <point x="865" y="1354"/>
      <point x="573" y="1354" type="curve" smooth="yes"/>
      <point x="304" y="1354"/>
      <point x="102" y="1152"/>
      <point x="102" y="910" type="curve" smooth="yes"/>
      <point x="102" y="692"/>
      <point x="270" y="525"/>
      <point x="486" y="525" type="curve" smooth="yes"/>
      <point x="620" y="525"/>
      <point x="756" y="620"/>
    </contour>
  </outline>
</glyph>
<glyph name="less" format="2">
  <advance width="1226"/>
  <unicode hex="003C"/>
  <outline>
    <contour>
      <point x="120" y="484" type="line"/>
      <point x="1106" y="65" type="line"/>
      <point x="1106" y="253" type="line"/>
      <point x="191" y="635" type="line"/>
      <point x="191" y="515" type="line"/>
      <point x="1106" y="902" type="line"/>
      <point x="1106" y="1092" type="line"/>
      <point x="120" y="672" type="line"/>
    </contour>
  </outline>
</glyph>
<glyph name="equal" format="2">
  <advance width="757"/>
  <unicode hex="003D"/>
  <outline>
    <contour>
      <point x="683" y="535" type="line"/>
      <point x="74" y="535" type="line"/>
      <point x="74" y="427" type="line"/>
      <point x="683" y="427" type="line"/>
    </contour>
    <contour>
      <point x="683" y="284" type="line"/>
      <point x="74" y="284" type="line"/>
      <point x="74" y="178" type="line"/>
      <point x="683" y="178" type="line"/>
    </contour>
  </outline>
</glyph>
<glyph name="greater" format="2">
  <advance width="1226"/>
  <unicode hex="003E"/>
  <outline>
    <contour>
      <point x="1106" y="484" type="line"/>
      <point x="1106" y="672" type="line"/>
      <point x="120" y="1092" type="line"/>
      <point x="120" y="902" type="line"/>
      <point x="1033" y="515" type="line"/>
      <point x="1033" y="635" type="line"/>
      <point x="120" y="253" type="line"/>
      <point x="120" y="65" type="line"/>
    </contour>
  </outline>
</glyph>
<glyph name="question" format="2">
  <advance width="868"/>
  <unicode hex="003F"/>
  <note>
question
</note>
  <outline>
    <component base="period" xOffset="24"/>
    <contour>
      <point x="272" y="520" type="curve"/>
      <point x="358" y="520" type="line"/>
      <point x="353" y="559"/>
      <point x="350" y="581"/>
      <point x="350" y="601" type="curve" smooth="yes"/>
      <point x="350" y="832"/>
      <point x="753" y="803"/>
      <point x="753" y="1084" type="curve" smooth="yes"/>
      <point x="753" y="1359"/>
      <point x="518" y="1587"/>
      <point x="215" y="1587" type="curve" smooth="yes"/>
      <point x="104" y="1587"/>
      <point x="47" y="1518"/>
      <point x="47" y="1448" type="curve" smooth="yes"/>
      <point x="47" y="1383"/>
      <point x="99" y="1318"/>
      <point x="204" y="1318" type="curve" smooth="yes"/>
      <point x="287" y="1318"/>
      <point x="355" y="1357"/>
      <point x="444" y="1357" type="curve" smooth="yes"/>
      <point x="564" y="1357"/>
      <point x="598" y="1267"/>
      <point x="598" y="1205" type="curve" smooth="yes"/>
      <point x="598" y="1030"/>
      <point x="220" y="980"/>
      <point x="220" y="734" type="curve" smooth="yes"/>
      <point x="220" y="664"/>
      <point x="236" y="603"/>
    </contour>
  </outline>
</glyph>
<glyph name="at" format="2">
  <advance width="1315"/>
  <unicode hex="0040"/>
  <note>
at
</note>
  <outline>
    <contour>
      <point x="672" y="-318" type="curve" smooth="yes"/>
      <point x="762" y="-318"/>
      <point x="859" y="-298"/>
      <point x="931" y="-263" type="curve"/>
      <point x="909" y="-200" type="line"/>
      <point x="843" y="-228"/>
      <point x="762" y="-244"/>
      <point x="681" y="-244" type="curve" smooth="yes"/>
      <point x="393" y="-244"/>
      <point x="216" y="-68"/>
      <point x="216" y="247" type="curve" smooth="yes"/>
      <point x="216" y="561"/>
      <point x="406" y="761"/>
      <point x="720" y="761" type="curve" smooth="yes"/>
      <point x="967" y="761"/>
      <point x="1132" y="644"/>
      <point x="1132" y="395" type="curve" smooth="yes"/>
      <point x="1132" y="190"/>
      <point x="1040" y="69"/>
      <point x="937" y="69" type="curve"/>
      <point x="929" y="89"/>
      <point x="926" y="118"/>
      <point x="926" y="169" type="curve"/>
      <point x="930" y="416" type="line"/>
      <point x="930" y="539"/>
      <point x="830" y="621"/>
      <point x="679" y="621" type="curve"/>
      <point x="586" y="608"/>
      <point x="436" y="526"/>
      <point x="436" y="460" type="curve" smooth="yes"/>
      <point x="436" y="419"/>
      <point x="472" y="394"/>
      <point x="528" y="394" type="curve" smooth="yes"/>
      <point x="542" y="394"/>
      <point x="558" y="397"/>
      <point x="576" y="400" type="curve"/>
      <point x="582" y="472" type="line" smooth="yes"/>
      <point x="584" y="521"/>
      <point x="596" y="534"/>
      <point x="635" y="534" type="curve" smooth="yes"/>
      <point x="712" y="534"/>
      <point x="780" y="478"/>
      <point x="780" y="414" type="curve" smooth="yes"/>
      <point x="780" y="353" type="line"/>
      <point x="561" y="285" type="line" smooth="yes"/>
      <point x="471" y="256"/>
      <point x="432" y="216"/>
      <point x="432" y="150" type="curve" smooth="yes"/>
      <point x="432" y="77"/>
      <point x="511" y="-10"/>
      <point x="632" y="-10" type="curve" smooth="yes"/>
      <point x="689" y="-10"/>
      <point x="749" y="26"/>
      <point x="809" y="97" type="curve"/>
      <point x="784" y="101" type="line"/>
      <point x="804" y="40" type="line" smooth="yes"/>
      <point x="815" y="5"/>
      <point x="836" y="-10"/>
      <point x="882" y="-10" type="curve" smooth="yes"/>
      <point x="1066" y="-10"/>
      <point x="1249" y="178"/>
      <point x="1249" y="395" type="curve" smooth="yes"/>
      <point x="1249" y="676"/>
      <point x="1016" y="833"/>
      <point x="721" y="833" type="curve" smooth="yes"/>
      <point x="340" y="833"/>
      <point x="74" y="587"/>
      <point x="74" y="233" type="curve" smooth="yes"/>
      <point x="74" y="-115"/>
      <point x="324" y="-318"/>
    </contour>
    <contour>
      <point x="688" y="93" type="curve" smooth="yes"/>
      <point x="636" y="93"/>
      <point x="590" y="136"/>
      <point x="590" y="182" type="curve" smooth="yes"/>
      <point x="590" y="219"/>
      <point x="608" y="241"/>
      <point x="654" y="252" type="curve" smooth="yes"/>
      <point x="780" y="281" type="line"/>
      <point x="780" y="138" type="line"/>
      <point x="752" y="108"/>
      <point x="721" y="93"/>
    </contour>
  </outline>
</glyph>
<glyph name="A" format="2">
  <advance width="834"/>
  <unicode hex="0041"/>
  <note>
A
</note>
  <anchor x="404" y="824" name="above"/>
  <anchor x="381" y="0" name="below"/>
  <anchor x="779" y="0" name="ogonek"/>
  <outline>
    <contour>
      <point x="0" y="0" type="line"/>
      <point x="255" y="0" type="line"/>
      <point x="258" y="61" type="line"/>
      <point x="169" y="81" type="line"/>
      <point x="239" y="282" type="line"/>
      <point x="255" y="324" type="line"/>
      <point x="385" y="681" type="line"/>
      <point x="348" y="679" type="line"/>
      <point x="495" y="322" type="line"/>
      <point x="510" y="277" type="line"/>
      <point x="590" y="81" type="line"/>
      <point x="502" y="61" type="line"/>
      <point x="505" y="0" type="line"/>
      <point x="836" y="0" type="line"/>
      <point x="841" y="61" type="line"/>
      <point x="769" y="81" type="line"/>
      <point x="455" y="849" type="line"/>
      <point x="355" y="791" type="line"/>
      <point x="68" y="81" type="line"/>
      <point x="-1" y="61" type="line"/>
    </contour>
    <contour>
      <point x="208" y="248" type="line"/>
      <point x="261" y="249"/>
      <point x="313" y="252"/>
      <point x="379" y="252" type="curve" smooth="yes"/>
      <point x="446" y="252"/>
      <point x="501" y="249"/>
      <point x="550" y="249" type="curve"/>
      <point x="550" y="333" type="line"/>
      <point x="516" y="332"/>
      <point x="461" y="329"/>
      <point x="379" y="329" type="curve" smooth="yes"/>
      <point x="297" y="329"/>
      <point x="245" y="332"/>
      <point x="208" y="333" type="curve"/>
    </contour>
  </outline>
</glyph>
<glyph name="B" format="2">
  <advance width="815"/>
  <unicode hex="0042"/>
  <note>
B
</note>
  <anchor x="409" y="824" name="above"/>
  <anchor x="409" y="0" name="below"/>
  <outline>
    <contour>
      <point x="142" y="81" type="curve"/>
      <point x="54" y="61" type="line"/>
      <point x="58" y="0" type="line"/>
      <point x="395" y="0" type="line" smooth="yes"/>
      <point x="619" y="0"/>
      <point x="754" y="90"/>
      <point x="754" y="238" type="curve" smooth="yes"/>
      <point x="754" y="364"/>
      <point x="655" y="439"/>
      <point x="478" y="447" type="curve"/>
      <point x="482" y="435" type="line"/>
      <point x="618" y="444"/>
      <point x="712" y="523"/>
      <point x="712" y="625" type="curve" smooth="yes"/>
      <point x="712" y="755"/>
      <point x="615" y="824"/>
      <point x="425" y="824" type="curve" smooth="yes"/>
      <point x="58" y="824" type="line"/>
      <point x="54" y="761" type="line"/>
      <point x="142" y="743" type="line"/>
      <point x="147" y="732"/>
      <point x="150" y="646"/>
      <point x="150" y="527" type="curve" smooth="yes"/>
      <point x="150" y="294" type="line" smooth="yes"/>
      <point x="150" y="182"/>
      <point x="147" y="95"/>
    </contour>
    <contour>
      <point x="305" y="248" type="curve" smooth="yes"/>
      <point x="305" y="577" type="line" smooth="yes"/>
      <point x="305" y="663"/>
      <point x="306" y="739"/>
      <point x="307" y="753" type="curve"/>
      <point x="380" y="753" type="line" smooth="yes"/>
      <point x="490" y="753"/>
      <point x="545" y="700"/>
      <point x="545" y="609" type="curve" smooth="yes"/>
      <point x="545" y="512"/>
      <point x="486" y="459"/>
      <point x="374" y="459" type="curve" smooth="yes"/>
      <point x="342" y="459"/>
      <point x="319" y="460"/>
      <point x="287" y="461" type="curve"/>
      <point x="287" y="378" type="line"/>
      <point x="311" y="381"/>
      <point x="330" y="381"/>
      <point x="381" y="381" type="curve" smooth="yes"/>
      <point x="521" y="381"/>
      <point x="588" y="330"/>
      <point x="588" y="222" type="curve" smooth="yes"/>
      <point x="588" y="124"/>
      <point x="523" y="73"/>
      <point x="402" y="73" type="curve" smooth="yes"/>
      <point x="374" y="73"/>
      <point x="330" y="78"/>
      <point x="309" y="83" type="curve"/>
      <point x="306" y="102"/>
      <point x="305" y="167"/>
    </contour>
  </outline>
</glyph>
<glyph name="C" format="2">
  <advance width="1391"/>
  <unicode hex="0043"/>
  <note>
C
</note>
  <anchor x="795" y="1335" name="above"/>
  <anchor x="795" y="0" name="below"/>
  <outline>
    <contour>
      <point x="842" y="-19" type="curve" smooth="yes"/>
      <point x="1009" y="-19"/>
      <point x="1169" y="28"/>
      <point x="1270" y="86" type="curve"/>
      <point x="1335" y="379" type="line"/>
      <point x="1205" y="395" type="line"/>
      <point x="1114" y="183" type="line"/>
      <point x="1051" y="139"/>
      <point x="969" y="117"/>
      <point x="881" y="117" type="curve" smooth="yes"/>
      <point x="620" y="117"/>
      <point x="415" y="327"/>
      <point x="415" y="696" type="curve" smooth="yes"/>
      <point x="415" y="998"/>
      <point x="560" y="1220"/>
      <point x="862" y="1220" type="curve" smooth="yes"/>
      <point x="939" y="1220"/>
      <point x="1028" y="1202"/>
      <point x="1088" y="1169" type="curve"/>
      <point x="1161" y="941" type="line"/>
      <point x="1283" y="951" type="line"/>
      <point x="1267" y="1281" type="line"/>
      <point x="1165" y="1326"/>
      <point x="1012" y="1354"/>
      <point x="881" y="1354" type="curve" smooth="yes"/>
      <point x="415" y="1354"/>
      <point x="110" y="1061"/>
      <point x="110" y="651" type="curve" smooth="yes"/>
      <point x="110" y="212"/>
      <point x="423" y="-19"/>
    </contour>
  </outline>
</glyph>
<glyph name="D" format="2">
  <advance width="1579"/>
  <unicode hex="0044"/>
  <note>
D
</note>
  <anchor x="774" y="1335" name="above"/>
  <anchor x="752" y="0" name="below"/>
  <anchor x="797" y="667" name="center"/>
  <anchor x="466" y="667" name="stroke"/>
  <outline>
    <contour>
      <point x="97" y="1335" type="line"/>
      <point x="91" y="1233" type="line"/>
      <point x="232" y="1200" type="line"/>
      <point x="240" y="1181"/>
      <point x="246" y="1040"/>
      <point x="246" y="854" type="curve" smooth="yes"/>
      <point x="246" y="476" type="line" smooth="yes"/>
      <point x="246" y="301"/>
      <point x="240" y="155"/>
      <point x="232" y="131" type="curve"/>
      <point x="91" y="99" type="line"/>
      <point x="97" y="0" type="line"/>
      <point x="711" y="0" type="line" smooth="yes"/>
      <point x="1148" y="0"/>
      <point x="1459" y="282"/>
      <point x="1459" y="682" type="curve" smooth="yes"/>
      <point x="1459" y="1093"/>
      <point x="1174" y="1335"/>
      <point x="688" y="1335" type="curve" smooth="yes"/>
    </contour>
    <contour>
      <point x="502" y="1197" type="curve"/>
      <point x="560" y="1207"/>
      <point x="615" y="1211"/>
      <point x="664" y="1211" type="curve" smooth="yes"/>
      <point x="967" y="1211"/>
      <point x="1171" y="1025"/>
      <point x="1171" y="614" type="curve" smooth="yes"/>
      <point x="1171" y="290"/>
      <point x="1020" y="131"/>
      <point x="730" y="131" type="curve" smooth="yes"/>
      <point x="664" y="131"/>
      <point x="593" y="139"/>
      <point x="509" y="152" type="curve"/>
      <point x="502" y="217"/>
      <point x="497" y="348"/>
      <point x="497" y="476" type="curve" smooth="yes"/>
      <point x="497" y="854" type="line" smooth="yes"/>
      <point x="497" y="1067"/>
      <point x="502" y="1160"/>
    </contour>
  </outline>
</glyph>
<glyph name="E" format="2">
  <advance width="1294"/>
  <unicode hex="0045"/>
  <note>
E
</note>
  <anchor x="649" y="1335" name="above"/>
  <anchor x="649" y="0" name="below"/>
  <anchor x="1147" y="0" name="ogonek"/>
  <anchor x="58" y="1335" name="topleft"/>
  <outline>
    <contour>
      <point x="1143" y="-11" type="curve"/>
      <point x="1242" y="337" type="line"/>
      <point x="1126" y="358" type="line"/>
      <point x="1004" y="138" type="line"/>
      <point x="975" y="131"/>
      <point x="951" y="130"/>
      <point x="842" y="130" type="curve" smooth="yes"/>
      <point x="672" y="130" type="line" smooth="yes"/>
      <point x="594" y="130"/>
      <point x="547" y="131"/>
      <point x="499" y="136" type="curve"/>
      <point x="496" y="170"/>
      <point x="494" y="270"/>
      <point x="494" y="394" type="curve" smooth="yes"/>
      <point x="494" y="936" type="line" smooth="yes"/>
      <point x="494" y="1067"/>
      <point x="496" y="1177"/>
      <point x="499" y="1207" type="curve"/>
      <point x="534" y="1210"/>
      <point x="585" y="1213"/>
      <point x="643" y="1213" type="curve" smooth="yes"/>
      <point x="857" y="1213" type="line" smooth="yes"/>
      <point x="891" y="1213"/>
      <point x="920" y="1210"/>
      <point x="952" y="1203" type="curve"/>
      <point x="1033" y="1007" type="line"/>
      <point x="1152" y="1025" type="line"/>
      <point x="1098" y="1343" type="line"/>
      <point x="1011" y="1336"/>
      <point x="888" y="1335"/>
      <point x="810" y="1335" type="curve" smooth="yes"/>
      <point x="94" y="1335" type="line"/>
      <point x="87" y="1233" type="line"/>
      <point x="232" y="1200" type="line"/>
      <point x="238" y="1182"/>
      <point x="243" y="1051"/>
      <point x="243" y="854" type="curve" smooth="yes"/>
      <point x="243" y="476" type="line" smooth="yes"/>
      <point x="243" y="283"/>
      <point x="238" y="152"/>
      <point x="232" y="131" type="curve"/>
      <point x="87" y="99" type="line"/>
      <point x="94" y="0" type="line"/>
      <point x="876" y="0" type="line"/>
      <point x="954" y="0"/>
      <point x="1058" y="-2"/>
    </contour>
    <contour>
      <point x="871" y="460" type="line"/>
      <point x="985" y="460" type="line"/>
      <point x="985" y="910" type="line"/>
      <point x="871" y="910" type="line"/>
      <point x="847" y="755" type="line"/>
      <point x="828" y="752"/>
      <point x="782" y="750"/>
      <point x="729" y="750" type="curve" smooth="yes"/>
      <point x="583" y="750" type="line" smooth="yes"/>
      <point x="536" y="750"/>
      <point x="489" y="753"/>
      <point x="452" y="755" type="curve"/>
      <point x="452" y="614" type="line"/>
      <point x="489" y="615"/>
      <point x="536" y="620"/>
      <point x="583" y="620" type="curve" smooth="yes"/>
      <point x="729" y="620" type="line" smooth="yes"/>
      <point x="782" y="620"/>
      <point x="828" y="617"/>
      <point x="847" y="612" type="curve"/>
    </contour>
  </outline>
</glyph>
<glyph name="F" format="2">
  <advance width="732"/>
  <unicode hex="0046"/>
  <note>
F
</note>
  <anchor x="366" y="824" name="above"/>
  <anchor x="229" y="0" name="below"/>
  <outline>
    <contour>
      <point x="67" y="0" type="line"/>
      <point x="423" y="0" type="line"/>
      <point x="428" y="64" type="line"/>
      <point x="314" y="81" type="line"/>
      <point x="311" y="93"/>
      <point x="306" y="161"/>
      <point x="306" y="254" type="curve"/>
      <point x="305" y="569" type="line"/>
      <point x="305" y="682"/>
      <point x="304" y="727"/>
      <point x="306" y="743" type="curve"/>
      <point x="325" y="746"/>
      <point x="364" y="749"/>
      <point x="393" y="749" type="curve" smooth="yes"/>
      <point x="524" y="749" type="line" smooth="yes"/>
      <point x="544" y="749"/>
      <point x="563" y="747"/>
      <point x="580" y="743" type="curve"/>
      <point x="632" y="622" type="line"/>
      <point x="705" y="633" type="line"/>
      <point x="671" y="829" type="line"/>
      <point x="619" y="825"/>
      <point x="543" y="824"/>
      <point x="493" y="824" type="curve" smooth="yes"/>
      <point x="63" y="824" type="line"/>
      <point x="58" y="761" type="line"/>
      <point x="146" y="740" type="line"/>
      <point x="149" y="730"/>
      <point x="152" y="655"/>
      <point x="152" y="541" type="curve"/>
      <point x="150" y="290" type="line"/>
      <point x="150" y="168"/>
      <point x="147" y="93"/>
      <point x="144" y="81" type="curve"/>
      <point x="62" y="61" type="line"/>
    </contour>
    <contour>
      <point x="530" y="270" type="line"/>
      <point x="601" y="270" type="line"/>
      <point x="601" y="554" type="line"/>
      <point x="530" y="554" type="line"/>
      <point x="514" y="461" type="line"/>
      <point x="503" y="459"/>
      <point x="478" y="456"/>
      <point x="440" y="456" type="curve" smooth="yes"/>
      <point x="342" y="456" type="line" smooth="yes"/>
      <point x="313" y="456"/>
      <point x="284" y="459"/>
      <point x="264" y="460" type="curve"/>
      <point x="264" y="372" type="line"/>
      <point x="290" y="374"/>
      <point x="315" y="376"/>
      <point x="342" y="376" type="curve" smooth="yes"/>
      <point x="440" y="376" type="line" smooth="yes"/>
      <point x="471" y="376"/>
      <point x="497" y="374"/>
      <point x="514" y="370" type="curve"/>
    </contour>
  </outline>
</glyph>
<glyph name="G" format="2">
  <advance width="917"/>
  <unicode hex="0047"/>
  <note>
G
</note>
  <anchor x="492" y="824" name="above"/>
  <anchor x="492" y="0" name="below"/>
  <outline>
    <contour>
      <point x="522" y="-12" type="curve" smooth="yes"/>
      <point x="619" y="-12"/>
      <point x="729" y="14"/>
      <point x="806" y="63" type="curve"/>
      <point x="804" y="116"/>
      <point x="802" y="156"/>
      <point x="802" y="204" type="curve" smooth="yes"/>
      <point x="802" y="249"/>
      <point x="801" y="292"/>
      <point x="802" y="305" type="curve"/>
      <point x="868" y="325" type="line"/>
      <point x="864" y="386" type="line"/>
      <point x="551" y="386" type="line"/>
      <point x="546" y="322" type="line"/>
      <point x="644" y="304" type="line"/>
      <point x="647" y="279"/>
      <point x="650" y="228"/>
      <point x="650" y="179" type="curve" smooth="yes"/>
      <point x="650" y="31" type="line"/>
      <point x="681" y="108" type="line"/>
      <point x="641" y="81"/>
      <point x="588" y="71"/>
      <point x="547" y="71" type="curve" smooth="yes"/>
      <point x="381" y="71"/>
      <point x="251" y="202"/>
      <point x="251" y="430" type="curve" smooth="yes"/>
      <point x="251" y="616"/>
      <point x="343" y="753"/>
      <point x="533" y="753" type="curve" smooth="yes"/>
      <point x="577" y="753"/>
      <point x="634" y="745"/>
      <point x="672" y="722" type="curve"/>
      <point x="715" y="594" type="line"/>
      <point x="789" y="599" type="line"/>
      <point x="782" y="791" type="line"/>
      <point x="722" y="819"/>
      <point x="627" y="836"/>
      <point x="546" y="836" type="curve" smooth="yes"/>
      <point x="254" y="836"/>
      <point x="65" y="655"/>
      <point x="65" y="399" type="curve" smooth="yes"/>
      <point x="65" y="131"/>
      <point x="259" y="-12"/>
    </contour>
  </outline>
</glyph>
<glyph name="H" format="2">
  <advance width="964"/>
  <unicode hex="0048"/>
  <note>
H
</note>
  <anchor x="481" y="824" name="above"/>
  <anchor x="481" y="0" name="below"/>
  <anchor x="481" y="609" name="center"/>
  <anchor x="36" y="824" name="topleft"/>
  <outline>
    <contour>
      <point x="564" y="0" type="line"/>
      <point x="904" y="0" type="line"/>
      <point x="908" y="61" type="line"/>
      <point x="821" y="81" type="line"/>
      <point x="815" y="95"/>
      <point x="812" y="179"/>
      <point x="812" y="294" type="curve" smooth="yes"/>
      <point x="812" y="527" type="line" smooth="yes"/>
      <point x="812" y="647"/>
      <point x="815" y="730"/>
      <point x="821" y="741" type="curve"/>
      <point x="908" y="761" type="line"/>
      <point x="904" y="824" type="line"/>
      <point x="564" y="824" type="line"/>
      <point x="561" y="761" type="line"/>
      <point x="647" y="741" type="line"/>
      <point x="652" y="730"/>
      <point x="655" y="653"/>
      <point x="655" y="527" type="curve" smooth="yes"/>
      <point x="655" y="294" type="line" smooth="yes"/>
      <point x="655" y="172"/>
      <point x="652" y="95"/>
      <point x="647" y="81" type="curve"/>
      <point x="561" y="61" type="line"/>
    </contour>
    <contour>
      <point x="60" y="0" type="line"/>
      <point x="398" y="0" type="line"/>
      <point x="402" y="61" type="line"/>
      <point x="315" y="81" type="line"/>
      <point x="309" y="95"/>
      <point x="306" y="172"/>
      <point x="306" y="294" type="curve" smooth="yes"/>
      <point x="306" y="527" type="line" smooth="yes"/>
      <point x="306" y="653"/>
      <point x="309" y="730"/>
      <point x="315" y="741" type="curve"/>
      <point x="402" y="761" type="line"/>
      <point x="398" y="824" type="line"/>
      <point x="60" y="824" type="line"/>
      <point x="56" y="761" type="line"/>
      <point x="143" y="741" type="line"/>
      <point x="147" y="731"/>
      <point x="150" y="649"/>
      <point x="150" y="527" type="curve" smooth="yes"/>
      <point x="150" y="294" type="line" smooth="yes"/>
      <point x="150" y="175"/>
      <point x="147" y="94"/>
      <point x="143" y="81" type="curve"/>
      <point x="56" y="61" type="line"/>
    </contour>
    <contour>
      <point x="282" y="374" type="line"/>
      <point x="322" y="376"/>
      <point x="381" y="380"/>
      <point x="482" y="380" type="curve" smooth="yes"/>
      <point x="581" y="380"/>
      <point x="639" y="376"/>
      <point x="679" y="374" type="curve"/>
      <point x="679" y="469" type="line"/>
      <point x="639" y="464"/>
      <point x="577" y="463"/>
      <point x="482" y="463" type="curve" smooth="yes"/>
      <point x="386" y="463"/>
      <point x="323" y="464"/>
      <point x="282" y="469" type="curve"/>
    </contour>
  </outline>
</glyph>
<glyph name="I" format="2">
  <advance width="742"/>
  <unicode hex="0049"/>
  <note>
I
</note>
  <anchor x="371" y="1335" name="above"/>
  <anchor x="371" y="0" name="below"/>
  <anchor x="520" y="0" name="ogonek"/>
  <anchor x="58" y="1335" name="topleft"/>
  <outline>
    <contour>
      <point x="97" y="0" type="line"/>
      <point x="646" y="0" type="line"/>
      <point x="653" y="99" type="line"/>
      <point x="510" y="131" type="line"/>
      <point x="500" y="154"/>
      <point x="496" y="279"/>
      <point x="496" y="476" type="curve" smooth="yes"/>
      <point x="496" y="854" type="line" smooth="yes"/>
      <point x="496" y="1058"/>
      <point x="500" y="1182"/>
      <point x="510" y="1200" type="curve"/>
      <point x="653" y="1233" type="line"/>
      <point x="646" y="1335" type="line"/>
      <point x="97" y="1335" type="line"/>
      <point x="91" y="1233" type="line"/>
      <point x="232" y="1200" type="line"/>
      <point x="238" y="1184"/>
      <point x="243" y="1051"/>
      <point x="243" y="854" type="curve" smooth="yes"/>
      <point x="243" y="476" type="line" smooth="yes"/>
      <point x="243" y="283"/>
      <point x="238" y="152"/>
      <point x="232" y="131" type="curve"/>
      <point x="91" y="99" type="line"/>
    </contour>
  </outline>
</glyph>
<glyph name="J" format="2">
  <advance width="458"/>
  <unicode hex="004A"/>
  <note>
J
</note>
  <anchor x="229" y="824" name="above"/>
  <outline>
    <contour>
      <point x="315" y="741" type="curve"/>
      <point x="403" y="761" type="line"/>
      <point x="399" y="824" type="line"/>
      <point x="49" y="824" type="line"/>
      <point x="46" y="761" type="line"/>
      <point x="143" y="742" type="line"/>
      <point x="147" y="726"/>
      <point x="150" y="643"/>
      <point x="150" y="531" type="curve"/>
      <point x="151" y="-34" type="line"/>
      <point x="151" y="-184"/>
      <point x="126" y="-228"/>
      <point x="53" y="-216" type="curve"/>
      <point x="117" y="-239" type="line"/>
      <point x="31" y="-154" type="line" smooth="yes"/>
      <point x="2" y="-125"/>
      <point x="-23" y="-113"/>
      <point x="-53" y="-113" type="curve" smooth="yes"/>
      <point x="-89" y="-113"/>
      <point x="-116" y="-138"/>
      <point x="-116" y="-175" type="curve" smooth="yes"/>
      <point x="-116" y="-237"/>
      <point x="-37" y="-284"/>
      <point x="62" y="-284" type="curve" smooth="yes"/>
      <point x="213" y="-284"/>
      <point x="308" y="-172"/>
      <point x="308" y="13" type="curve"/>
      <point x="306" y="529" type="line"/>
      <point x="306" y="653"/>
      <point x="309" y="731"/>
    </contour>
  </outline>
</glyph>
<glyph name="K" format="2">
  <advance width="871"/>
  <unicode hex="004B"/>
  <note>
K
</note>
  <anchor x="453" y="824" name="above"/>
  <anchor x="453" y="0" name="below"/>
  <outline>
    <contour>
      <point x="513" y="0" type="line"/>
      <point x="887" y="0" type="line"/>
      <point x="887" y="63" type="line"/>
      <point x="816" y="76" type="line"/>
      <point x="799" y="93"/>
      <point x="772" y="122"/>
      <point x="717" y="187" type="curve" smooth="yes"/>
      <point x="447" y="499" type="line"/>
      <point x="447" y="446" type="line"/>
      <point x="770" y="745" type="line"/>
      <point x="857" y="759" type="line"/>
      <point x="854" y="824" type="line"/>
      <point x="559" y="824" type="line"/>
      <point x="555" y="761" type="line"/>
      <point x="643" y="745" type="line"/>
      <point x="353" y="446" type="line"/>
      <point x="287" y="431" type="line"/>
      <point x="287" y="372" type="line"/>
      <point x="344" y="372" type="line"/>
      <point x="538" y="144" type="line" smooth="yes"/>
      <point x="563" y="113"/>
      <point x="576" y="95"/>
      <point x="589" y="75" type="curve"/>
      <point x="510" y="61" type="line"/>
    </contour>
    <contour>
      <point x="63" y="0" type="line"/>
      <point x="388" y="0" type="line"/>
      <point x="392" y="61" type="line"/>
      <point x="314" y="81" type="line"/>
      <point x="310" y="94"/>
      <point x="307" y="173"/>
      <point x="307" y="294" type="curve" smooth="yes"/>
      <point x="307" y="527" type="line" smooth="yes"/>
      <point x="307" y="650"/>
      <point x="310" y="729"/>
      <point x="316" y="741" type="curve"/>
      <point x="404" y="761" type="line"/>
      <point x="401" y="824" type="line"/>
      <point x="61" y="824" type="line"/>
      <point x="57" y="761" type="line"/>
      <point x="144" y="741" type="line"/>
      <point x="149" y="730"/>
      <point x="152" y="649"/>
      <point x="152" y="527" type="curve" smooth="yes"/>
      <point x="152" y="294" type="line" smooth="yes"/>
      <point x="152" y="173"/>
      <point x="150" y="94"/>
      <point x="147" y="81" type="curve"/>
      <point x="59" y="61" type="line"/>
    </contour>
  </outline>
</glyph>
<glyph name="L" format="2">
  <advance width="745"/>
  <unicode hex="004C"/>
  <note>
L
</note>
  <anchor x="230" y="824" name="above"/>
  <anchor x="403" y="0" name="below"/>
  <anchor x="275" y="425" name="center"/>
  <anchor x="515" y="448" name="dotacc"/>
  <anchor x="523" y="824" name="topright"/>
  <outline>
    <contour>
      <point x="678" y="-7" type="curve"/>
      <point x="740" y="225" type="line"/>
      <point x="666" y="243" type="line"/>
      <point x="589" y="96" type="line"/>
      <point x="564" y="93"/>
      <point x="535" y="89"/>
      <point x="493" y="89" type="curve" smooth="yes"/>
      <point x="414" y="89" type="line" smooth="yes"/>
      <point x="371" y="89"/>
      <point x="343" y="91"/>
      <point x="314" y="95" type="curve"/>
      <point x="310" y="117"/>
      <point x="309" y="191"/>
      <point x="309" y="294" type="curve" smooth="yes"/>
      <point x="309" y="527" type="line" smooth="yes"/>
      <point x="309" y="653"/>
      <point x="313" y="730"/>
      <point x="317" y="739" type="curve"/>
      <point x="434" y="759" type="line"/>
      <point x="430" y="824" type="line"/>
      <point x="61" y="824" type="line"/>
      <point x="58" y="761" type="line"/>
      <point x="146" y="740" type="line"/>
      <point x="150" y="728"/>
      <point x="152" y="644"/>
      <point x="152" y="527" type="curve" smooth="yes"/>
      <point x="152" y="294" type="line" smooth="yes"/>
      <point x="152" y="180"/>
      <point x="149" y="95"/>
      <point x="146" y="81" type="curve"/>
      <point x="58" y="61" type="line"/>
      <point x="61" y="0" type="line"/>
      <point x="497" y="0" type="line"/>
      <point x="540" y="0"/>
      <point x="621" y="-2"/>
    </contour>
  </outline>
</glyph>
<glyph name="M" format="2">
  <advance width="1979"/>
  <unicode hex="004D"/>
  <note>
M
</note>
  <anchor x="943" y="1335" name="above"/>
  <anchor x="943" y="0" name="below"/>
  <outline>
    <contour>
      <point x="117" y="1335" type="line"/>
      <point x="110" y="1233" type="line"/>
      <point x="251" y="1200" type="line"/>
      <point x="251" y="1156"/>
      <point x="254" y="1054"/>
      <point x="251" y="904" type="curve" smooth="yes"/>
      <point x="243" y="463" type="line" smooth="yes"/>
      <point x="243" y="295"/>
      <point x="240" y="164"/>
      <point x="235" y="131" type="curve"/>
      <point x="78" y="99" type="line"/>
      <point x="84" y="0" type="line"/>
      <point x="559" y="0" type="line"/>
      <point x="565" y="99" type="line"/>
      <point x="408" y="131" type="line"/>
      <point x="405" y="155"/>
      <point x="402" y="248"/>
      <point x="402" y="491" type="curve" smooth="yes"/>
      <point x="400" y="1270" type="line"/>
      <point x="300" y="1270" type="line"/>
      <point x="886" y="-5" type="line"/>
      <point x="996" y="-5" type="line"/>
      <point x="1544" y="1268" type="line"/>
      <point x="1463" y="1268" type="line"/>
      <point x="1467" y="479" type="line" smooth="yes"/>
      <point x="1469" y="262"/>
      <point x="1467" y="167"/>
      <point x="1466" y="131" type="curve"/>
      <point x="1323" y="99" type="line"/>
      <point x="1330" y="0" type="line"/>
      <point x="1882" y="0" type="line"/>
      <point x="1887" y="99" type="line"/>
      <point x="1744" y="131" type="line"/>
      <point x="1739" y="165"/>
      <point x="1733" y="290"/>
      <point x="1727" y="497" type="curve"/>
      <point x="1715" y="907" type="line" smooth="yes"/>
      <point x="1712" y="1050"/>
      <point x="1710" y="1163"/>
      <point x="1712" y="1202" type="curve"/>
      <point x="1854" y="1233" type="line"/>
      <point x="1846" y="1335" type="line"/>
      <point x="1422" y="1335" type="line"/>
      <point x="975" y="287" type="line"/>
      <point x="1028" y="287" type="line"/>
      <point x="552" y="1335" type="line"/>
    </contour>
  </outline>
</glyph>
<glyph name="N" format="2">
  <advance width="963"/>
  <unicode hex="004E"/>
  <note>
N
</note>
  <anchor x="482" y="824" name="above"/>
  <anchor x="482" y="0" name="below"/>
  <outline>
    <contour>
      <point x="718" y="230" type="line"/>
      <point x="760" y="230" type="line"/>
      <point x="269" y="824" type="line"/>
      <point x="61" y="824" type="line"/>
      <point x="57" y="761" type="line"/>
      <point x="145" y="741" type="line"/>
      <point x="149" y="726"/>
      <point x="154" y="653"/>
      <point x="154" y="553" type="curve" smooth="yes"/>
      <point x="154" y="340" type="line" smooth="yes"/>
      <point x="154" y="185"/>
      <point x="149" y="95"/>
      <point x="145" y="81" type="curve"/>
      <point x="57" y="61" type="line"/>
      <point x="61" y="0" type="line"/>
      <point x="349" y="0" type="line"/>
      <point x="353" y="61" type="line"/>
      <point x="255" y="81" type="line"/>
      <point x="251" y="95"/>
      <point x="247" y="179"/>
      <point x="247" y="340" type="curve" smooth="yes"/>
      <point x="247" y="667" type="line"/>
      <point x="193" y="665" type="line"/>
      <point x="735" y="-5" type="line"/>
      <point x="809" y="-5" type="line"/>
      <point x="809" y="59"/>
      <point x="808" y="121"/>
      <point x="808" y="194" type="curve" smooth="yes"/>
      <point x="808" y="494" type="line" smooth="yes"/>
      <point x="808" y="644"/>
      <point x="814" y="731"/>
      <point x="817" y="741" type="curve"/>
      <point x="904" y="761" type="line"/>
      <point x="901" y="824" type="line"/>
      <point x="617" y="824" type="line"/>
      <point x="614" y="761" type="line"/>
      <point x="710" y="741" type="line"/>
      <point x="714" y="731"/>
      <point x="718" y="643"/>
      <point x="718" y="494" type="curve" smooth="yes"/>
    </contour>
  </outline>
</glyph>
<glyph name="O" format="2">
  <advance width="977"/>
  <unicode hex="004F"/>
  <note>
O
</note>
  <anchor x="489" y="824" name="above"/>
  <anchor x="489" y="0" name="below"/>
  <anchor x="489" y="412" name="center"/>
  <anchor x="593" y="0" name="ogonek"/>
  <anchor x="22" y="824" name="topleft"/>
  <anchor x="954" y="824" name="topright"/>
  <outline>
    <contour>
      <point x="496" y="-12" type="curve" smooth="yes"/>
      <point x="699" y="-12"/>
      <point x="912" y="149"/>
      <point x="912" y="420" type="curve" smooth="yes"/>
      <point x="912" y="665"/>
      <point x="742" y="836"/>
      <point x="498" y="836" type="curve" smooth="yes"/>
      <point x="248" y="836"/>
      <point x="65" y="653"/>
      <point x="65" y="405" type="curve" smooth="yes"/>
      <point x="65" y="159"/>
      <point x="245" y="-12"/>
    </contour>
    <contour>
      <point x="508" y="77" type="curve" smooth="yes"/>
      <point x="357" y="77"/>
      <point x="250" y="226"/>
      <point x="250" y="438" type="curve" smooth="yes"/>
      <point x="250" y="635"/>
      <point x="339" y="755"/>
      <point x="481" y="755" type="curve" smooth="yes"/>
      <point x="631" y="755"/>
      <point x="729" y="607"/>
      <point x="729" y="384" type="curve" smooth="yes"/>
      <point x="729" y="193"/>
      <point x="649" y="77"/>
    </contour>
  </outline>
</glyph>
<glyph name="P" format="2">
  <advance width="1229"/>
  <unicode hex="0050"/>
  <note>
P
</note>
  <anchor x="614" y="1335" name="above"/>
  <anchor x="374" y="0" name="below"/>
  <outline>
    <contour>
      <point x="105" y="0" type="line"/>
      <point x="690" y="0" type="line"/>
      <point x="696" y="104" type="line"/>
      <point x="510" y="134" type="line"/>
      <point x="509" y="152"/>
      <point x="499" y="256"/>
      <point x="499" y="465" type="curve"/>
      <point x="497" y="876" type="line"/>
      <point x="497" y="1059"/>
      <point x="497" y="1189"/>
      <point x="500" y="1220" type="curve"/>
      <point x="591" y="1220" type="line" smooth="yes"/>
      <point x="763" y="1220"/>
      <point x="879" y="1126"/>
      <point x="879" y="917" type="curve" smooth="yes"/>
      <point x="879" y="735"/>
      <point x="786" y="645"/>
      <point x="625" y="645" type="curve" smooth="yes"/>
      <point x="565" y="645"/>
      <point x="515" y="656"/>
      <point x="465" y="674" type="curve"/>
      <point x="465" y="533" type="line"/>
      <point x="512" y="525"/>
      <point x="568" y="517"/>
      <point x="628" y="517" type="curve" smooth="yes"/>
      <point x="935" y="517"/>
      <point x="1147" y="693"/>
      <point x="1147" y="946" type="curve" smooth="yes"/>
      <point x="1147" y="1195"/>
      <point x="967" y="1335"/>
      <point x="630" y="1335" type="curve" smooth="yes"/>
      <point x="99" y="1335" type="line"/>
      <point x="92" y="1233" type="line"/>
      <point x="233" y="1202" type="line"/>
      <point x="240" y="1186"/>
      <point x="246" y="1075"/>
      <point x="246" y="876" type="curve"/>
      <point x="243" y="465" type="line"/>
      <point x="243" y="256"/>
      <point x="240" y="151"/>
      <point x="232" y="131" type="curve"/>
      <point x="99" y="99" type="line"/>
    </contour>
  </outline>
</glyph>
<glyph name="Q" format="2">
  <advance width="977"/>
  <unicode hex="0051"/>
  <note>
Q
</note>
  <anchor x="489" y="824" name="above"/>
  <outline>
    <contour>
      <point x="496" y="-10" type="curve"/>
      <point x="513" y="-7" type="line"/>
      <point x="705" y="-7"/>
      <point x="912" y="152"/>
      <point x="912" y="420" type="curve" smooth="yes"/>
      <point x="912" y="665"/>
      <point x="742" y="836"/>
      <point x="498" y="836" type="curve" smooth="yes"/>
      <point x="248" y="836"/>
      <point x="65" y="653"/>
      <point x="65" y="405" type="curve" smooth="yes"/>
      <point x="65" y="159"/>
      <point x="245" y="-10"/>
    </contour>
    <contour>
      <point x="848" y="-198" type="curve" smooth="yes"/>
      <point x="923" y="-198"/>
      <point x="991" y="-177"/>
      <point x="1040" y="-146" type="curve"/>
      <point x="1023" y="-81" type="line"/>
      <point x="991" y="-91"/>
      <point x="960" y="-93"/>
      <point x="934" y="-93" type="curve" smooth="yes"/>
      <point x="879" y="-93"/>
      <point x="833" y="-80"/>
      <point x="772" y="-45" type="curve" smooth="yes"/>
      <point x="707" y="-8"/>
      <point x="635" y="8"/>
      <point x="559" y="11" type="curve"/>
      <point x="378" y="11" type="line"/>
      <point x="433" y="-6"/>
      <point x="504" y="-59"/>
      <point x="568" y="-104" type="curve" smooth="yes"/>
      <point x="648" y="-163"/>
      <point x="728" y="-198"/>
    </contour>
    <contour>
      <point x="508" y="77" type="curve" smooth="yes"/>
      <point x="357" y="77"/>
      <point x="250" y="226"/>
      <point x="250" y="438" type="curve" smooth="yes"/>
      <point x="250" y="635"/>
      <point x="339" y="755"/>
      <point x="481" y="755" type="curve" smooth="yes"/>
      <point x="631" y="755"/>
      <point x="729" y="607"/>
      <point x="729" y="384" type="curve" smooth="yes"/>
      <point x="729" y="190"/>
      <point x="648" y="77"/>
    </contour>
  </outline>
</glyph>
<glyph name="R" format="2">
  <advance width="836"/>
  <unicode hex="0052"/>
  <note>
R
</note>
  <anchor x="399" y="824" name="above"/>
  <anchor x="453" y="0" name="below"/>
  <outline>
    <contour>
      <point x="65" y="0" type="line"/>
      <point x="389" y="0" type="line"/>
      <point x="393" y="61" type="line"/>
      <point x="313" y="83" type="line"/>
      <point x="309" y="114"/>
      <point x="306" y="195"/>
      <point x="306" y="294" type="curve" smooth="yes"/>
      <point x="306" y="543" type="line" smooth="yes"/>
      <point x="306" y="682"/>
      <point x="307" y="742"/>
      <point x="309" y="753" type="curve"/>
      <point x="377" y="753" type="line" smooth="yes"/>
      <point x="474" y="753"/>
      <point x="527" y="703"/>
      <point x="527" y="610" type="curve" smooth="yes"/>
      <point x="527" y="510"/>
      <point x="462" y="448"/>
      <point x="358" y="448" type="curve" smooth="yes"/>
      <point x="288" y="448" type="line"/>
      <point x="288" y="377" type="line"/>
      <point x="377" y="377" type="line" smooth="yes"/>
      <point x="561" y="377"/>
      <point x="690" y="477"/>
      <point x="690" y="616" type="curve" smooth="yes"/>
      <point x="690" y="755"/>
      <point x="592" y="824"/>
      <point x="396" y="824" type="curve" smooth="yes"/>
      <point x="60" y="824" type="line"/>
      <point x="56" y="761" type="line"/>
      <point x="144" y="741" type="line"/>
      <point x="149" y="730"/>
      <point x="152" y="650"/>
      <point x="152" y="527" type="curve" smooth="yes"/>
      <point x="152" y="294" type="line" smooth="yes"/>
      <point x="152" y="213"/>
      <point x="150" y="108"/>
      <point x="149" y="83" type="curve"/>
      <point x="61" y="61" type="line"/>
    </contour>
    <contour>
      <point x="765" y="-14" type="curve" smooth="yes"/>
      <point x="790" y="-14"/>
      <point x="815" y="-12"/>
      <point x="840" y="-7" type="curve"/>
      <point x="841" y="48" type="line"/>
      <point x="769" y="64"/>
      <point x="718" y="103"/>
      <point x="649" y="202" type="curve" smooth="yes"/>
      <point x="490" y="430" type="line"/>
      <point x="360" y="400" type="line"/>
      <point x="447" y="227" type="line" smooth="yes"/>
      <point x="537" y="51"/>
      <point x="624" y="-14"/>
    </contour>
  </outline>
</glyph>
<glyph name="S" format="2">
  <advance width="1124"/>
  <unicode hex="0053"/>
  <note>
S
</note>
  <anchor x="573" y="1335" name="above"/>
  <anchor x="573" y="0" name="below"/>
  <outline>
    <contour>
      <point x="520" y="-19" type="curve" smooth="yes"/>
      <point x="836" y="-19"/>
      <point x="1051" y="143"/>
      <point x="1051" y="369" type="curve" smooth="yes"/>
      <point x="1051" y="792"/>
      <point x="384" y="726"/>
      <point x="384" y="1041" type="curve" smooth="yes"/>
      <point x="384" y="1158"/>
      <point x="479" y="1231"/>
      <point x="617" y="1231" type="curve" smooth="yes"/>
      <point x="688" y="1231"/>
      <point x="740" y="1220"/>
      <point x="792" y="1190" type="curve"/>
      <point x="860" y="981" type="line"/>
      <point x="983" y="991" type="line"/>
      <point x="960" y="1301" type="line"/>
      <point x="879" y="1338"/>
      <point x="753" y="1357"/>
      <point x="641" y="1357" type="curve" smooth="yes"/>
      <point x="332" y="1357"/>
      <point x="121" y="1200"/>
      <point x="121" y="965" type="curve" smooth="yes"/>
      <point x="121" y="518"/>
      <point x="781" y="606"/>
      <point x="781" y="290" type="curve" smooth="yes"/>
      <point x="781" y="178"/>
      <point x="696" y="109"/>
      <point x="552" y="109" type="curve" smooth="yes"/>
      <point x="466" y="109"/>
      <point x="376" y="134"/>
      <point x="308" y="178" type="curve"/>
      <point x="238" y="397" type="line"/>
      <point x="117" y="389" type="line"/>
      <point x="128" y="71" type="line"/>
      <point x="225" y="16"/>
      <point x="390" y="-19"/>
    </contour>
  </outline>
</glyph>
<glyph name="T" format="2">
  <advance width="820"/>
  <unicode hex="0054"/>
  <note>
T
</note>
  <anchor x="410" y="824" name="above"/>
  <anchor x="410" y="0" name="below"/>
  <anchor x="410" y="425" name="stroke"/>
  <outline>
    <contour>
      <point x="765" y="829" type="line"/>
      <point x="722" y="827"/>
      <point x="645" y="824"/>
      <point x="598" y="824" type="curve" smooth="yes"/>
      <point x="219" y="824" type="line" smooth="yes"/>
      <point x="171" y="824"/>
      <point x="94" y="827"/>
      <point x="51" y="829" type="curve"/>
      <point x="22" y="591" type="line"/>
      <point x="96" y="582" type="line"/>
      <point x="152" y="745" type="line"/>
      <point x="170" y="747"/>
      <point x="191" y="749"/>
      <point x="211" y="749" type="curve" smooth="yes"/>
      <point x="262" y="749" type="line" smooth="yes"/>
      <point x="281" y="749"/>
      <point x="311" y="749"/>
      <point x="329" y="747" type="curve"/>
      <point x="330" y="727"/>
      <point x="331" y="593"/>
      <point x="331" y="480" type="curve" smooth="yes"/>
      <point x="331" y="321" type="line" smooth="yes"/>
      <point x="331" y="208"/>
      <point x="327" y="117"/>
      <point x="327" y="81" type="curve"/>
      <point x="207" y="64" type="line"/>
      <point x="211" y="0" type="line"/>
      <point x="608" y="0" type="line"/>
      <point x="613" y="64" type="line"/>
      <point x="493" y="81" type="line"/>
      <point x="491" y="117"/>
      <point x="489" y="208"/>
      <point x="489" y="321" type="curve" smooth="yes"/>
      <point x="489" y="480" type="line" smooth="yes"/>
      <point x="489" y="593"/>
      <point x="490" y="727"/>
      <point x="491" y="747" type="curve"/>
      <point x="510" y="749"/>
      <point x="540" y="749"/>
      <point x="558" y="749" type="curve" smooth="yes"/>
      <point x="608" y="749" type="line" smooth="yes"/>
      <point x="628" y="749"/>
      <point x="647" y="747"/>
      <point x="666" y="745" type="curve"/>
      <point x="723" y="585" type="line"/>
      <point x="796" y="592" type="line"/>
    </contour>
  </outline>
</glyph>
<glyph name="U" format="2">
  <advance width="958"/>
  <unicode hex="0055"/>
  <note>
U
</note>
  <anchor x="508" y="824" name="above"/>
  <anchor x="507" y="0" name="below"/>
  <anchor x="592" y="0" name="ogonek"/>
  <anchor x="919" y="824" name="topright"/>
  <outline>
    <contour>
      <point x="56" y="824" type="line"/>
      <point x="53" y="761" type="line"/>
      <point x="140" y="740" type="line"/>
      <point x="143" y="731"/>
      <point x="147" y="663"/>
      <point x="147" y="527" type="curve" smooth="yes"/>
      <point x="147" y="328" type="line" smooth="yes"/>
      <point x="147" y="110"/>
      <point x="272" y="-12"/>
      <point x="492" y="-12" type="curve" smooth="yes"/>
      <point x="682" y="-12"/>
      <point x="811" y="108"/>
      <point x="811" y="338" type="curve" smooth="yes"/>
      <point x="811" y="502" type="line" smooth="yes"/>
      <point x="811" y="650"/>
      <point x="815" y="732"/>
      <point x="817" y="740" type="curve"/>
      <point x="905" y="761" type="line"/>
      <point x="901" y="824" type="line"/>
      <point x="608" y="824" type="line"/>
      <point x="604" y="761" type="line"/>
      <point x="703" y="740" type="line"/>
      <point x="706" y="727"/>
      <point x="711" y="631"/>
      <point x="711" y="502" type="curve" smooth="yes"/>
      <point x="711" y="354" type="line" smooth="yes"/>
      <point x="711" y="175"/>
      <point x="639" y="99"/>
      <point x="513" y="99" type="curve" smooth="yes"/>
      <point x="382" y="99"/>
      <point x="304" y="176"/>
      <point x="305" y="349" type="curve"/>
      <point x="305" y="527" type="line"/>
      <point x="303" y="660"/>
      <point x="308" y="718"/>
      <point x="310" y="740" type="curve"/>
      <point x="399" y="761" type="line"/>
      <point x="394" y="824" type="line"/>
    </contour>
  </outline>
</glyph>
<glyph name="V" format="2">
  <advance width="840"/>
  <unicode hex="0056"/>
  <note>
V
</note>
  <anchor x="412" y="824" name="above"/>
  <anchor x="412" y="0" name="below"/>
  <outline>
    <contour>
      <point x="382" y="-3" type="line"/>
      <point x="450" y="-3" type="line"/>
      <point x="773" y="741" type="line"/>
      <point x="844" y="763" type="line"/>
      <point x="840" y="824" type="line"/>
      <point x="566" y="824" type="line"/>
      <point x="562" y="761" type="line"/>
      <point x="661" y="741" type="line"/>
      <point x="441" y="163" type="line"/>
      <point x="484" y="163" type="line"/>
      <point x="248" y="741" type="line"/>
      <point x="334" y="761" type="line"/>
      <point x="330" y="824" type="line"/>
      <point x="0" y="824" type="line"/>
      <point x="-3" y="763" type="line"/>
      <point x="67" y="741" type="line"/>
    </contour>
  </outline>
</glyph>
<glyph name="W" format="2">
  <advance width="2180"/>
  <unicode hex="0057"/>
  <note>
W
</note>
  <anchor x="1098" y="1335" name="above"/>
  <anchor x="1098" y="0" name="below"/>
  <outline>
    <contour>
      <point x="1118" y="951" type="line"/>
      <point x="1037" y="1143" type="line"/>
      <point x="696" y="264" type="line"/>
      <point x="779" y="264" type="line"/>
      <point x="413" y="1200" type="line"/>
      <point x="528" y="1233" type="line"/>
      <point x="522" y="1335" type="line"/>
      <point x="10" y="1335" type="line"/>
      <point x="5" y="1233" type="line"/>
      <point x="118" y="1200" type="line"/>
      <point x="614" y="-5" type="line"/>
      <point x="722" y="-5" type="line"/>
    </contour>
    <contour>
      <point x="1446" y="-5" type="line"/>
      <point x="1556" y="-5" type="line"/>
      <point x="2057" y="1200" type="line"/>
      <point x="2175" y="1233" type="line"/>
      <point x="2167" y="1335" type="line"/>
      <point x="1727" y="1335" type="line"/>
      <point x="1718" y="1233" type="line"/>
      <point x="1877" y="1200" type="line"/>
      <point x="1532" y="264" type="line"/>
      <point x="1603" y="264" type="line"/>
      <point x="1236" y="1200" type="line"/>
      <point x="1377" y="1233" type="line"/>
      <point x="1372" y="1335" type="line"/>
      <point x="844" y="1335" type="line"/>
      <point x="836" y="1233" type="line"/>
      <point x="952" y="1200" type="line"/>
    </contour>
  </outline>
</glyph>
<glyph name="X" format="2">
  <advance width="1351"/>
  <unicode hex="0058"/>
  <note>
X
</note>
  <anchor x="664" y="1335" name="above"/>
  <anchor x="664" y="0" name="below"/>
  <outline>
    <contour>
      <point x="1341" y="0" type="line"/>
      <point x="1348" y="99" type="line"/>
      <point x="1231" y="134" type="line"/>
      <point x="792" y="752" type="line"/>
      <point x="716" y="860" type="line"/>
      <point x="476" y="1200" type="line"/>
      <point x="603" y="1233" type="line"/>
      <point x="598" y="1335" type="line"/>
      <point x="57" y="1335" type="line"/>
      <point x="50" y="1233" type="line"/>
      <point x="165" y="1200" type="line"/>
      <point x="547" y="659" type="line"/>
      <point x="632" y="549" type="line"/>
      <point x="920" y="134" type="line"/>
      <point x="781" y="99" type="line"/>
      <point x="786" y="0" type="line"/>
    </contour>
    <contour>
      <point x="954" y="1200" type="line"/>
      <point x="716" y="860" type="line"/>
      <point x="547" y="659" type="line"/>
      <point x="154" y="134" type="line"/>
      <point x="39" y="99" type="line"/>
      <point x="44" y="0" type="line"/>
      <point x="489" y="0" type="line"/>
      <point x="494" y="99" type="line"/>
      <point x="342" y="134" type="line"/>
      <point x="632" y="549" type="line"/>
      <point x="792" y="752" type="line"/>
      <point x="1140" y="1200" type="line"/>
      <point x="1257" y="1233" type="line"/>
      <point x="1252" y="1335" type="line"/>
      <point x="821" y="1335" type="line"/>
      <point x="816" y="1233" type="line"/>
    </contour>
  </outline>
</glyph>
<glyph name="Y" format="2">
  <advance width="789"/>
  <unicode hex="0059"/>
  <note>
Y
</note>
  <anchor x="393" y="824" name="above"/>
  <anchor x="393" y="0" name="below"/>
  <anchor x="30" y="824" name="topleft"/>
  <outline>
    <contour>
      <point x="714" y="741" type="line"/>
      <point x="786" y="761" type="line"/>
      <point x="782" y="824" type="line"/>
      <point x="515" y="824" type="line"/>
      <point x="510" y="761" type="line"/>
      <point x="609" y="741" type="line"/>
      <point x="421" y="421" type="line"/>
      <point x="448" y="421" type="line"/>
      <point x="255" y="741" type="line"/>
      <point x="342" y="761" type="line"/>
      <point x="337" y="824" type="line"/>
      <point x="6" y="824" type="line"/>
      <point x="3" y="761" type="line"/>
      <point x="74" y="741" type="line"/>
      <point x="354" y="280" type="line"/>
      <point x="317" y="399" type="line"/>
      <point x="317" y="262" type="line" smooth="yes"/>
      <point x="317" y="158"/>
      <point x="313" y="93"/>
      <point x="310" y="81" type="curve"/>
      <point x="211" y="63" type="line"/>
      <point x="216" y="0" type="line"/>
      <point x="573" y="0" type="line"/>
      <point x="576" y="63" type="line"/>
      <point x="478" y="81" type="line"/>
      <point x="475" y="93"/>
      <point x="471" y="158"/>
      <point x="471" y="262" type="curve" smooth="yes"/>
      <point x="471" y="399" type="line"/>
      <point x="422" y="280" type="line"/>
    </contour>
  </outline>
</glyph>
<glyph name="Z" format="2">
  <advance width="761"/>
  <unicode hex="005A"/>
  <note>
Z
</note>
  <anchor x="378" y="824" name="above"/>
  <anchor x="378" y="0" name="below"/>
  <outline>
    <contour>
      <point x="695" y="-5" type="curve"/>
      <point x="733" y="233" type="line"/>
      <point x="660" y="242" type="line"/>
      <point x="602" y="84" type="line"/>
      <point x="581" y="81"/>
      <point x="565" y="80"/>
      <point x="540" y="80" type="curve" smooth="yes"/>
      <point x="243" y="80" type="line"/>
      <point x="243" y="26" type="line"/>
      <point x="690" y="764" type="line"/>
      <point x="690" y="826" type="line"/>
      <point x="654" y="825"/>
      <point x="617" y="824"/>
      <point x="582" y="824" type="curve" smooth="yes"/>
      <point x="189" y="824" type="line" smooth="yes"/>
      <point x="154" y="824"/>
      <point x="104" y="824"/>
      <point x="61" y="825" type="curve"/>
      <point x="64" y="599" type="line"/>
      <point x="137" y="599" type="line"/>
      <point x="161" y="742" type="line"/>
      <point x="187" y="746"/>
      <point x="215" y="749"/>
      <point x="263" y="749" type="curve" smooth="yes"/>
      <point x="540" y="749" type="line"/>
      <point x="539" y="802" type="line"/>
      <point x="87" y="58" type="line"/>
      <point x="87" y="-3" type="line"/>
      <point x="122" y="0"/>
      <point x="154" y="0"/>
      <point x="192" y="0" type="curve" smooth="yes"/>
      <point x="532" y="0" type="line" smooth="yes"/>
      <point x="578" y="0"/>
      <point x="652" y="-3"/>
    </contour>
  </outline>
</glyph>
<glyph name="bracketleft" format="2">
  <advance width="763"/>
  <unicode hex="005B"/>
  <note>
bracketleft
</note>
  <outline>
    <contour>
      <point x="679" y="-499" type="line"/>
      <point x="679" y="-377" type="line"/>
      <point x="455" y="-377" type="line"/>
      <point x="455" y="1519" type="line"/>
      <point x="679" y="1519" type="line"/>
      <point x="679" y="1641" type="line"/>
      <point x="222" y="1641" type="line"/>
      <point x="222" y="-499" type="line"/>
    </contour>
  </outline>
</glyph>
<glyph name="backslash" format="2">
  <advance width="549"/>
  <unicode hex="005C"/>
  <note>
backslash
</note>
  <outline>
    <contour>
      <point x="514" y="-252" type="line"/>
      <point x="92" y="1022" type="line"/>
      <point x="-21" y="1022" type="line"/>
      <point x="400" y="-252" type="line"/>
    </contour>
  </outline>
</glyph>
<glyph name="bracketright" format="2">
  <advance width="471"/>
  <unicode hex="005D"/>
  <note>
bracketright
</note>
  <outline>
    <contour>
      <point x="52" y="-308" type="line"/>
      <point x="333" y="-308" type="line"/>
      <point x="333" y="1013" type="line"/>
      <point x="52" y="1013" type="line"/>
      <point x="52" y="938" type="line"/>
      <point x="188" y="938" type="line"/>
      <point x="188" y="-233" type="line"/>
      <point x="52" y="-233" type="line"/>
    </contour>
  </outline>
</glyph>
<glyph name="asciicircum" format="2">
  <advance width="1226"/>
  <unicode hex="005E"/>
  <outline>
    <contour>
      <point x="701" y="1273" type="line"/>
      <point x="526" y="1273" type="line"/>
      <point x="102" y="287" type="line"/>
      <point x="280" y="287" type="line"/>
      <point x="671" y="1199" type="line"/>
      <point x="556" y="1199" type="line"/>
      <point x="946" y="287" type="line"/>
      <point x="1126" y="287" type="line"/>
    </contour>
  </outline>
</glyph>
<glyph name="underscore" format="2">
  <advance width="1007"/>
  <unicode hex="005F"/>
  <note>
underscore
</note>
  <outline>
    <contour>
      <point x="53" y="-149" type="line"/>
      <point x="952" y="-149" type="line"/>
      <point x="952" y="0" type="line"/>
      <point x="53" y="0" type="line"/>
    </contour>
  </outline>
</glyph>
<glyph name="a" format="2">
  <advance width="1105"/>
  <unicode hex="0061"/>
  <note>
a
</note>
  <anchor x="539" y="988" name="above"/>
  <anchor x="560" y="0" name="below"/>
  <anchor x="994" y="0" name="ogonek"/>
  <outline>
    <contour>
      <point x="434" y="-16" type="curve" smooth="yes"/>
      <point x="528" y="-16"/>
      <point x="624" y="42"/>
      <point x="721" y="157" type="curve"/>
      <point x="680" y="164" type="line"/>
      <point x="711" y="65" type="line" smooth="yes"/>
      <point x="730" y="8"/>
      <point x="766" y="-16"/>
      <point x="820" y="-16" type="curve" smooth="yes"/>
      <point x="854" y="-16"/>
      <point x="894" y="-5"/>
      <point x="943" y="11" type="curve" smooth="yes"/>
      <point x="1072" y="63" type="line"/>
      <point x="1072" y="147" type="line"/>
      <point x="926" y="177" type="line"/>
      <point x="913" y="204"/>
      <point x="910" y="256"/>
      <point x="910" y="329" type="curve"/>
      <point x="917" y="674" type="line"/>
      <point x="915" y="873"/>
      <point x="756" y="1006"/>
      <point x="509" y="1006" type="curve"/>
      <point x="356" y="985"/>
      <point x="115" y="852"/>
      <point x="115" y="745" type="curve" smooth="yes"/>
      <point x="115" y="659"/>
      <point x="214" y="619"/>
      <point x="343" y="648" type="curve"/>
      <point x="351" y="764" type="line" smooth="yes"/>
      <point x="356" y="844"/>
      <point x="374" y="865"/>
      <point x="439" y="865" type="curve" smooth="yes"/>
      <point x="564" y="865"/>
      <point x="672" y="774"/>
      <point x="672" y="671" type="curve" smooth="yes"/>
      <point x="672" y="572" type="line"/>
      <point x="321" y="462" type="line" smooth="yes"/>
      <point x="172" y="415"/>
      <point x="110" y="350"/>
      <point x="110" y="243" type="curve" smooth="yes"/>
      <point x="110" y="125"/>
      <point x="235" y="-16"/>
    </contour>
    <contour>
      <point x="523" y="151" type="curve" smooth="yes"/>
      <point x="437" y="151"/>
      <point x="368" y="220"/>
      <point x="368" y="295" type="curve" smooth="yes"/>
      <point x="368" y="355"/>
      <point x="397" y="390"/>
      <point x="470" y="408" type="curve" smooth="yes"/>
      <point x="674" y="455" type="line"/>
      <point x="674" y="224" type="line"/>
      <point x="628" y="175"/>
      <point x="578" y="151"/>
    </contour>
  </outline>
</glyph>
<glyph name="b" format="2">
  <advance width="761"/>
  <unicode hex="0062"/>
  <note>
b
</note>
  <anchor x="380" y="926" name="above"/>
  <anchor x="380" y="0" name="below"/>
  <outline>
    <contour>
      <point x="102" y="38" type="curve"/>
      <point x="176" y="7"/>
      <point x="258" y="-10"/>
      <point x="344" y="-10" type="curve" smooth="yes"/>
      <point x="556" y="-10"/>
      <point x="709" y="136"/>
      <point x="709" y="333" type="curve" smooth="yes"/>
      <point x="709" y="514"/>
      <point x="586" y="621"/>
      <point x="447" y="621" type="curve" smooth="yes"/>
      <point x="368" y="621"/>
      <point x="294" y="573"/>
      <point x="252" y="515" type="curve"/>
      <point x="248" y="517" type="line"/>
      <point x="252" y="741"/>
      <point x="254" y="836"/>
      <point x="260" y="954" type="curve"/>
      <point x="227" y="976" type="line"/>
      <point x="-5" y="913" type="line"/>
      <point x="-2" y="860" type="line"/>
      <point x="100" y="847" type="line"/>
      <point x="103" y="809"/>
      <point x="106" y="658"/>
      <point x="106" y="508" type="curve"/>
      <point x="106" y="303" type="line"/>
      <point x="106" y="212"/>
      <point x="106" y="134"/>
    </contour>
    <contour>
      <point x="377" y="76" type="curve" smooth="yes"/>
      <point x="327" y="76"/>
      <point x="283" y="92"/>
      <point x="251" y="116" type="curve"/>
      <point x="251" y="444" type="line"/>
      <point x="283" y="486"/>
      <point x="331" y="506"/>
      <point x="380" y="506" type="curve" smooth="yes"/>
      <point x="472" y="506"/>
      <point x="549" y="443"/>
      <point x="549" y="301" type="curve" smooth="yes"/>
      <point x="547" y="150"/>
      <point x="475" y="76"/>
    </contour>
  </outline>
</glyph>
<glyph name="c" format="2">
  <advance width="1004"/>
  <unicode hex="0063"/>
  <note>
c
</note>
  <anchor x="575" y="988" name="above"/>
  <anchor x="575" y="0" name="below"/>
  <outline>
    <contour>
      <point x="575" y="-16" type="curve" smooth="yes"/>
      <point x="747" y="-16"/>
      <point x="894" y="65"/>
      <point x="980" y="240" type="curve"/>
      <point x="915" y="298" type="line"/>
      <point x="837" y="204"/>
      <point x="756" y="168"/>
      <point x="654" y="168" type="curve" smooth="yes"/>
      <point x="479" y="168"/>
      <point x="347" y="295"/>
      <point x="347" y="531" type="curve" smooth="yes"/>
      <point x="347" y="797"/>
      <point x="510" y="920"/>
      <point x="669" y="888" type="curve"/>
      <point x="570" y="912" type="line"/>
      <point x="713" y="781" type="line" smooth="yes"/>
      <point x="764" y="729"/>
      <point x="798" y="713"/>
      <point x="854" y="713" type="curve" smooth="yes"/>
      <point x="913" y="713"/>
      <point x="957" y="750"/>
      <point x="957" y="813" type="curve" smooth="yes"/>
      <point x="957" y="917"/>
      <point x="823" y="1006"/>
      <point x="624" y="1006" type="curve" smooth="yes"/>
      <point x="313" y="1006"/>
      <point x="84" y="764"/>
      <point x="84" y="471" type="curve" smooth="yes"/>
      <point x="84" y="173"/>
      <point x="304" y="-16"/>
    </contour>
  </outline>
</glyph>
<glyph name="d" format="2">
  <advance width="771"/>
  <unicode hex="0064"/>
  <note>
d
</note>
  <anchor x="387" y="926" name="above"/>
  <anchor x="408" y="0" name="below"/>
  <anchor x="387" y="304" name="center"/>
  <anchor x="495" y="727" name="stroke"/>
  <anchor x="703" y="966" name="topright"/>
  <outline>
    <contour>
      <point x="535" y="-15" type="line"/>
      <point x="748" y="38" type="line"/>
      <point x="748" y="90" type="line"/>
      <point x="655" y="112" type="line"/>
      <point x="652" y="146"/>
      <point x="646" y="208"/>
      <point x="646" y="302" type="curve"/>
      <point x="647" y="627" type="line" smooth="yes"/>
      <point x="647" y="740"/>
      <point x="651" y="838"/>
      <point x="656" y="954" type="curve"/>
      <point x="625" y="976" type="line"/>
      <point x="387" y="913" type="line"/>
      <point x="390" y="859" type="line"/>
      <point x="497" y="841" type="line"/>
      <point x="499" y="805"/>
      <point x="503" y="660"/>
      <point x="503" y="591" type="curve"/>
      <point x="471" y="610"/>
      <point x="421" y="620"/>
      <point x="378" y="620" type="curve" smooth="yes"/>
      <point x="213" y="620"/>
      <point x="51" y="489"/>
      <point x="51" y="283" type="curve" smooth="yes"/>
      <point x="51" y="108"/>
      <point x="174" y="-11"/>
      <point x="328" y="-11" type="curve" smooth="yes"/>
      <point x="391" y="-11"/>
      <point x="450" y="16"/>
      <point x="502" y="95" type="curve"/>
      <point x="507" y="93" type="line"/>
      <point x="505" y="2" type="line"/>
    </contour>
    <contour>
      <point x="380" y="102" type="curve" smooth="yes"/>
      <point x="286" y="102"/>
      <point x="210" y="183"/>
      <point x="210" y="326" type="curve" smooth="yes"/>
      <point x="210" y="459"/>
      <point x="278" y="546"/>
      <point x="381" y="546" type="curve" smooth="yes"/>
      <point x="425" y="546"/>
      <point x="473" y="528"/>
      <point x="503" y="478" type="curve"/>
      <point x="503" y="171" type="line"/>
      <point x="465" y="120"/>
      <point x="422" y="102"/>
    </contour>
  </outline>
</glyph>
<glyph name="e" format="2">
  <advance width="650"/>
  <unicode hex="0065"/>
  <note>
e
</note>
  <anchor x="345" y="610" name="above"/>
  <anchor x="345" y="0" name="below"/>
  <anchor x="529" y="0" name="ogonek"/>
  <outline>
    <contour>
      <point x="354" y="-10" type="curve" smooth="yes"/>
      <point x="464" y="-10"/>
      <point x="554" y="40"/>
      <point x="607" y="146" type="curve"/>
      <point x="568" y="183" type="line"/>
      <point x="519" y="124"/>
      <point x="470" y="103"/>
      <point x="405" y="103" type="curve" smooth="yes"/>
      <point x="286" y="103"/>
      <point x="206" y="191"/>
      <point x="206" y="333" type="curve" smooth="yes"/>
      <point x="206" y="356" type="line" smooth="yes"/>
      <point x="206" y="487"/>
      <point x="271" y="552"/>
      <point x="345" y="552" type="curve" smooth="yes"/>
      <point x="421" y="552"/>
      <point x="468" y="495"/>
      <point x="468" y="396" type="curve" smooth="yes"/>
      <point x="468" y="357" type="line"/>
      <point x="488" y="384" type="line"/>
      <point x="181" y="384" type="line"/>
      <point x="181" y="316" type="line"/>
      <point x="603" y="316" type="line"/>
      <point x="603" y="346" type="line" smooth="yes"/>
      <point x="603" y="513"/>
      <point x="514" y="620"/>
      <point x="357" y="621" type="curve" smooth="yes"/>
      <point x="199" y="622"/>
      <point x="54" y="490"/>
      <point x="54" y="294" type="curve" smooth="yes"/>
      <point x="54" y="112"/>
      <point x="182" y="-10"/>
    </contour>
  </outline>
</glyph>
<glyph name="f" format="2">
  <advance width="443"/>
  <unicode hex="0066"/>
  <note>
f
</note>
  <outline>
    <contour>
      <point x="388" y="0" type="line"/>
      <point x="393" y="58" type="line"/>
      <point x="277" y="80" type="line"/>
      <point x="274" y="136"/>
      <point x="271" y="234"/>
      <point x="271" y="322" type="curve"/>
      <point x="269" y="528" type="line"/>
      <point x="267" y="607" type="line"/>
      <point x="267" y="724" type="line" smooth="yes"/>
      <point x="267" y="854"/>
      <point x="302" y="924"/>
      <point x="364" y="924" type="curve"/>
      <point x="316" y="933" type="line"/>
      <point x="388" y="865" type="line" smooth="yes"/>
      <point x="414" y="841"/>
      <point x="436" y="831"/>
      <point x="462" y="831" type="curve" smooth="yes"/>
      <point x="496" y="831"/>
      <point x="519" y="851"/>
      <point x="519" y="884" type="curve" smooth="yes"/>
      <point x="519" y="939"/>
      <point x="456" y="980"/>
      <point x="371" y="980" type="curve" smooth="yes"/>
      <point x="225" y="980"/>
      <point x="124" y="855"/>
      <point x="124" y="673" type="curve" smooth="yes"/>
      <point x="124" y="528" type="line"/>
      <point x="125" y="315" type="line"/>
      <point x="125" y="169"/>
      <point x="125" y="129"/>
      <point x="122" y="80" type="curve"/>
      <point x="35" y="56" type="line"/>
      <point x="39" y="0" type="line"/>
    </contour>
    <contour>
      <point x="23" y="528" type="line"/>
      <point x="420" y="528" type="line"/>
      <point x="420" y="607" type="line"/>
      <point x="216" y="607" type="line"/>
      <point x="124" y="609" type="line"/>
      <point x="23" y="583" type="line"/>
    </contour>
  </outline>
</glyph>
<glyph name="g" format="2">
  <advance width="1150"/>
  <unicode hex="0067"/>
  <note>
g
</note>
  <anchor x="559" y="988" name="above"/>
  <anchor x="567" y="-499" name="below"/>
  <outline>
    <contour>
      <point x="536" y="-517" type="curve" smooth="yes"/>
      <point x="847" y="-517"/>
      <point x="1082" y="-351"/>
      <point x="1082" y="-141" type="curve" smooth="yes"/>
      <point x="1082" y="13"/>
      <point x="973" y="107"/>
      <point x="753" y="126" type="curve" smooth="yes"/>
      <point x="432" y="160" type="line" smooth="yes"/>
      <point x="376" y="164"/>
      <point x="345" y="191"/>
      <point x="345" y="228" type="curve" smooth="yes"/>
      <point x="345" y="258"/>
      <point x="369" y="283"/>
      <point x="415" y="316" type="curve"/>
      <point x="382" y="358" type="line"/>
      <point x="228" y="303"/>
      <point x="136" y="217"/>
      <point x="136" y="130" type="curve" smooth="yes"/>
      <point x="136" y="37"/>
      <point x="225" y="-24"/>
      <point x="358" y="-24" type="curve"/>
      <point x="385" y="-36" type="line"/>
      <point x="651" y="-58" type="line" smooth="yes"/>
      <point x="802" y="-70"/>
      <point x="862" y="-112"/>
      <point x="862" y="-201" type="curve" smooth="yes"/>
      <point x="862" y="-321"/>
      <point x="734" y="-407"/>
      <point x="554" y="-407" type="curve" smooth="yes"/>
      <point x="385" y="-407"/>
      <point x="288" y="-342"/>
      <point x="288" y="-232" type="curve" smooth="yes"/>
      <point x="288" y="-151"/>
      <point x="340" y="-76"/>
      <point x="426" y="-21" type="curve"/>
      <point x="334" y="-8" type="line"/>
      <point x="151" y="-79"/>
      <point x="55" y="-167"/>
      <point x="55" y="-267" type="curve" smooth="yes"/>
      <point x="55" y="-419"/>
      <point x="238" y="-517"/>
    </contour>
    <contour>
      <point x="551" y="274" type="curve" smooth="yes"/>
      <point x="800" y="274"/>
      <point x="981" y="428"/>
      <point x="981" y="638" type="curve" smooth="yes"/>
      <point x="981" y="847"/>
      <point x="802" y="1006"/>
      <point x="556" y="1006" type="curve" smooth="yes"/>
      <point x="306" y="1006"/>
      <point x="115" y="845"/>
      <point x="115" y="625" type="curve" smooth="yes"/>
      <point x="115" y="418"/>
      <point x="292" y="274"/>
    </contour>
    <contour>
      <point x="565" y="385" type="curve" smooth="yes"/>
      <point x="450" y="385"/>
      <point x="371" y="489"/>
      <point x="371" y="645" type="curve" smooth="yes"/>
      <point x="371" y="794"/>
      <point x="445" y="896"/>
      <point x="552" y="896" type="curve" smooth="yes"/>
      <point x="667" y="896"/>
      <point x="743" y="789"/>
      <point x="743" y="627" type="curve" smooth="yes"/>
      <point x="743" y="478"/>
      <point x="674" y="385"/>
    </contour>
    <contour>
      <point x="1114" y="820" type="line"/>
      <point x="1114" y="983" type="line"/>
      <point x="743" y="943" type="line"/>
      <point x="823" y="844" type="line"/>
    </contour>
  </outline>
</glyph>
<glyph name="h" format="2">
  <advance width="1292"/>
  <unicode hex="0068"/>
  <note>
h
</note>
  <anchor x="319" y="1500" name="above"/>
  <anchor x="653" y="0" name="below"/>
  <anchor x="452" y="1177" name="stroke"/>
  <outline>
    <contour>
      <point x="55" y="0" type="line"/>
      <point x="581" y="0" type="line"/>
      <point x="586" y="91" type="line"/>
      <point x="447" y="130" type="line"/>
      <point x="442" y="152"/>
      <point x="436" y="246"/>
      <point x="436" y="373" type="curve" smooth="yes"/>
      <point x="436" y="709" type="line"/>
      <point x="492" y="787"/>
      <point x="572" y="829"/>
      <point x="658" y="829" type="curve" smooth="yes"/>
      <point x="768" y="829"/>
      <point x="868" y="753"/>
      <point x="868" y="570" type="curve" smooth="yes"/>
      <point x="868" y="353" type="line" smooth="yes"/>
      <point x="868" y="249"/>
      <point x="862" y="165"/>
      <point x="857" y="130" type="curve"/>
      <point x="727" y="91" type="line"/>
      <point x="734" y="0" type="line"/>
      <point x="1247" y="0" type="line"/>
      <point x="1255" y="91" type="line"/>
      <point x="1114" y="130" type="line"/>
      <point x="1108" y="157"/>
      <point x="1101" y="256"/>
      <point x="1101" y="361" type="curve" smooth="yes"/>
      <point x="1101" y="601" type="line" smooth="yes"/>
      <point x="1101" y="868"/>
      <point x="946" y="1006"/>
      <point x="768" y="1006" type="curve" smooth="yes"/>
      <point x="643" y="1006"/>
      <point x="538" y="951"/>
      <point x="439" y="834" type="curve"/>
      <point x="431" y="836" type="line"/>
      <point x="436" y="1205"/>
      <point x="439" y="1359"/>
      <point x="449" y="1545" type="curve"/>
      <point x="395" y="1581" type="line"/>
      <point x="18" y="1479" type="line"/>
      <point x="23" y="1393" type="line"/>
      <point x="191" y="1370" type="line"/>
      <point x="198" y="1291"/>
      <point x="202" y="1028"/>
      <point x="202" y="821" type="curve" smooth="yes"/>
      <point x="202" y="536" type="line" smooth="yes"/>
      <point x="202" y="334"/>
      <point x="194" y="175"/>
      <point x="189" y="130" type="curve"/>
      <point x="49" y="91" type="line"/>
    </contour>
  </outline>
</glyph>
<glyph name="k" format="2">
  <advance width="735"/>
  <unicode hex="006B"/>
  <note>
k
</note>
  <anchor x="199" y="926" name="above"/>
  <anchor x="386" y="0" name="below"/>
  <outline>
    <contour>
      <point x="41" y="0" type="line"/>
      <point x="358" y="0" type="line"/>
      <point x="361" y="56" type="line"/>
      <point x="274" y="80" type="line"/>
      <point x="273" y="93"/>
      <point x="269" y="145"/>
      <point x="269" y="214" type="curve"/>
      <point x="270" y="545" type="line"/>
      <point x="270" y="741"/>
      <point x="272" y="837"/>
      <point x="279" y="954" type="curve"/>
      <point x="244" y="976" type="line"/>
      <point x="13" y="913" type="line"/>
      <point x="15" y="860" type="line"/>
      <point x="119" y="846" type="line"/>
      <point x="121" y="798"/>
      <point x="125" y="644"/>
      <point x="125" y="508" type="curve" smooth="yes"/>
      <point x="125" y="316" type="line" smooth="yes"/>
      <point x="125" y="210"/>
      <point x="121" y="109"/>
      <point x="117" y="80" type="curve"/>
      <point x="37" y="56" type="line"/>
    </contour>
    <contour>
      <point x="735" y="0" type="line"/>
      <point x="740" y="58" type="line"/>
      <point x="681" y="70" type="line"/>
      <point x="664" y="85"/>
      <point x="631" y="119"/>
      <point x="602" y="152" type="curve" smooth="yes"/>
      <point x="395" y="381" type="line"/>
      <point x="377" y="324" type="line"/>
      <point x="619" y="534" type="line"/>
      <point x="711" y="551" type="line"/>
      <point x="707" y="610" type="line"/>
      <point x="410" y="610" type="line"/>
      <point x="408" y="551" type="line"/>
      <point x="500" y="534" type="line"/>
      <point x="298" y="340" type="line"/>
      <point x="251" y="327" type="line"/>
      <point x="249" y="284" type="line"/>
      <point x="287" y="284" type="line"/>
      <point x="464" y="87" type="line" smooth="yes"/>
      <point x="486" y="63"/>
      <point x="505" y="41"/>
      <point x="536" y="0" type="curve"/>
    </contour>
  </outline>
</glyph>
<glyph name="l" format="2">
  <advance width="397"/>
  <unicode hex="006C"/>
  <note>
l
</note>
  <anchor x="199" y="926" name="above"/>
  <anchor x="199" y="0" name="below"/>
  <anchor x="199" y="483" name="center"/>
  <anchor x="427" y="483" name="dotacc"/>
  <anchor x="329" y="966" name="topright"/>
  <outline>
    <contour>
      <point x="30" y="0" type="line"/>
      <point x="367" y="0" type="line"/>
      <point x="369" y="58" type="line"/>
      <point x="278" y="80" type="line"/>
      <point x="274" y="100"/>
      <point x="272" y="200"/>
      <point x="272" y="322" type="curve"/>
      <point x="273" y="538" type="line" smooth="yes"/>
      <point x="273" y="740"/>
      <point x="275" y="835"/>
      <point x="280" y="954" type="curve"/>
      <point x="247" y="976" type="line"/>
      <point x="11" y="913" type="line"/>
      <point x="14" y="860" type="line"/>
      <point x="118" y="846" type="line"/>
      <point x="122" y="799"/>
      <point x="125" y="643"/>
      <point x="125" y="508" type="curve" smooth="yes"/>
      <point x="125" y="331" type="line" smooth="yes"/>
      <point x="125" y="206"/>
      <point x="120" y="107"/>
      <point x="117" y="80" type="curve"/>
      <point x="25" y="58" type="line"/>
    </contour>
  </outline>
</glyph>
<glyph name="m" format="2">
  <advance width="1921"/>
  <unicode hex="006D"/>
  <note>
m
</note>
  <anchor x="967" y="988" name="above"/>
  <anchor x="967" y="0" name="below"/>
  <outline>
    <contour>
      <point x="57" y="0" type="line"/>
      <point x="573" y="0" type="line"/>
      <point x="580" y="91" type="line"/>
      <point x="450" y="130" type="line"/>
      <point x="444" y="155"/>
      <point x="439" y="253"/>
      <point x="439" y="373" type="curve" smooth="yes"/>
      <point x="439" y="709" type="line"/>
      <point x="492" y="789"/>
      <point x="570" y="829"/>
      <point x="651" y="829" type="curve" smooth="yes"/>
      <point x="758" y="829"/>
      <point x="849" y="761"/>
      <point x="849" y="585" type="curve"/>
      <point x="850" y="353" type="line"/>
      <point x="850" y="249"/>
      <point x="847" y="165"/>
      <point x="842" y="130" type="curve"/>
      <point x="721" y="91" type="line"/>
      <point x="727" y="0" type="line"/>
      <point x="1221" y="0" type="line"/>
      <point x="1228" y="91" type="line"/>
      <point x="1098" y="130" type="line"/>
      <point x="1090" y="157"/>
      <point x="1085" y="256"/>
      <point x="1085" y="361" type="curve"/>
      <point x="1082" y="601" type="line"/>
      <point x="1082" y="876"/>
      <point x="917" y="1006"/>
      <point x="748" y="1006" type="curve" smooth="yes"/>
      <point x="638" y="1006"/>
      <point x="534" y="954"/>
      <point x="439" y="832" type="curve"/>
      <point x="431" y="836" type="line"/>
      <point x="445" y="962" type="line"/>
      <point x="394" y="1001" type="line"/>
      <point x="40" y="907" type="line"/>
      <point x="40" y="818" type="line"/>
      <point x="185" y="786" type="line"/>
      <point x="196" y="717"/>
      <point x="204" y="630"/>
      <point x="206" y="536" type="curve"/>
      <point x="202" y="363" type="line" smooth="yes"/>
      <point x="201" y="225"/>
      <point x="194" y="151"/>
      <point x="191" y="130" type="curve"/>
      <point x="50" y="91" type="line"/>
    </contour>
    <contour>
      <point x="1367" y="0" type="line"/>
      <point x="1872" y="0" type="line"/>
      <point x="1880" y="91" type="line"/>
      <point x="1739" y="130" type="line"/>
      <point x="1730" y="157"/>
      <point x="1727" y="256"/>
      <point x="1727" y="361" type="curve"/>
      <point x="1725" y="609" type="line"/>
      <point x="1725" y="855"/>
      <point x="1576" y="1006"/>
      <point x="1372" y="1006" type="curve" smooth="yes"/>
      <point x="1233" y="1006"/>
      <point x="1111" y="935"/>
      <point x="1006" y="789" type="curve"/>
      <point x="1059" y="703" type="line"/>
      <point x="1116" y="787"/>
      <point x="1195" y="829"/>
      <point x="1286" y="829" type="curve" smooth="yes"/>
      <point x="1390" y="829"/>
      <point x="1492" y="760"/>
      <point x="1492" y="572" type="curve"/>
      <point x="1493" y="353" type="line"/>
      <point x="1493" y="249"/>
      <point x="1488" y="165"/>
      <point x="1482" y="130" type="curve"/>
      <point x="1359" y="91" type="line"/>
    </contour>
  </outline>
</glyph>
<glyph name="n" format="2">
  <advance width="798"/>
  <unicode hex="006E"/>
  <note>
n
</note>
  <anchor x="403" y="610" name="above"/>
  <anchor x="403" y="0" name="below"/>
  <outline>
    <contour>
      <point x="34" y="0" type="line"/>
      <point x="359" y="0" type="line"/>
      <point x="363" y="56" type="line"/>
      <point x="276" y="80" type="line"/>
      <point x="273" y="96"/>
      <point x="269" y="155"/>
      <point x="269" y="230" type="curve" smooth="yes"/>
      <point x="269" y="438" type="line"/>
      <point x="304" y="486"/>
      <point x="352" y="512"/>
      <point x="406" y="512" type="curve" smooth="yes"/>
      <point x="472" y="512"/>
      <point x="536" y="467"/>
      <point x="536" y="352" type="curve" smooth="yes"/>
      <point x="536" y="218" type="line" smooth="yes"/>
      <point x="536" y="154"/>
      <point x="532" y="102"/>
      <point x="529" y="80" type="curve"/>
      <point x="449" y="56" type="line"/>
      <point x="452" y="0" type="line"/>
      <point x="770" y="0" type="line"/>
      <point x="775" y="56" type="line"/>
      <point x="688" y="80" type="line"/>
      <point x="682" y="96"/>
      <point x="680" y="158"/>
      <point x="680" y="223" type="curve" smooth="yes"/>
      <point x="680" y="373" type="line" smooth="yes"/>
      <point x="680" y="536"/>
      <point x="584" y="621"/>
      <point x="474" y="621" type="curve" smooth="yes"/>
      <point x="397" y="621"/>
      <point x="332" y="587"/>
      <point x="269" y="515" type="curve"/>
      <point x="266" y="516" type="line"/>
      <point x="273" y="594" type="line"/>
      <point x="242" y="618" type="line"/>
      <point x="23" y="560" type="line"/>
      <point x="23" y="505" type="line"/>
      <point x="113" y="485" type="line"/>
      <point x="120" y="443"/>
      <point x="125" y="391"/>
      <point x="125" y="332" type="curve"/>
      <point x="124" y="224" type="line" smooth="yes"/>
      <point x="122" y="142"/>
      <point x="119" y="93"/>
      <point x="117" y="80" type="curve"/>
      <point x="30" y="56" type="line"/>
    </contour>
  </outline>
</glyph>
<glyph name="o" format="2">
  <advance width="1182"/>
  <unicode hex="006F"/>
  <note>
o
</note>
  <anchor x="591" y="988" name="above"/>
  <anchor x="591" y="0" name="below"/>
  <anchor x="591" y="492" name="center"/>
  <anchor x="753" y="0" name="ogonek"/>
  <anchor x="1147" y="988" name="topright"/>
  <outline>
    <contour>
      <point x="598" y="-16" type="curve" smooth="yes"/>
      <point x="878" y="-16"/>
      <point x="1098" y="209"/>
      <point x="1098" y="502" type="curve" smooth="yes"/>
      <point x="1098" y="800"/>
      <point x="901" y="1006"/>
      <point x="607" y="1006" type="curve" smooth="yes"/>
      <point x="329" y="1006"/>
      <point x="84" y="808"/>
      <point x="84" y="486" type="curve" smooth="yes"/>
      <point x="84" y="188"/>
      <point x="292" y="-16"/>
    </contour>
    <contour>
      <point x="620" y="107" type="curve" smooth="yes"/>
      <point x="463" y="107"/>
      <point x="348" y="287"/>
      <point x="348" y="538" type="curve" smooth="yes"/>
      <point x="348" y="750"/>
      <point x="437" y="884"/>
      <point x="577" y="884" type="curve" smooth="yes"/>
      <point x="732" y="884"/>
      <point x="837" y="708"/>
      <point x="837" y="445" type="curve" smooth="yes"/>
      <point x="837" y="238"/>
      <point x="755" y="107"/>
    </contour>
  </outline>
</glyph>
<glyph name="p" format="2">
  <advance width="772"/>
  <unicode hex="0070"/>
  <note>
p
</note>
  <anchor x="388" y="610" name="above"/>
  <outline>
    <contour>
      <point x="31" y="-308" type="line"/>
      <point x="385" y="-308" type="line"/>
      <point x="389" y="-248" type="line"/>
      <point x="274" y="-227" type="line"/>
      <point x="271" y="-209"/>
      <point x="268" y="-153"/>
      <point x="268" y="-86" type="curve" smooth="yes"/>
      <point x="268" y="10" type="line"/>
      <point x="303" y="-1"/>
      <point x="347" y="-9"/>
      <point x="384" y="-9" type="curve" smooth="yes"/>
      <point x="581" y="-9"/>
      <point x="717" y="139"/>
      <point x="717" y="325" type="curve" smooth="yes"/>
      <point x="717" y="505"/>
      <point x="600" y="621"/>
      <point x="456" y="621" type="curve" smooth="yes"/>
      <point x="382" y="621"/>
      <point x="315" y="580"/>
      <point x="268" y="511" type="curve"/>
      <point x="263" y="513" type="line"/>
      <point x="273" y="594" type="line"/>
      <point x="240" y="618" type="line"/>
      <point x="21" y="560" type="line"/>
      <point x="21" y="505" type="line"/>
      <point x="111" y="485" type="line"/>
      <point x="119" y="443"/>
      <point x="124" y="392"/>
      <point x="124" y="336" type="curve" smooth="yes"/>
      <point x="121" y="24" type="line" smooth="yes"/>
      <point x="120" y="-109"/>
      <point x="115" y="-208"/>
      <point x="113" y="-227" type="curve"/>
      <point x="27" y="-251" type="line"/>
    </contour>
    <contour>
      <point x="387" y="73" type="curve" smooth="yes"/>
      <point x="344" y="73"/>
      <point x="299" y="87"/>
      <point x="268" y="110" type="curve"/>
      <point x="268" y="439" type="line"/>
      <point x="301" y="482"/>
      <point x="347" y="506"/>
      <point x="395" y="506" type="curve" smooth="yes"/>
      <point x="486" y="506"/>
      <point x="559" y="428"/>
      <point x="557" y="290" type="curve" smooth="yes"/>
      <point x="555" y="145"/>
      <point x="487" y="73"/>
    </contour>
  </outline>
</glyph>
<glyph name="q" format="2">
  <advance width="1216"/>
  <unicode hex="0071"/>
  <note>
q
</note>
  <anchor x="628" y="988" name="above"/>
  <outline>
    <contour>
      <point x="654" y="-499" type="line"/>
      <point x="1195" y="-499" type="line"/>
      <point x="1202" y="-407" type="line"/>
      <point x="1061" y="-368" type="line"/>
      <point x="1056" y="-339"/>
      <point x="1053" y="-235"/>
      <point x="1050" y="-47" type="curve" smooth="yes"/>
      <point x="1045" y="517" type="line" smooth="yes"/>
      <point x="1041" y="708"/>
      <point x="1046" y="884"/>
      <point x="1050" y="1022" type="curve"/>
      <point x="972" y="1022" type="line"/>
      <point x="884" y="946" type="line"/>
      <point x="811" y="983"/>
      <point x="724" y="1004"/>
      <point x="627" y="1004" type="curve" smooth="yes"/>
      <point x="355" y="1004"/>
      <point x="87" y="805"/>
      <point x="87" y="458" type="curve" smooth="yes"/>
      <point x="87" y="175"/>
      <point x="277" y="-18"/>
      <point x="531" y="-18" type="curve" smooth="yes"/>
      <point x="632" y="-18"/>
      <point x="730" y="28"/>
      <point x="810" y="151" type="curve"/>
      <point x="816" y="147" type="line"/>
      <point x="816" y="-131" type="line" smooth="yes"/>
      <point x="816" y="-266"/>
      <point x="813" y="-322"/>
      <point x="810" y="-368" type="curve"/>
      <point x="646" y="-407" type="line"/>
    </contour>
    <contour>
      <point x="612" y="165" type="curve" smooth="yes"/>
      <point x="462" y="165"/>
      <point x="343" y="296"/>
      <point x="343" y="528" type="curve" smooth="yes"/>
      <point x="343" y="763"/>
      <point x="468" y="884"/>
      <point x="617" y="884" type="curve" smooth="yes"/>
      <point x="685" y="884"/>
      <point x="763" y="858"/>
      <point x="813" y="792" type="curve"/>
      <point x="810" y="277" type="line"/>
      <point x="748" y="194"/>
      <point x="682" y="165"/>
    </contour>
  </outline>
</glyph>
<glyph name="r" format="2">
  <advance width="879"/>
  <unicode hex="0072"/>
  <note>
r
</note>
  <anchor x="415" y="988" name="above"/>
  <anchor x="324" y="0" name="below"/>
  <outline>
    <contour>
      <point x="57" y="0" type="line"/>
      <point x="646" y="0" type="line"/>
      <point x="651" y="96" type="line"/>
      <point x="453" y="130" type="line"/>
      <point x="449" y="168"/>
      <point x="442" y="300"/>
      <point x="441" y="441" type="curve" smooth="yes"/>
      <point x="437" y="635" type="line"/>
      <point x="476" y="716"/>
      <point x="523" y="776"/>
      <point x="577" y="810" type="curve"/>
      <point x="523" y="821" type="line"/>
      <point x="580" y="763"/>
      <point x="630" y="742"/>
      <point x="695" y="742" type="curve" smooth="yes"/>
      <point x="777" y="742"/>
      <point x="842" y="790"/>
      <point x="842" y="876" type="curve" smooth="yes"/>
      <point x="842" y="957"/>
      <point x="782" y="998"/>
      <point x="705" y="998" type="curve" smooth="yes"/>
      <point x="615" y="998"/>
      <point x="522" y="949"/>
      <point x="434" y="779" type="curve"/>
      <point x="428" y="781" type="line"/>
      <point x="436" y="965" type="line"/>
      <point x="390" y="1001" type="line"/>
      <point x="40" y="907" type="line"/>
      <point x="40" y="818" type="line"/>
      <point x="185" y="786" type="line"/>
      <point x="196" y="717"/>
      <point x="206" y="632"/>
      <point x="206" y="536" type="curve"/>
      <point x="202" y="363" type="line" smooth="yes"/>
      <point x="201" y="232"/>
      <point x="194" y="149"/>
      <point x="191" y="130" type="curve"/>
      <point x="50" y="91" type="line"/>
    </contour>
  </outline>
</glyph>
<glyph name="s" format="2">
  <advance width="574"/>
  <unicode hex="0073"/>
  <note>
s
</note>
  <anchor x="291" y="610" name="above"/>
  <anchor x="286" y="0" name="below"/>
  <outline>
    <contour>
      <point x="273" y="-10" type="curve" smooth="yes"/>
      <point x="424" y="-10"/>
      <point x="531" y="62"/>
      <point x="531" y="172" type="curve" smooth="yes"/>
      <point x="531" y="254"/>
      <point x="485" y="304"/>
      <point x="361" y="357" type="curve" smooth="yes"/>
      <point x="252" y="404"/>
      <point x="217" y="429"/>
      <point x="217" y="479" type="curve" smooth="yes"/>
      <point x="217" y="523"/>
      <point x="256" y="554"/>
      <point x="317" y="554" type="curve" smooth="yes"/>
      <point x="343" y="554"/>
      <point x="372" y="547"/>
      <point x="391" y="536" type="curve"/>
      <point x="423" y="438" type="line"/>
      <point x="502" y="438" type="line"/>
      <point x="487" y="592" type="line"/>
      <point x="448" y="609"/>
      <point x="385" y="621"/>
      <point x="328" y="621" type="curve" smooth="yes"/>
      <point x="175" y="621"/>
      <point x="69" y="544"/>
      <point x="69" y="437" type="curve" smooth="yes"/>
      <point x="69" y="350"/>
      <point x="117" y="300"/>
      <point x="253" y="247" type="curve" smooth="yes"/>
      <point x="355" y="206"/>
      <point x="380" y="179"/>
      <point x="380" y="132" type="curve" smooth="yes"/>
      <point x="380" y="87"/>
      <point x="343" y="58"/>
      <point x="283" y="58" type="curve" smooth="yes"/>
      <point x="242" y="58"/>
      <point x="206" y="67"/>
      <point x="172" y="90" type="curve"/>
      <point x="142" y="191" type="line"/>
      <point x="63" y="191" type="line"/>
      <point x="70" y="34" type="line"/>
      <point x="120" y="6"/>
      <point x="200" y="-10"/>
    </contour>
  </outline>
</glyph>
<glyph name="t" format="2">
  <advance width="497"/>
  <unicode hex="0074"/>
  <note>
t
</note>
  <anchor x="240" y="728" name="above"/>
  <anchor x="276" y="0" name="below"/>
  <anchor x="184" y="378" name="stroke"/>
  <anchor x="325" y="966" name="topright"/>
  <outline>
    <contour>
      <point x="504" y="102" type="curve"/>
      <point x="474" y="140" type="line"/>
      <point x="446" y="113"/>
      <point x="408" y="97"/>
      <point x="371" y="97" type="curve" smooth="yes"/>
      <point x="298" y="97"/>
      <point x="257" y="136"/>
      <point x="257" y="223" type="curve"/>
      <point x="259" y="564" type="line"/>
      <point x="262" y="743" type="line"/>
      <point x="226" y="743" type="line"/>
      <point x="15" y="565" type="line"/>
      <point x="15" y="529" type="line"/>
      <point x="113" y="529" type="line"/>
      <point x="109" y="205" type="line"/>
      <point x="109" y="59"/>
      <point x="196" y="-11"/>
      <point x="318" y="-11" type="curve" smooth="yes"/>
      <point x="398" y="-11"/>
      <point x="471" y="30"/>
    </contour>
    <contour>
      <point x="197" y="529" type="line"/>
      <point x="464" y="529" type="line"/>
      <point x="464" y="609" type="line"/>
      <point x="197" y="609" type="line"/>
    </contour>
  </outline>
</glyph>
<glyph name="u" format="2">
  <advance width="788"/>
  <unicode hex="0075"/>
  <note>
u
</note>
  <anchor x="393" y="610" name="above"/>
  <anchor x="393" y="0" name="below"/>
  <anchor x="604" y="0" name="ogonek"/>
  <anchor x="636" y="610" name="topright"/>
  <outline>
    <contour>
      <point x="673" y="112" type="line"/>
      <point x="668" y="154"/>
      <point x="664" y="211"/>
      <point x="664" y="286" type="curve" smooth="yes"/>
      <point x="664" y="392" type="line" smooth="yes"/>
      <point x="664" y="478"/>
      <point x="664" y="533"/>
      <point x="667" y="596" type="curve"/>
      <point x="639" y="618" type="line"/>
      <point x="412" y="560" type="line"/>
      <point x="412" y="505" type="line"/>
      <point x="513" y="485" type="line"/>
      <point x="518" y="441"/>
      <point x="520" y="388"/>
      <point x="520" y="325" type="curve" smooth="yes"/>
      <point x="520" y="176" type="line"/>
      <point x="486" y="121"/>
      <point x="436" y="99"/>
      <point x="393" y="99" type="curve" smooth="yes"/>
      <point x="313" y="99"/>
      <point x="261" y="143"/>
      <point x="261" y="249" type="curve"/>
      <point x="262" y="385" type="line"/>
      <point x="262" y="463"/>
      <point x="265" y="539"/>
      <point x="269" y="594" type="curve"/>
      <point x="236" y="618" type="line"/>
      <point x="13" y="560" type="line"/>
      <point x="13" y="505" type="line"/>
      <point x="109" y="485" type="line"/>
      <point x="113" y="440"/>
      <point x="115" y="395"/>
      <point x="115" y="351" type="curve" smooth="yes"/>
      <point x="115" y="230" type="line" smooth="yes"/>
      <point x="115" y="68"/>
      <point x="209" y="-11"/>
      <point x="340" y="-11" type="curve" smooth="yes"/>
      <point x="406" y="-11"/>
      <point x="466" y="14"/>
      <point x="520" y="97" type="curve"/>
      <point x="525" y="95" type="line"/>
      <point x="523" y="2" type="line"/>
      <point x="552" y="-15" type="line"/>
      <point x="763" y="38" type="line"/>
      <point x="763" y="90" type="line"/>
    </contour>
  </outline>
</glyph>
<glyph name="v" format="2">
  <advance width="1103"/>
  <unicode hex="0076"/>
  <note>
v
</note>
  <anchor x="552" y="988" name="above"/>
  <anchor x="552" y="0" name="below"/>
  <outline>
    <contour>
      <point x="504" y="-8" type="line"/>
      <point x="590" y="-8" type="line"/>
      <point x="1012" y="857" type="line"/>
      <point x="1119" y="896" type="line"/>
      <point x="1114" y="988" type="line"/>
      <point x="717" y="988" type="line"/>
      <point x="713" y="896" type="line"/>
      <point x="854" y="857" type="line"/>
      <point x="591" y="236" type="line"/>
      <point x="654" y="235" type="line"/>
      <point x="371" y="857" type="line"/>
      <point x="512" y="896" type="line"/>
      <point x="505" y="988" type="line"/>
      <point x="-5" y="988" type="line"/>
      <point x="-11" y="896" type="line"/>
      <point x="94" y="857" type="line"/>
    </contour>
  </outline>
</glyph>
<glyph name="w" format="2">
  <advance width="1101"/>
  <unicode hex="0077"/>
  <note>
w
</note>
  <anchor x="585" y="610" name="above"/>
  <anchor x="546" y="0" name="below"/>
  <outline>
    <contour>
      <point x="732" y="-5" type="line"/>
      <point x="786" y="-5" type="line"/>
      <point x="1040" y="529" type="line"/>
      <point x="1106" y="553" type="line"/>
      <point x="1103" y="610" type="line"/>
      <point x="873" y="610" type="line"/>
      <point x="870" y="553" type="line"/>
      <point x="943" y="529" type="line"/>
      <point x="785" y="146" type="line"/>
      <point x="822" y="145" type="line"/>
      <point x="668" y="529" type="line"/>
      <point x="741" y="553" type="line"/>
      <point x="739" y="610" type="line"/>
      <point x="437" y="610" type="line"/>
      <point x="435" y="553" type="line"/>
      <point x="504" y="529" type="line"/>
    </contour>
    <contour>
      <point x="305" y="-5" type="line"/>
      <point x="358" y="-5" type="line"/>
      <point x="577" y="446" type="line"/>
      <point x="531" y="536" type="line"/>
      <point x="359" y="146" type="line"/>
      <point x="400" y="145" type="line"/>
      <point x="238" y="529" type="line"/>
      <point x="307" y="553" type="line"/>
      <point x="304" y="610" type="line"/>
      <point x="4" y="610" type="line"/>
      <point x="1" y="553" type="line"/>
      <point x="66" y="529" type="line"/>
    </contour>
  </outline>
</glyph>
<glyph name="x" format="2">
  <advance width="701"/>
  <unicode hex="0078"/>
  <note>
x
</note>
  <anchor x="357" y="610" name="above"/>
  <anchor x="357" y="0" name="below"/>
  <outline>
    <contour>
      <point x="683" y="0" type="line"/>
      <point x="687" y="56" type="line"/>
      <point x="621" y="80" type="line"/>
      <point x="424" y="334" type="line"/>
      <point x="382" y="388" type="line"/>
      <point x="275" y="529" type="line"/>
      <point x="334" y="553" type="line"/>
      <point x="329" y="610" type="line"/>
      <point x="35" y="610" type="line"/>
      <point x="32" y="553" type="line"/>
      <point x="98" y="529" type="line"/>
      <point x="274" y="302" type="line"/>
      <point x="316" y="251" type="line"/>
      <point x="446" y="80" type="line"/>
      <point x="381" y="56" type="line"/>
      <point x="384" y="0" type="line"/>
    </contour>
    <contour>
      <point x="489" y="529" type="line"/>
      <point x="382" y="388" type="line"/>
      <point x="274" y="302" type="line"/>
      <point x="92" y="80" type="line"/>
      <point x="26" y="56" type="line"/>
      <point x="30" y="0" type="line"/>
      <point x="255" y="0" type="line"/>
      <point x="258" y="56" type="line"/>
      <point x="192" y="80" type="line"/>
      <point x="316" y="251" type="line"/>
      <point x="424" y="334" type="line"/>
      <point x="588" y="529" type="line"/>
      <point x="654" y="553" type="line"/>
      <point x="649" y="610" type="line"/>
      <point x="434" y="610" type="line"/>
      <point x="429" y="553" type="line"/>
    </contour>
  </outline>
</glyph>
<glyph name="y" format="2">
  <advance width="681"/>
  <unicode hex="0079"/>
  <note>
y
</note>
  <anchor x="377" y="610" name="above"/>
  <anchor x="449" y="0" name="below"/>
  <outline>
    <contour>
      <point x="310" y="-5" type="line"/>
      <point x="402" y="145" type="line"/>
      <point x="229" y="529" type="line"/>
      <point x="316" y="553" type="line"/>
      <point x="312" y="610" type="line"/>
      <point x="-2" y="610" type="line"/>
      <point x="-7" y="553" type="line"/>
      <point x="58" y="529" type="line"/>
    </contour>
    <contour>
      <point x="687" y="610" type="line"/>
      <point x="443" y="610" type="line"/>
      <point x="440" y="553" type="line"/>
      <point x="527" y="529" type="line"/>
      <point x="361" y="146" type="line"/>
      <point x="344" y="116" type="line"/>
      <point x="181" y="-190" type="line"/>
      <point x="261" y="-124" type="line"/>
      <point x="112" y="-166" type="line" smooth="yes"/>
      <point x="54" y="-182"/>
      <point x="28" y="-213"/>
      <point x="28" y="-250" type="curve" smooth="yes"/>
      <point x="28" y="-290"/>
      <point x="63" y="-319"/>
      <point x="118" y="-319" type="curve" smooth="yes"/>
      <point x="178" y="-319"/>
      <point x="225" y="-289"/>
      <point x="272" y="-194" type="curve" smooth="yes"/>
      <point x="383" y="37" type="line"/>
      <point x="625" y="529" type="line"/>
      <point x="691" y="553" type="line"/>
    </contour>
  </outline>
</glyph>
<glyph name="z" format="2">
  <advance width="1028"/>
  <unicode hex="007A"/>
  <note>
z
</note>
  <anchor x="522" y="988" name="above"/>
  <anchor x="522" y="0" name="below"/>
  <outline>
    <contour>
      <point x="363" y="39" type="line"/>
      <point x="925" y="901" type="line"/>
      <point x="925" y="993" type="line"/>
      <point x="858" y="990"/>
      <point x="792" y="988"/>
      <point x="727" y="988" type="curve" smooth="yes"/>
      <point x="311" y="988" type="line" smooth="yes"/>
      <point x="249" y="988"/>
      <point x="167" y="988"/>
      <point x="89" y="990" type="curve"/>
      <point x="94" y="677" type="line"/>
      <point x="219" y="677" type="line"/>
      <point x="249" y="860" type="line"/>
      <point x="295" y="867"/>
      <point x="345" y="870"/>
      <point x="410" y="870" type="curve" smooth="yes"/>
      <point x="683" y="870" type="line"/>
      <point x="685" y="947" type="line"/>
      <point x="112" y="83" type="line"/>
      <point x="112" y="-5" type="line"/>
      <point x="177" y="0"/>
      <point x="245" y="0"/>
      <point x="308" y="0" type="curve" smooth="yes"/>
      <point x="719" y="0" type="line" smooth="yes"/>
      <point x="781" y="0"/>
      <point x="865" y="0"/>
      <point x="941" y="-2" type="curve"/>
      <point x="983" y="324" type="line"/>
      <point x="855" y="324" type="line"/>
      <point x="797" y="128" type="line"/>
      <point x="748" y="123"/>
      <point x="696" y="118"/>
      <point x="646" y="118" type="curve" smooth="yes"/>
      <point x="353" y="118" type="line"/>
    </contour>
  </outline>
</glyph>
<glyph name="braceleft" format="2">
  <advance width="852"/>
  <unicode hex="007B"/>
  <note>
braceleft
</note>
  <outline>
    <contour>
      <point x="513" y="-181" type="curve" smooth="yes"/>
      <point x="513" y="-19"/>
      <point x="606" y="104"/>
      <point x="606" y="285" type="curve" smooth="yes"/>
      <point x="606" y="447"/>
      <point x="499" y="570"/>
      <point x="313" y="596" type="curve"/>
      <point x="313" y="564" type="line"/>
      <point x="500" y="586"/>
      <point x="606" y="695"/>
      <point x="606" y="854" type="curve" smooth="yes"/>
      <point x="606" y="1035"/>
      <point x="513" y="1161"/>
      <point x="513" y="1322" type="curve" smooth="yes"/>
      <point x="513" y="1459"/>
      <point x="599" y="1529"/>
      <point x="750" y="1555" type="curve"/>
      <point x="724" y="1659" type="line"/>
      <point x="423" y="1618"/>
      <point x="253" y="1503"/>
      <point x="253" y="1289" type="curve" smooth="yes"/>
      <point x="253" y="1121"/>
      <point x="371" y="944"/>
      <point x="371" y="805" type="curve" smooth="yes"/>
      <point x="371" y="693"/>
      <point x="311" y="637"/>
      <point x="136" y="630" type="curve"/>
      <point x="136" y="509" type="line"/>
      <point x="311" y="500"/>
      <point x="371" y="445"/>
      <point x="371" y="334" type="curve" smooth="yes"/>
      <point x="371" y="194"/>
      <point x="253" y="19"/>
      <point x="253" y="-147" type="curve" smooth="yes"/>
      <point x="253" y="-361"/>
      <point x="423" y="-478"/>
      <point x="724" y="-517" type="curve"/>
      <point x="750" y="-413" type="line"/>
      <point x="599" y="-387"/>
      <point x="513" y="-317"/>
    </contour>
  </outline>
</glyph>
<glyph name="braceright" format="2">
  <advance width="852"/>
  <unicode hex="007D"/>
  <note>
braceright
</note>
  <outline>
    <contour>
      <point x="337" y="-181" type="curve" smooth="yes"/>
      <point x="337" y="-317"/>
      <point x="251" y="-387"/>
      <point x="102" y="-413" type="curve"/>
      <point x="126" y="-517" type="line"/>
      <point x="428" y="-478"/>
      <point x="598" y="-361"/>
      <point x="598" y="-147" type="curve" smooth="yes"/>
      <point x="598" y="19"/>
      <point x="479" y="194"/>
      <point x="479" y="334" type="curve" smooth="yes"/>
      <point x="479" y="445"/>
      <point x="539" y="500"/>
      <point x="714" y="509" type="curve"/>
      <point x="714" y="630" type="line"/>
      <point x="539" y="637"/>
      <point x="479" y="693"/>
      <point x="479" y="805" type="curve" smooth="yes"/>
      <point x="479" y="944"/>
      <point x="598" y="1121"/>
      <point x="598" y="1289" type="curve" smooth="yes"/>
      <point x="598" y="1503"/>
      <point x="428" y="1618"/>
      <point x="126" y="1659" type="curve"/>
      <point x="102" y="1555" type="line"/>
      <point x="251" y="1529"/>
      <point x="337" y="1459"/>
      <point x="337" y="1322" type="curve" smooth="yes"/>
      <point x="337" y="1161"/>
      <point x="245" y="1035"/>
      <point x="245" y="854" type="curve" smooth="yes"/>
      <point x="245" y="695"/>
      <point x="350" y="586"/>
      <point x="539" y="564" type="curve"/>
      <point x="539" y="596" type="line"/>
      <point x="351" y="570"/>
      <point x="245" y="447"/>
      <point x="245" y="285" type="curve" smooth="yes"/>
      <point x="245" y="104"/>
      <point x="337" y="-19"/>
    </contour>
  </outline>
</glyph>
<glyph name="asciitilde" format="2">
  <advance width="757"/>
  <unicode hex="007E"/>
  <outline>
    <contour>
      <point x="632" y="426" type="line"/>
      <point x="609" y="383"/>
      <point x="578" y="360"/>
      <point x="536" y="360" type="curve" smooth="yes"/>
      <point x="466" y="360"/>
      <point x="344" y="455"/>
      <point x="239" y="455" type="curve" smooth="yes"/>
      <point x="164" y="455"/>
      <point x="104" y="404"/>
      <point x="74" y="319" type="curve"/>
      <point x="124" y="286" type="line"/>
      <point x="148" y="330"/>
      <point x="181" y="354"/>
      <point x="220" y="354" type="curve" smooth="yes"/>
      <point x="290" y="354"/>
      <point x="412" y="259"/>
      <point x="517" y="259" type="curve" smooth="yes"/>
      <point x="592" y="259"/>
      <point x="653" y="311"/>
      <point x="683" y="393" type="curve"/>
    </contour>
  </outline>
</glyph>
<glyph name="cent" format="2">
  <advance width="1004"/>
  <unicode hex="00A2"/>
  <note>
cent
</note>
  <outline>
    <contour>
      <point x="575" y="-16" type="curve" smooth="yes"/>
      <point x="747" y="-16"/>
      <point x="894" y="65"/>
      <point x="980" y="240" type="curve"/>
      <point x="915" y="298" type="line"/>
      <point x="837" y="201"/>
      <point x="756" y="167"/>
      <point x="654" y="167" type="curve" smooth="yes"/>
      <point x="479" y="167"/>
      <point x="347" y="293"/>
      <point x="347" y="531" type="curve" smooth="yes"/>
      <point x="347" y="798"/>
      <point x="510" y="922"/>
      <point x="669" y="889" type="curve"/>
      <point x="573" y="915" type="line"/>
      <point x="716" y="782" type="line" smooth="yes"/>
      <point x="769" y="730"/>
      <point x="800" y="714"/>
      <point x="854" y="714" type="curve" smooth="yes"/>
      <point x="913" y="714"/>
      <point x="957" y="752"/>
      <point x="957" y="815" type="curve" smooth="yes"/>
      <point x="957" y="918"/>
      <point x="823" y="1006"/>
      <point x="624" y="1006" type="curve" smooth="yes"/>
      <point x="313" y="1006"/>
      <point x="84" y="766"/>
      <point x="84" y="471" type="curve" smooth="yes"/>
      <point x="84" y="173"/>
      <point x="304" y="-16"/>
    </contour>
    <contour>
      <point x="544" y="-262" type="line"/>
      <point x="669" y="-262" type="line"/>
      <point x="669" y="1247" type="line"/>
      <point x="544" y="1247" type="line"/>
    </contour>
  </outline>
</glyph>
<glyph name="sterling" format="2">
  <advance width="735"/>
  <unicode hex="00A3"/>
  <note>
sterling
</note>
  <outline>
    <contour>
      <point x="74" y="-14" type="line"/>
      <point x="164" y="13"/>
      <point x="204" y="20"/>
      <point x="262" y="20" type="curve" smooth="yes"/>
      <point x="363" y="20"/>
      <point x="416" y="-10"/>
      <point x="520" y="-10" type="curve" smooth="yes"/>
      <point x="621" y="-10"/>
      <point x="693" y="49"/>
      <point x="738" y="177" type="curve"/>
      <point x="682" y="204" type="line"/>
      <point x="654" y="142"/>
      <point x="618" y="119"/>
      <point x="565" y="119" type="curve" smooth="yes"/>
      <point x="514" y="119"/>
      <point x="451" y="144"/>
      <point x="401" y="144" type="curve" smooth="yes"/>
      <point x="331" y="144"/>
      <point x="293" y="122"/>
      <point x="184" y="60" type="curve"/>
      <point x="184" y="42" type="line"/>
      <point x="319" y="142"/>
      <point x="353" y="209"/>
      <point x="353" y="311" type="curve" smooth="yes"/>
      <point x="353" y="422"/>
      <point x="287" y="538"/>
      <point x="287" y="636" type="curve" smooth="yes"/>
      <point x="287" y="731"/>
      <point x="362" y="778"/>
      <point x="470" y="762" type="curve"/>
      <point x="400" y="801" type="line"/>
      <point x="515" y="692" type="line" smooth="yes"/>
      <point x="544" y="663"/>
      <point x="567" y="653"/>
      <point x="599" y="653" type="curve" smooth="yes"/>
      <point x="639" y="653"/>
      <point x="664" y="681"/>
      <point x="664" y="717" type="curve" smooth="yes"/>
      <point x="664" y="789"/>
      <point x="574" y="836"/>
      <point x="445" y="836" type="curve" smooth="yes"/>
      <point x="253" y="836"/>
      <point x="117" y="733"/>
      <point x="117" y="587" type="curve" smooth="yes"/>
      <point x="117" y="485"/>
      <point x="212" y="358"/>
      <point x="212" y="222" type="curve" smooth="yes"/>
      <point x="212" y="126"/>
      <point x="171" y="82"/>
      <point x="58" y="52" type="curve"/>
    </contour>
    <contour>
      <point x="35" y="388" type="line"/>
      <point x="559" y="388" type="line"/>
      <point x="559" y="461" type="line"/>
      <point x="35" y="461" type="line"/>
    </contour>
  </outline>
</glyph>
<glyph name="currency" format="2">
  <advance width="757"/>
  <unicode hex="00A4"/>
  <note>
currency
</note>
  <outline>
    <contour>
      <point x="378" y="146" type="curve" smooth="yes"/>
      <point x="549" y="146"/>
      <point x="686" y="287"/>
      <point x="686" y="462" type="curve" smooth="yes"/>
      <point x="686" y="638"/>
      <point x="549" y="778"/>
      <point x="378" y="778" type="curve" smooth="yes"/>
      <point x="208" y="778"/>
      <point x="70" y="638"/>
      <point x="70" y="462" type="curve" smooth="yes"/>
      <point x="70" y="287"/>
      <point x="208" y="146"/>
    </contour>
    <contour>
      <point x="84" y="100" type="line"/>
      <point x="238" y="256" type="line"/>
      <point x="180" y="319" type="line"/>
      <point x="26" y="161" type="line"/>
    </contour>
    <contour>
      <point x="669" y="102" type="line"/>
      <point x="729" y="161" type="line"/>
      <point x="575" y="320" type="line"/>
      <point x="515" y="259" type="line"/>
    </contour>
    <contour>
      <point x="378" y="215" type="curve" smooth="yes"/>
      <point x="289" y="215"/>
      <point x="220" y="323"/>
      <point x="220" y="460" type="curve" smooth="yes"/>
      <point x="220" y="598"/>
      <point x="289" y="707"/>
      <point x="378" y="707" type="curve" smooth="yes"/>
      <point x="465" y="706"/>
      <point x="534" y="598"/>
      <point x="534" y="460" type="curve" smooth="yes"/>
      <point x="534" y="323"/>
      <point x="465" y="215"/>
    </contour>
    <contour>
      <point x="165" y="620" type="line"/>
      <point x="226" y="679" type="line"/>
      <point x="84" y="823" type="line"/>
      <point x="26" y="762" type="line"/>
    </contour>
    <contour>
      <point x="589" y="616" type="line"/>
      <point x="730" y="761" type="line"/>
      <point x="667" y="825" type="line"/>
      <point x="525" y="679" type="line"/>
    </contour>
  </outline>
</glyph>
<glyph name="yen" format="2">
  <advance width="789"/>
  <unicode hex="00A5"/>
  <note>
yen
</note>
  <outline>
    <contour>
      <point x="109" y="342" type="line"/>
      <point x="675" y="342" type="line"/>
      <point x="675" y="416" type="line"/>
      <point x="109" y="416" type="line"/>
    </contour>
    <contour>
      <point x="109" y="176" type="line"/>
      <point x="675" y="176" type="line"/>
      <point x="675" y="250" type="line"/>
      <point x="109" y="250" type="line"/>
    </contour>
    <contour>
      <point x="714" y="741" type="line"/>
      <point x="786" y="761" type="line"/>
      <point x="781" y="824" type="line"/>
      <point x="514" y="824" type="line"/>
      <point x="510" y="761" type="line"/>
      <point x="609" y="741" type="line"/>
      <point x="421" y="421" type="line"/>
      <point x="448" y="421" type="line"/>
      <point x="255" y="741" type="line"/>
      <point x="342" y="761" type="line"/>
      <point x="337" y="824" type="line"/>
      <point x="6" y="824" type="line"/>
      <point x="3" y="761" type="line"/>
      <point x="73" y="741" type="line"/>
      <point x="353" y="280" type="line"/>
      <point x="316" y="399" type="line"/>
      <point x="316" y="262" type="line" smooth="yes"/>
      <point x="316" y="158"/>
      <point x="313" y="93"/>
      <point x="309" y="81" type="curve"/>
      <point x="211" y="63" type="line"/>
      <point x="216" y="0" type="line"/>
      <point x="573" y="0" type="line"/>
      <point x="576" y="63" type="line"/>
      <point x="478" y="81" type="line"/>
      <point x="474" y="93"/>
      <point x="471" y="158"/>
      <point x="471" y="262" type="curve" smooth="yes"/>
      <point x="471" y="399" type="line"/>
      <point x="422" y="280" type="line"/>
    </contour>
  </outline>
</glyph>
<glyph name="brokenbar" format="2">
  <advance width="617"/>
  <unicode hex="00A6"/>
  <note>
brokenbar
</note>
  <outline>
    <contour>
      <point x="222" y="794" type="line"/>
      <point x="394" y="794" type="line"/>
      <point x="394" y="1641" type="line"/>
      <point x="222" y="1641" type="line"/>
    </contour>
    <contour>
      <point x="222" y="-499" type="line"/>
      <point x="394" y="-499" type="line"/>
      <point x="394" y="343" type="line"/>
      <point x="222" y="343" type="line"/>
    </contour>
  </outline>
</glyph>
<glyph name="section" format="2">
  <advance width="666"/>
  <unicode hex="00A7"/>
  <note>
section
</note>
  <outline>
    <contour>
      <point x="340" y="322" type="line"/>
      <point x="462" y="325"/>
      <point x="596" y="397"/>
      <point x="596" y="518" type="curve" smooth="yes"/>
      <point x="596" y="720"/>
      <point x="254" y="708"/>
      <point x="254" y="835" type="curve" smooth="yes"/>
      <point x="254" y="882"/>
      <point x="295" y="910"/>
      <point x="363" y="910" type="curve" smooth="yes"/>
      <point x="384" y="910"/>
      <point x="410" y="907"/>
      <point x="428" y="899" type="curve"/>
      <point x="458" y="809" type="line"/>
      <point x="537" y="809" type="line"/>
      <point x="523" y="953" type="line"/>
      <point x="484" y="969"/>
      <point x="419" y="978"/>
      <point x="362" y="978" type="curve" smooth="yes"/>
      <point x="218" y="978"/>
      <point x="108" y="903"/>
      <point x="108" y="800" type="curve" smooth="yes"/>
      <point x="108" y="601"/>
      <point x="459" y="628"/>
      <point x="459" y="469" type="curve" smooth="yes"/>
      <point x="459" y="407"/>
      <point x="402" y="362"/>
      <point x="319" y="348" type="curve"/>
    </contour>
    <contour>
      <point x="293" y="-10" type="curve" smooth="yes"/>
      <point x="445" y="-10"/>
      <point x="553" y="64"/>
      <point x="553" y="168" type="curve" smooth="yes"/>
      <point x="553" y="363"/>
      <point x="208" y="339"/>
      <point x="208" y="495" type="curve" smooth="yes"/>
      <point x="208" y="559"/>
      <point x="265" y="602"/>
      <point x="350" y="617" type="curve"/>
      <point x="329" y="643" type="line"/>
      <point x="205" y="640"/>
      <point x="69" y="568"/>
      <point x="69" y="444" type="curve" smooth="yes"/>
      <point x="69" y="247"/>
      <point x="406" y="256"/>
      <point x="406" y="133" type="curve" smooth="yes"/>
      <point x="406" y="88"/>
      <point x="367" y="58"/>
      <point x="298" y="58" type="curve" smooth="yes"/>
      <point x="271" y="58"/>
      <point x="242" y="64"/>
      <point x="222" y="74" type="curve"/>
      <point x="195" y="163" type="line"/>
      <point x="115" y="163" type="line"/>
      <point x="126" y="16" type="line"/>
      <point x="164" y="0"/>
      <point x="228" y="-10"/>
    </contour>
  </outline>
</glyph>
<glyph name="copyright" format="2">
  <advance width="1140"/>
  <unicode hex="00A9"/>
  <outline>
    <contour>
      <point x="570" y="-9" type="curve" smooth="yes"/>
      <point x="854" y="-9"/>
      <point x="1074" y="206"/>
      <point x="1074" y="490" type="curve" smooth="yes"/>
      <point x="1074" y="774"/>
      <point x="854" y="989"/>
      <point x="570" y="989" type="curve" smooth="yes"/>
      <point x="285" y="989"/>
      <point x="65" y="774"/>
      <point x="65" y="490" type="curve" smooth="yes"/>
      <point x="65" y="206"/>
      <point x="287" y="-9"/>
    </contour>
    <contour>
      <point x="599" y="214" type="curve" smooth="yes"/>
      <point x="676" y="214"/>
      <point x="755" y="238"/>
      <point x="793" y="263" type="curve"/>
      <point x="822" y="389" type="line"/>
      <point x="754" y="397" type="line"/>
      <point x="719" y="312" type="line"/>
      <point x="697" y="293"/>
      <point x="655" y="283"/>
      <point x="627" y="283" type="curve" smooth="yes"/>
      <point x="528" y="283"/>
      <point x="447" y="370"/>
      <point x="447" y="508" type="curve" smooth="yes"/>
      <point x="447" y="636"/>
      <point x="510" y="710"/>
      <point x="615" y="710" type="curve" smooth="yes"/>
      <point x="644" y="710"/>
      <point x="673" y="704"/>
      <point x="697" y="694" type="curve"/>
      <point x="734" y="594" type="line"/>
      <point x="795" y="596" type="line"/>
      <point x="788" y="744" type="line"/>
      <point x="747" y="763"/>
      <point x="682" y="776"/>
      <point x="620" y="776" type="curve" smooth="yes"/>
      <point x="429" y="776"/>
      <point x="281" y="670"/>
      <point x="281" y="484" type="curve" smooth="yes"/>
      <point x="281" y="315"/>
      <point x="411" y="214"/>
    </contour>
    <contour>
      <point x="570" y="46" type="curve" smooth="yes"/>
      <point x="320" y="46"/>
      <point x="129" y="238"/>
      <point x="129" y="490" type="curve" smooth="yes"/>
      <point x="129" y="742"/>
      <point x="320" y="932"/>
      <point x="570" y="932" type="curve" smooth="yes"/>
      <point x="819" y="932"/>
      <point x="1011" y="742"/>
      <point x="1011" y="490" type="curve" smooth="yes"/>
      <point x="1011" y="238"/>
      <point x="819" y="46"/>
    </contour>
  </outline>
</glyph>
<glyph name="ordfeminine" format="2">
  <advance width="576"/>
  <unicode hex="00AA"/>
  <note>
ordfeminine
</note>
  <outline>
    <contour>
      <point x="218" y="320" type="curve" smooth="yes"/>
      <point x="260" y="320"/>
      <point x="310" y="342"/>
      <point x="362" y="411" type="curve"/>
      <point x="340" y="418" type="line"/>
      <point x="361" y="368" type="line" smooth="yes"/>
      <point x="374" y="338"/>
      <point x="388" y="320"/>
      <point x="420" y="320" type="curve" smooth="yes"/>
      <point x="437" y="320"/>
      <point x="456" y="326"/>
      <point x="480" y="337" type="curve" smooth="yes"/>
      <point x="560" y="369" type="line"/>
      <point x="560" y="418" type="line"/>
      <point x="486" y="434" type="line"/>
      <point x="479" y="453"/>
      <point x="476" y="477"/>
      <point x="476" y="514" type="curve"/>
      <point x="476" y="662" type="line"/>
      <point x="479" y="769"/>
      <point x="398" y="834"/>
      <point x="266" y="834" type="curve"/>
      <point x="199" y="827"/>
      <point x="61" y="756"/>
      <point x="61" y="693" type="curve" smooth="yes"/>
      <point x="61" y="648"/>
      <point x="113" y="622"/>
      <point x="183" y="638" type="curve"/>
      <point x="189" y="711" type="line" smooth="yes"/>
      <point x="191" y="741"/>
      <point x="198" y="751"/>
      <point x="229" y="751" type="curve" smooth="yes"/>
      <point x="284" y="751"/>
      <point x="336" y="710"/>
      <point x="336" y="658" type="curve" smooth="yes"/>
      <point x="336" y="621" type="line"/>
      <point x="155" y="570" type="line" smooth="yes"/>
      <point x="81" y="549"/>
      <point x="54" y="510"/>
      <point x="54" y="459" type="curve" smooth="yes"/>
      <point x="54" y="400"/>
      <point x="119" y="320"/>
    </contour>
    <contour>
      <point x="279" y="420" type="curve" smooth="yes"/>
      <point x="235" y="420"/>
      <point x="202" y="450"/>
      <point x="202" y="487" type="curve" smooth="yes"/>
      <point x="202" y="517"/>
      <point x="218" y="536"/>
      <point x="252" y="541" type="curve" smooth="yes"/>
      <point x="339" y="558" type="line"/>
      <point x="339" y="444" type="line"/>
      <point x="319" y="426"/>
      <point x="298" y="420"/>
    </contour>
  </outline>
</glyph>
<glyph name="logicalnot" format="2">
  <advance width="1226"/>
  <unicode hex="00AC"/>
  <outline>
    <contour>
      <point x="1106" y="870" type="line"/>
      <point x="120" y="870" type="line"/>
      <point x="120" y="696" type="line"/>
      <point x="939" y="696" type="line"/>
      <point x="939" y="283" type="line"/>
      <point x="1106" y="283" type="line"/>
    </contour>
  </outline>
</glyph>
<glyph name="registered" format="2">
  <advance width="1140"/>
  <unicode hex="00AE"/>
  <outline>
    <contour>
      <point x="315" y="272" type="line"/>
      <point x="320" y="222" type="line"/>
      <point x="575" y="222" type="line"/>
      <point x="578" y="272" type="line"/>
      <point x="523" y="290" type="line"/>
      <point x="522" y="302"/>
      <point x="519" y="364"/>
      <point x="519" y="437" type="curve" smooth="yes"/>
      <point x="519" y="719" type="line"/>
      <point x="557" y="719" type="line" smooth="yes"/>
      <point x="612" y="719"/>
      <point x="653" y="695"/>
      <point x="653" y="629" type="curve" smooth="yes"/>
      <point x="653" y="556"/>
      <point x="602" y="525"/>
      <point x="547" y="525" type="curve" smooth="yes"/>
      <point x="537" y="525"/>
      <point x="524" y="525"/>
      <point x="512" y="527" type="curve"/>
      <point x="512" y="472" type="line"/>
      <point x="568" y="472" type="line" smooth="yes"/>
      <point x="701" y="472"/>
      <point x="800" y="538"/>
      <point x="800" y="630" type="curve" smooth="yes"/>
      <point x="800" y="735"/>
      <point x="714" y="775"/>
      <point x="572" y="775" type="curve"/>
      <point x="314" y="775" type="line"/>
      <point x="311" y="722" type="line"/>
      <point x="374" y="707" type="line"/>
      <point x="379" y="700"/>
      <point x="382" y="635"/>
      <point x="382" y="563" type="curve" smooth="yes"/>
      <point x="382" y="437" type="line" smooth="yes"/>
      <point x="382" y="364"/>
      <point x="380" y="297"/>
      <point x="379" y="290" type="curve"/>
    </contour>
    <contour>
      <point x="796" y="215" type="curve" smooth="yes"/>
      <point x="817" y="215"/>
      <point x="837" y="217"/>
      <point x="858" y="221" type="curve"/>
      <point x="865" y="267" type="line"/>
      <point x="820" y="280"/>
      <point x="790" y="307"/>
      <point x="754" y="356" type="curve" smooth="yes"/>
      <point x="656" y="511" type="line"/>
      <point x="540" y="486" type="line"/>
      <point x="588" y="372" type="line" smooth="yes"/>
      <point x="636" y="261"/>
      <point x="687" y="215"/>
    </contour>
    <contour>
      <point x="570" y="-9" type="curve" smooth="yes"/>
      <point x="854" y="-9"/>
      <point x="1074" y="206"/>
      <point x="1074" y="490" type="curve" smooth="yes"/>
      <point x="1074" y="774"/>
      <point x="854" y="989"/>
      <point x="570" y="989" type="curve" smooth="yes"/>
      <point x="285" y="989"/>
      <point x="65" y="774"/>
      <point x="65" y="490" type="curve" smooth="yes"/>
      <point x="65" y="206"/>
      <point x="287" y="-9"/>
    </contour>
    <contour>
      <point x="570" y="46" type="curve" smooth="yes"/>
      <point x="320" y="46"/>
      <point x="129" y="238"/>
      <point x="129" y="490" type="curve" smooth="yes"/>
      <point x="129" y="742"/>
      <point x="320" y="932"/>
      <point x="570" y="932" type="curve" smooth="yes"/>
      <point x="819" y="932"/>
      <point x="1011" y="742"/>
      <point x="1011" y="490" type="curve" smooth="yes"/>
      <point x="1011" y="238"/>
      <point x="819" y="46"/>
    </contour>
  </outline>
</glyph>
<glyph name="degree" format="2">
  <advance width="533"/>
  <unicode hex="00B0"/>
  <note>
degree
</note>
  <outline>
    <contour>
      <point x="267" y="429" type="curve" smooth="yes"/>
      <point x="384" y="429"/>
      <point x="475" y="515"/>
      <point x="475" y="633" type="curve" smooth="yes"/>
      <point x="475" y="750"/>
      <point x="384" y="835"/>
      <point x="267" y="835" type="curve" smooth="yes"/>
      <point x="149" y="835"/>
      <point x="58" y="750"/>
      <point x="58" y="633" type="curve" smooth="yes"/>
      <point x="58" y="515"/>
      <point x="149" y="429"/>
    </contour>
    <contour>
      <point x="267" y="511" type="curve" smooth="yes"/>
      <point x="200" y="511"/>
      <point x="150" y="561"/>
      <point x="150" y="633" type="curve" smooth="yes"/>
      <point x="150" y="704"/>
      <point x="200" y="753"/>
      <point x="267" y="753" type="curve" smooth="yes"/>
      <point x="333" y="753"/>
      <point x="382" y="704"/>
      <point x="382" y="633" type="curve" smooth="yes"/>
      <point x="382" y="561"/>
      <point x="333" y="511"/>
    </contour>
  </outline>
</glyph>
<glyph name="plusminus" format="2">
  <advance width="1226"/>
  <unicode hex="00B1"/>
  <outline>
    <contour>
      <point x="1106" y="753" type="line"/>
      <point x="120" y="753" type="line"/>
      <point x="120" y="590" type="line"/>
      <point x="1106" y="590" type="line"/>
    </contour>
    <contour>
      <point x="528" y="1071" type="line"/>
      <point x="528" y="269" type="line"/>
      <point x="695" y="269" type="line"/>
      <point x="695" y="1071" type="line"/>
    </contour>
    <contour>
      <point x="1106" y="168" type="line"/>
      <point x="120" y="168" type="line"/>
      <point x="120" y="0" type="line"/>
      <point x="1106" y="0" type="line"/>
    </contour>
  </outline>
</glyph>
<glyph name="twosuperior" format="2">
  <advance width="561"/>
  <unicode hex="00B2"/>
  <note>
uni2082
</note>
  <outline>
    <contour>
      <point x="61" y="331" type="curve"/>
      <point x="65" y="275" type="line"/>
      <point x="89" y="277"/>
      <point x="116" y="279"/>
      <point x="140" y="279" type="curve" smooth="yes"/>
      <point x="352" y="279" type="line" smooth="yes"/>
      <point x="378" y="279"/>
      <point x="453" y="276"/>
      <point x="491" y="274" type="curve"/>
      <point x="522" y="444" type="line"/>
      <point x="459" y="451" type="line"/>
      <point x="430" y="388" type="line"/>
      <point x="410" y="384"/>
      <point x="400" y="383"/>
      <point x="372" y="383" type="curve" smooth="yes"/>
      <point x="188" y="383" type="line"/>
      <point x="188" y="374" type="line"/>
      <point x="362" y="456"/>
      <point x="457" y="561"/>
      <point x="457" y="662" type="curve" smooth="yes"/>
      <point x="457" y="766"/>
      <point x="376" y="832"/>
      <point x="259" y="832" type="curve" smooth="yes"/>
      <point x="161" y="832"/>
      <point x="81" y="781"/>
      <point x="39" y="694" type="curve"/>
      <point x="84" y="662" type="line"/>
      <point x="114" y="706"/>
      <point x="157" y="728"/>
      <point x="208" y="728" type="curve" smooth="yes"/>
      <point x="277" y="728"/>
      <point x="315" y="695"/>
      <point x="315" y="635" type="curve" smooth="yes"/>
      <point x="315" y="545"/>
      <point x="240" y="453"/>
    </contour>
  </outline>
</glyph>
<glyph name="threesuperior" format="2">
  <advance width="561"/>
  <unicode hex="00B3"/>
  <note>
uni2083
</note>
  <outline>
    <contour>
      <point x="292" y="578" type="curve"/>
      <point x="270" y="560" type="line"/>
      <point x="385" y="582"/>
      <point x="454" y="636"/>
      <point x="454" y="707" type="curve" smooth="yes"/>
      <point x="454" y="782"/>
      <point x="386" y="832"/>
      <point x="283" y="832" type="curve" smooth="yes"/>
      <point x="188" y="832"/>
      <point x="108" y="785"/>
      <point x="69" y="713" type="curve"/>
      <point x="114" y="681" type="line"/>
      <point x="140" y="711"/>
      <point x="178" y="731"/>
      <point x="229" y="731" type="curve" smooth="yes"/>
      <point x="283" y="731"/>
      <point x="315" y="706"/>
      <point x="315" y="669" type="curve" smooth="yes"/>
      <point x="315" y="621"/>
      <point x="267" y="585"/>
      <point x="164" y="576" type="curve"/>
      <point x="172" y="516" type="line"/>
      <point x="184" y="519"/>
      <point x="197" y="520"/>
      <point x="216" y="520" type="curve" smooth="yes"/>
      <point x="298" y="520"/>
      <point x="349" y="484"/>
      <point x="349" y="425" type="curve" smooth="yes"/>
      <point x="349" y="358"/>
      <point x="286" y="321"/>
      <point x="212" y="337" type="curve"/>
      <point x="250" y="321" type="line"/>
      <point x="179" y="380" type="line" smooth="yes"/>
      <point x="151" y="404"/>
      <point x="137" y="410"/>
      <point x="116" y="410" type="curve" smooth="yes"/>
      <point x="86" y="410"/>
      <point x="64" y="388"/>
      <point x="64" y="357" type="curve" smooth="yes"/>
      <point x="64" y="307"/>
      <point x="133" y="270"/>
      <point x="227" y="270" type="curve" smooth="yes"/>
      <point x="373" y="270"/>
      <point x="490" y="347"/>
      <point x="490" y="442" type="curve" smooth="yes"/>
      <point x="490" y="525"/>
      <point x="417" y="576"/>
    </contour>
  </outline>
</glyph>
<glyph name="micro" format="2">
  <advance width="1237"/>
  <unicode hex="00B5"/>
  <outline>
    <contour>
      <point x="1113" y="220" type="line"/>
      <point x="1105" y="177"/>
      <point x="1085" y="86"/>
      <point x="1027" y="86" type="curve" smooth="yes"/>
      <point x="946" y="86"/>
      <point x="954" y="227"/>
      <point x="954" y="282" type="curve" smooth="yes"/>
      <point x="954" y="975" type="line"/>
      <point x="777" y="975" type="line"/>
      <point x="777" y="243" type="line"/>
      <point x="714" y="170"/>
      <point x="625" y="102"/>
      <point x="525" y="102" type="curve" smooth="yes"/>
      <point x="364" y="102"/>
      <point x="374" y="293"/>
      <point x="374" y="408" type="curve" smooth="yes"/>
      <point x="374" y="975" type="line"/>
      <point x="199" y="975" type="line"/>
      <point x="199" y="202" type="line" smooth="yes"/>
      <point x="199" y="75"/>
      <point x="193" y="-55"/>
      <point x="165" y="-180" type="curve" smooth="yes"/>
      <point x="154" y="-235"/>
      <point x="133" y="-301"/>
      <point x="133" y="-356" type="curve" smooth="yes"/>
      <point x="133" y="-408"/>
      <point x="165" y="-473"/>
      <point x="227" y="-473" type="curve" smooth="yes"/>
      <point x="287" y="-473"/>
      <point x="324" y="-408"/>
      <point x="324" y="-353" type="curve" smooth="yes"/>
      <point x="324" y="-232"/>
      <point x="275" y="-113"/>
      <point x="275" y="11" type="curve" smooth="yes"/>
      <point x="275" y="60" type="line"/>
      <point x="313" y="0"/>
      <point x="371" y="-32"/>
      <point x="441" y="-32" type="curve" smooth="yes"/>
      <point x="578" y="-32"/>
      <point x="692" y="78"/>
      <point x="777" y="170" type="curve"/>
      <point x="789" y="75"/>
      <point x="828" y="-32"/>
      <point x="946" y="-32" type="curve" smooth="yes"/>
      <point x="1096" y="-32"/>
      <point x="1148" y="86"/>
      <point x="1156" y="220" type="curve"/>
    </contour>
  </outline>
</glyph>
<glyph name="paragraph" format="2">
  <advance width="783"/>
  <unicode hex="00B6"/>
  <note>
paragraph
</note>
  <outline>
    <contour>
      <point x="721" y="0" type="line"/>
      <point x="724" y="61" type="line"/>
      <point x="641" y="81" type="line"/>
      <point x="636" y="97"/>
      <point x="631" y="189"/>
      <point x="631" y="294" type="curve" smooth="yes"/>
      <point x="631" y="527" type="line" smooth="yes"/>
      <point x="631" y="636"/>
      <point x="636" y="727"/>
      <point x="641" y="740" type="curve"/>
      <point x="727" y="761" type="line"/>
      <point x="723" y="824" type="line"/>
      <point x="376" y="824" type="line" smooth="yes"/>
      <point x="176" y="824"/>
      <point x="39" y="724"/>
      <point x="39" y="569" type="curve" smooth="yes"/>
      <point x="39" y="410"/>
      <point x="166" y="317"/>
      <point x="384" y="317" type="curve" smooth="yes"/>
      <point x="447" y="317"/>
      <point x="512" y="325"/>
      <point x="582" y="345" type="curve"/>
      <point x="582" y="433" type="line"/>
      <point x="511" y="409"/>
      <point x="454" y="400"/>
      <point x="388" y="400" type="curve" smooth="yes"/>
      <point x="273" y="400"/>
      <point x="203" y="469"/>
      <point x="203" y="587" type="curve" smooth="yes"/>
      <point x="203" y="692"/>
      <point x="272" y="753"/>
      <point x="376" y="753" type="curve" smooth="yes"/>
      <point x="410" y="753" type="line"/>
      <point x="412" y="730"/>
      <point x="411" y="652"/>
      <point x="411" y="528" type="curve" smooth="yes"/>
      <point x="411" y="251" type="line" smooth="yes"/>
      <point x="411" y="161"/>
      <point x="408" y="96"/>
      <point x="402" y="83" type="curve"/>
      <point x="289" y="64" type="line"/>
      <point x="292" y="0" type="line"/>
    </contour>
    <contour>
      <point x="493" y="753" type="line"/>
      <point x="560" y="753" type="line"/>
      <point x="555" y="70" type="line"/>
      <point x="493" y="70" type="line"/>
    </contour>
  </outline>
</glyph>
<glyph name="periodcentered" format="2">
  <advance width="619"/>
  <unicode hex="00B7"/>
  <note>
periodcentered
</note>
  <outline>
    <contour>
      <point x="308" y="327" type="curve" smooth="yes"/>
      <point x="410" y="327"/>
      <point x="488" y="403"/>
      <point x="488" y="500" type="curve" smooth="yes"/>
      <point x="488" y="599"/>
      <point x="410" y="679"/>
      <point x="308" y="679" type="curve" smooth="yes"/>
      <point x="207" y="679"/>
      <point x="130" y="599"/>
      <point x="130" y="500" type="curve" smooth="yes"/>
      <point x="130" y="403"/>
      <point x="207" y="327"/>
    </contour>
  </outline>
</glyph>
<glyph name="onesuperior" format="2">
  <advance width="909"/>
  <unicode hex="00B9"/>
  <note>
uni2081
</note>
  <outline>
    <contour>
      <point x="599" y="792" type="curve" smooth="yes"/>
      <point x="599" y="964" type="line" smooth="yes"/>
      <point x="599" y="1071"/>
      <point x="601" y="1231"/>
      <point x="614" y="1352" type="curve"/>
      <point x="188" y="1203" type="line"/>
      <point x="198" y="1108" type="line"/>
      <point x="368" y="1132" type="line"/>
      <point x="373" y="1096"/>
      <point x="376" y="991"/>
      <point x="376" y="931" type="curve" smooth="yes"/>
      <point x="376" y="787" type="line" smooth="yes"/>
      <point x="376" y="675"/>
      <point x="371" y="580"/>
      <point x="363" y="565" type="curve"/>
      <point x="206" y="543" type="line"/>
      <point x="214" y="452" type="line"/>
      <point x="761" y="452" type="line"/>
      <point x="766" y="543" type="line"/>
      <point x="611" y="565" type="line"/>
      <point x="604" y="580"/>
      <point x="599" y="679"/>
    </contour>
  </outline>
</glyph>
<glyph name="ordmasculine" format="2">
  <advance width="606"/>
  <unicode hex="00BA"/>
  <note>
ordmasculine
</note>
  <outline>
    <contour>
      <point x="306" y="320" type="curve" smooth="yes"/>
      <point x="451" y="320"/>
      <point x="564" y="435"/>
      <point x="564" y="582" type="curve" smooth="yes"/>
      <point x="564" y="730"/>
      <point x="461" y="834"/>
      <point x="311" y="834" type="curve" smooth="yes"/>
      <point x="161" y="834"/>
      <point x="42" y="731"/>
      <point x="42" y="569" type="curve" smooth="yes"/>
      <point x="42" y="423"/>
      <point x="151" y="320"/>
    </contour>
    <contour>
      <point x="318" y="392" type="curve" smooth="yes"/>
      <point x="251" y="392"/>
      <point x="196" y="486"/>
      <point x="196" y="607" type="curve" smooth="yes"/>
      <point x="196" y="706"/>
      <point x="233" y="765"/>
      <point x="291" y="765" type="curve" smooth="yes"/>
      <point x="363" y="765"/>
      <point x="412" y="674"/>
      <point x="412" y="542" type="curve" smooth="yes"/>
      <point x="412" y="446"/>
      <point x="377" y="392"/>
    </contour>
  </outline>
</glyph>
<glyph name="AE" format="2">
  <advance width="1149"/>
  <unicode hex="00C6"/>
  <note>
AE
</note>
  <anchor x="594" y="824" name="above"/>
  <anchor x="594" y="0" name="below"/>
  <outline>
    <contour>
      <point x="1057" y="-7" type="curve"/>
      <point x="1117" y="208" type="line"/>
      <point x="1045" y="221" type="line"/>
      <point x="971" y="85" type="line"/>
      <point x="950" y="81"/>
      <point x="935" y="80"/>
      <point x="870" y="80" type="curve" smooth="yes"/>
      <point x="779" y="80" type="line" smooth="yes"/>
      <point x="728" y="80"/>
      <point x="705" y="80"/>
      <point x="672" y="83" type="curve"/>
      <point x="670" y="102"/>
      <point x="669" y="146"/>
      <point x="669" y="243" type="curve" smooth="yes"/>
      <point x="669" y="578" type="line" smooth="yes"/>
      <point x="669" y="673"/>
      <point x="670" y="730"/>
      <point x="672" y="745" type="curve"/>
      <point x="700" y="747"/>
      <point x="730" y="749"/>
      <point x="762" y="749" type="curve" smooth="yes"/>
      <point x="879" y="749" type="line" smooth="yes"/>
      <point x="902" y="749"/>
      <point x="919" y="747"/>
      <point x="938" y="743" type="curve"/>
      <point x="988" y="622" type="line"/>
      <point x="1061" y="633" type="line"/>
      <point x="1028" y="829" type="line"/>
      <point x="981" y="827"/>
      <point x="906" y="824"/>
      <point x="851" y="824" type="curve" smooth="yes"/>
      <point x="399" y="824" type="line"/>
      <point x="394" y="761" type="line"/>
      <point x="524" y="741" type="line"/>
      <point x="510" y="793" type="line"/>
      <point x="44" y="81" type="line"/>
      <point x="-28" y="61" type="line"/>
      <point x="-23" y="0" type="line"/>
      <point x="233" y="0" type="line"/>
      <point x="236" y="61" type="line"/>
      <point x="148" y="81" type="line"/>
      <point x="560" y="738" type="line"/>
      <point x="517" y="717" type="line"/>
      <point x="517" y="243" type="line" smooth="yes"/>
      <point x="517" y="162"/>
      <point x="516" y="114"/>
      <point x="514" y="81" type="curve"/>
      <point x="426" y="61" type="line"/>
      <point x="429" y="0" type="line"/>
      <point x="892" y="0" type="line" smooth="yes"/>
      <point x="939" y="0"/>
      <point x="1001" y="-3"/>
    </contour>
    <contour>
      <point x="223" y="239" type="line"/>
      <point x="261" y="241"/>
      <point x="312" y="243"/>
      <point x="388" y="243" type="curve" smooth="yes"/>
      <point x="463" y="243"/>
      <point x="503" y="242"/>
      <point x="550" y="240" type="curve"/>
      <point x="550" y="325" type="line"/>
      <point x="509" y="322"/>
      <point x="458" y="321"/>
      <point x="388" y="321" type="curve" smooth="yes"/>
      <point x="311" y="321"/>
      <point x="279" y="322"/>
      <point x="246" y="325" type="curve"/>
    </contour>
    <contour>
      <point x="889" y="284" type="line"/>
      <point x="957" y="284" type="line"/>
      <point x="957" y="562" type="line"/>
      <point x="889" y="562" type="line"/>
      <point x="873" y="467" type="line"/>
      <point x="861" y="464"/>
      <point x="834" y="463"/>
      <point x="801" y="463" type="curve" smooth="yes"/>
      <point x="724" y="463" type="line" smooth="yes"/>
      <point x="695" y="463"/>
      <point x="668" y="465"/>
      <point x="645" y="466" type="curve"/>
      <point x="645" y="379" type="line"/>
      <point x="668" y="380"/>
      <point x="695" y="383"/>
      <point x="724" y="383" type="curve" smooth="yes"/>
      <point x="801" y="383" type="line" smooth="yes"/>
      <point x="834" y="383"/>
      <point x="861" y="381"/>
      <point x="873" y="379" type="curve"/>
    </contour>
  </outline>
</glyph>
<glyph name="multiply" format="2">
  <advance width="1226"/>
  <unicode hex="00D7"/>
  <outline>
    <contour>
      <point x="970" y="1050" type="line"/>
      <point x="139" y="225" type="line"/>
      <point x="258" y="104" type="line"/>
      <point x="1087" y="930" type="line"/>
    </contour>
    <contour>
      <point x="258" y="1050" type="line"/>
      <point x="139" y="930" type="line"/>
      <point x="970" y="104" type="line"/>
      <point x="1087" y="225" type="line"/>
    </contour>
  </outline>
</glyph>
<glyph name="Thorn" format="2">
  <advance width="757"/>
  <unicode hex="00DE"/>
  <note>
Thorn
</note>
  <outline>
    <contour>
      <point x="66" y="0" type="line"/>
      <point x="420" y="0" type="line"/>
      <point x="425" y="64" type="line"/>
      <point x="310" y="81" type="line"/>
      <point x="308" y="95"/>
      <point x="306" y="131"/>
      <point x="306" y="172" type="curve" smooth="yes"/>
      <point x="306" y="610" type="line"/>
      <point x="364" y="610" type="line" smooth="yes"/>
      <point x="469" y="610"/>
      <point x="542" y="553"/>
      <point x="542" y="422" type="curve" smooth="yes"/>
      <point x="542" y="312"/>
      <point x="483" y="252"/>
      <point x="382" y="252" type="curve" smooth="yes"/>
      <point x="348" y="252"/>
      <point x="316" y="259"/>
      <point x="285" y="270" type="curve"/>
      <point x="285" y="189" type="line"/>
      <point x="314" y="183"/>
      <point x="349" y="177"/>
      <point x="385" y="177" type="curve" smooth="yes"/>
      <point x="576" y="177"/>
      <point x="707" y="285"/>
      <point x="707" y="440" type="curve" smooth="yes"/>
      <point x="707" y="595"/>
      <point x="596" y="681"/>
      <point x="388" y="681" type="curve" smooth="yes"/>
      <point x="270" y="681" type="line"/>
      <point x="306" y="635" type="line"/>
      <point x="306" y="685" type="line" smooth="yes"/>
      <point x="306" y="710"/>
      <point x="307" y="731"/>
      <point x="307" y="740" type="curve"/>
      <point x="395" y="761" type="line"/>
      <point x="391" y="824" type="line"/>
      <point x="60" y="824" type="line"/>
      <point x="56" y="761" type="line"/>
      <point x="143" y="740" type="line"/>
      <point x="147" y="729"/>
      <point x="150" y="650"/>
      <point x="150" y="527" type="curve" smooth="yes"/>
      <point x="150" y="294" type="line" smooth="yes"/>
      <point x="150" y="173"/>
      <point x="147" y="94"/>
      <point x="144" y="81" type="curve"/>
      <point x="62" y="61" type="line"/>
    </contour>
  </outline>
</glyph>
<glyph name="germandbls" format="2">
  <advance width="841"/>
  <unicode hex="00DF"/>
  <note>
germandbls
</note>
  <outline>
    <contour>
      <point x="585" y="-10" type="curve" smooth="yes"/>
      <point x="725" y="-10"/>
      <point x="819" y="65"/>
      <point x="819" y="180" type="curve" smooth="yes"/>
      <point x="819" y="380"/>
      <point x="525" y="365"/>
      <point x="525" y="513" type="curve" smooth="yes"/>
      <point x="525" y="607"/>
      <point x="655" y="684"/>
      <point x="656" y="798" type="curve" smooth="yes"/>
      <point x="656" y="909"/>
      <point x="568" y="980"/>
      <point x="425" y="980" type="curve" smooth="yes"/>
      <point x="239" y="980"/>
      <point x="122" y="853"/>
      <point x="122" y="670" type="curve" smooth="yes"/>
      <point x="122" y="528" type="line"/>
      <point x="125" y="274" type="line" smooth="yes"/>
      <point x="127" y="185"/>
      <point x="122" y="110"/>
      <point x="120" y="80" type="curve"/>
      <point x="48" y="58" type="line"/>
      <point x="51" y="0" type="line"/>
      <point x="346" y="0" type="line"/>
      <point x="351" y="58" type="line"/>
      <point x="278" y="80" type="line"/>
      <point x="274" y="108"/>
      <point x="272" y="178"/>
      <point x="270" y="301" type="curve" smooth="yes"/>
      <point x="267" y="726" type="line"/>
      <point x="267" y="840"/>
      <point x="321" y="909"/>
      <point x="408" y="909" type="curve" smooth="yes"/>
      <point x="483" y="909"/>
      <point x="525" y="860"/>
      <point x="525" y="776" type="curve" smooth="yes"/>
      <point x="525" y="631"/>
      <point x="394" y="573"/>
      <point x="394" y="460" type="curve" smooth="yes"/>
      <point x="394" y="262"/>
      <point x="682" y="283"/>
      <point x="682" y="138" type="curve" smooth="yes"/>
      <point x="682" y="88"/>
      <point x="646" y="58"/>
      <point x="596" y="58" type="curve" smooth="yes"/>
      <point x="563" y="58"/>
      <point x="528" y="66"/>
      <point x="494" y="87" type="curve"/>
      <point x="471" y="188" type="line"/>
      <point x="396" y="188" type="line"/>
      <point x="401" y="34" type="line"/>
      <point x="453" y="6"/>
      <point x="522" y="-10"/>
    </contour>
    <contour>
      <point x="19" y="528" type="line"/>
      <point x="190" y="528" type="line"/>
      <point x="190" y="607" type="line"/>
      <point x="122" y="610" type="line"/>
      <point x="19" y="583" type="line"/>
    </contour>
  </outline>
</glyph>
<glyph name="ae" format="2">
  <advance width="999"/>
  <unicode hex="00E6"/>
  <note>
ae
</note>
  <anchor x="496" y="610" name="above"/>
  <anchor x="496" y="0" name="below"/>
  <outline>
    <contour>
      <point x="285" y="-10" type="curve" smooth="yes"/>
      <point x="354" y="-10"/>
      <point x="414" y="18"/>
      <point x="507" y="123" type="curve"/>
      <point x="465" y="173" type="line"/>
      <point x="417" y="117"/>
      <point x="383" y="93"/>
      <point x="333" y="93" type="curve" smooth="yes"/>
      <point x="279" y="93"/>
      <point x="227" y="130"/>
      <point x="227" y="179" type="curve" smooth="yes"/>
      <point x="227" y="215"/>
      <point x="251" y="235"/>
      <point x="297" y="243" type="curve" smooth="yes"/>
      <point x="949" y="355" type="line"/>
      <point x="949" y="512"/>
      <point x="860" y="621"/>
      <point x="718" y="621" type="curve" smooth="yes"/>
      <point x="626" y="621"/>
      <point x="550" y="572"/>
      <point x="505" y="496" type="curve"/>
      <point x="549" y="496" type="line"/>
      <point x="515" y="581"/>
      <point x="425" y="621"/>
      <point x="318" y="621" type="curve"/>
      <point x="224" y="608"/>
      <point x="77" y="525"/>
      <point x="77" y="460" type="curve" smooth="yes"/>
      <point x="77" y="406"/>
      <point x="138" y="383"/>
      <point x="216" y="400" type="curve"/>
      <point x="221" y="472" type="line" smooth="yes"/>
      <point x="223" y="521"/>
      <point x="235" y="534"/>
      <point x="275" y="534" type="curve" smooth="yes"/>
      <point x="350" y="534"/>
      <point x="421" y="482"/>
      <point x="421" y="384" type="curve" smooth="yes"/>
      <point x="421" y="292" type="line" smooth="yes"/>
      <point x="421" y="115"/>
      <point x="542" y="-10"/>
      <point x="707" y="-10" type="curve" smooth="yes"/>
      <point x="814" y="-10"/>
      <point x="903" y="40"/>
      <point x="954" y="146" type="curve"/>
      <point x="914" y="184" type="line"/>
      <point x="866" y="124"/>
      <point x="817" y="103"/>
      <point x="759" y="103" type="curve" smooth="yes"/>
      <point x="645" y="103"/>
      <point x="570" y="188"/>
      <point x="570" y="330" type="curve" smooth="yes"/>
      <point x="570" y="367" type="line" smooth="yes"/>
      <point x="570" y="486"/>
      <point x="626" y="552"/>
      <point x="700" y="552" type="curve" smooth="yes"/>
      <point x="769" y="552"/>
      <point x="810" y="494"/>
      <point x="810" y="398" type="curve" smooth="yes"/>
      <point x="810" y="357" type="line"/>
      <point x="834" y="399" type="line"/>
      <point x="258" y="303" type="line" smooth="yes"/>
      <point x="124" y="281"/>
      <point x="69" y="230"/>
      <point x="69" y="150" type="curve" smooth="yes"/>
      <point x="69" y="72"/>
      <point x="159" y="-10"/>
    </contour>
  </outline>
</glyph>
<glyph name="eth" format="2">
  <advance width="1165"/>
  <unicode hex="00F0"/>
  <note>
eth
</note>
  <outline>
    <contour>
      <point x="873" y="834" type="curve"/>
      <point x="905" y="960" type="line"/>
      <point x="820" y="988"/>
      <point x="726" y="1004"/>
      <point x="653" y="1004" type="curve" smooth="yes"/>
      <point x="324" y="1004"/>
      <point x="84" y="811"/>
      <point x="84" y="483" type="curve" smooth="yes"/>
      <point x="84" y="172"/>
      <point x="308" y="-16"/>
      <point x="586" y="-16" type="curve" smooth="yes"/>
      <point x="879" y="-16"/>
      <point x="1077" y="204"/>
      <point x="1077" y="619" type="curve" smooth="yes"/>
      <point x="1077" y="1038"/>
      <point x="798" y="1450"/>
      <point x="403" y="1565" type="curve"/>
      <point x="117" y="1565" type="line"/>
      <point x="113" y="1477" type="line"/>
      <point x="594" y="1338"/>
      <point x="824" y="1007"/>
      <point x="824" y="526" type="curve" smooth="yes"/>
      <point x="824" y="224"/>
      <point x="755" y="109"/>
      <point x="619" y="109" type="curve" smooth="yes"/>
      <point x="470" y="109"/>
      <point x="347" y="253"/>
      <point x="347" y="513" type="curve" smooth="yes"/>
      <point x="347" y="752"/>
      <point x="458" y="881"/>
      <point x="649" y="881" type="curve" smooth="yes"/>
      <point x="726" y="881"/>
      <point x="800" y="870"/>
    </contour>
    <contour>
      <point x="202" y="1116" type="line"/>
      <point x="965" y="1477" type="line"/>
      <point x="913" y="1587" type="line"/>
      <point x="149" y="1224" type="line"/>
    </contour>
  </outline>
</glyph>
<glyph name="divide" format="2">
  <advance width="757"/>
  <unicode hex="00F7"/>
  <outline>
    <contour>
      <point x="683" y="409" type="line"/>
      <point x="74" y="409" type="line"/>
      <point x="74" y="302" type="line"/>
      <point x="683" y="302" type="line"/>
    </contour>
    <contour>
      <point x="372" y="28" type="curve" smooth="yes"/>
      <point x="417" y="28"/>
      <point x="454" y="64"/>
      <point x="454" y="110" type="curve" smooth="yes"/>
      <point x="454" y="157"/>
      <point x="417" y="196"/>
      <point x="372" y="196" type="curve" smooth="yes"/>
      <point x="327" y="196"/>
      <point x="289" y="157"/>
      <point x="289" y="110" type="curve" smooth="yes"/>
      <point x="289" y="64"/>
      <point x="327" y="28"/>
    </contour>
    <contour>
      <point x="372" y="518" type="curve" smooth="yes"/>
      <point x="417" y="518"/>
      <point x="454" y="554"/>
      <point x="454" y="601" type="curve" smooth="yes"/>
      <point x="454" y="647"/>
      <point x="417" y="685"/>
      <point x="372" y="685" type="curve" smooth="yes"/>
      <point x="327" y="685"/>
      <point x="289" y="647"/>
      <point x="289" y="601" type="curve" smooth="yes"/>
      <point x="289" y="554"/>
      <point x="327" y="518"/>
    </contour>
  </outline>
</glyph>
<glyph name="thorn" format="2">
  <advance width="1226"/>
  <unicode hex="00FE"/>
  <note>
thorn
</note>
  <outline>
    <contour>
      <point x="28" y="-499" type="line"/>
      <point x="603" y="-499" type="line"/>
      <point x="609" y="-402" type="line"/>
      <point x="423" y="-368" type="line"/>
      <point x="415" y="-339"/>
      <point x="411" y="-249"/>
      <point x="411" y="-126" type="curve" smooth="yes"/>
      <point x="411" y="16" type="line"/>
      <point x="468" y="-2"/>
      <point x="534" y="-15"/>
      <point x="598" y="-15" type="curve" smooth="yes"/>
      <point x="920" y="-15"/>
      <point x="1139" y="225"/>
      <point x="1139" y="526" type="curve" smooth="yes"/>
      <point x="1139" y="818"/>
      <point x="949" y="1006"/>
      <point x="714" y="1006" type="curve" smooth="yes"/>
      <point x="594" y="1006"/>
      <point x="486" y="939"/>
      <point x="413" y="831" type="curve"/>
      <point x="407" y="834" type="line"/>
      <point x="413" y="1215"/>
      <point x="415" y="1360"/>
      <point x="426" y="1545" type="curve"/>
      <point x="371" y="1581" type="line"/>
      <point x="-3" y="1479" type="line"/>
      <point x="0" y="1393" type="line"/>
      <point x="167" y="1370" type="line"/>
      <point x="172" y="1291"/>
      <point x="177" y="1028"/>
      <point x="177" y="821" type="curve"/>
      <point x="173" y="62" type="line" smooth="yes"/>
      <point x="170" y="-204"/>
      <point x="165" y="-335"/>
      <point x="162" y="-368" type="curve"/>
      <point x="23" y="-407" type="line"/>
    </contour>
    <contour>
      <point x="606" y="118" type="curve" smooth="yes"/>
      <point x="531" y="118"/>
      <point x="462" y="141"/>
      <point x="411" y="178" type="curve"/>
      <point x="411" y="711" type="line"/>
      <point x="463" y="781"/>
      <point x="536" y="820"/>
      <point x="617" y="820" type="curve" smooth="yes"/>
      <point x="763" y="820"/>
      <point x="878" y="693"/>
      <point x="878" y="470" type="curve" smooth="yes"/>
      <point x="878" y="235"/>
      <point x="766" y="118"/>
    </contour>
  </outline>
</glyph>
<glyph name="idotless" format="2">
  <advance width="396"/>
  <unicode hex="0131"/>
  <note>
dotlessi
</note>
  <anchor x="199" y="610" name="above"/>
  <anchor x="199" y="0" name="below"/>
  <anchor x="280" y="0" name="ogonek"/>
  <outline>
    <contour>
      <point x="28" y="0" type="line"/>
      <point x="369" y="0" type="line"/>
      <point x="373" y="58" type="line"/>
      <point x="280" y="80" type="line"/>
      <point x="274" y="94"/>
      <point x="271" y="156"/>
      <point x="271" y="230" type="curve" smooth="yes"/>
      <point x="271" y="408" type="line" smooth="yes"/>
      <point x="271" y="483"/>
      <point x="274" y="537"/>
      <point x="280" y="595" type="curve"/>
      <point x="250" y="618" type="line"/>
      <point x="20" y="560" type="line"/>
      <point x="20" y="505" type="line"/>
      <point x="114" y="485" type="line"/>
      <point x="121" y="443"/>
      <point x="125" y="390"/>
      <point x="125" y="325" type="curve"/>
      <point x="125" y="224" type="line"/>
      <point x="124" y="136"/>
      <point x="120" y="90"/>
      <point x="118" y="80" type="curve"/>
      <point x="25" y="58" type="line"/>
    </contour>
  </outline>
</glyph>
<glyph name="OE" format="2">
  <advance width="1293"/>
  <unicode hex="0152"/>
  <note>
OE
</note>
  <anchor x="737" y="824" name="above"/>
  <anchor x="737" y="0" name="below"/>
  <outline>
    <contour>
      <point x="537" y="-12" type="curve" smooth="yes"/>
      <point x="607" y="-12"/>
      <point x="670" y="0"/>
      <point x="736" y="0" type="curve" smooth="yes"/>
      <point x="1037" y="0" type="line" smooth="yes"/>
      <point x="1084" y="0"/>
      <point x="1141" y="0"/>
      <point x="1202" y="-7" type="curve"/>
      <point x="1260" y="208" type="line"/>
      <point x="1189" y="221" type="line"/>
      <point x="1114" y="85" type="line"/>
      <point x="1094" y="81"/>
      <point x="1079" y="80"/>
      <point x="1014" y="80" type="curve" smooth="yes"/>
      <point x="924" y="80" type="line" smooth="yes"/>
      <point x="883" y="80"/>
      <point x="854" y="81"/>
      <point x="818" y="86" type="curve"/>
      <point x="816" y="107"/>
      <point x="815" y="167"/>
      <point x="815" y="243" type="curve" smooth="yes"/>
      <point x="815" y="578" type="line" smooth="yes"/>
      <point x="815" y="659"/>
      <point x="816" y="726"/>
      <point x="818" y="743" type="curve"/>
      <point x="839" y="747"/>
      <point x="871" y="749"/>
      <point x="906" y="749" type="curve" smooth="yes"/>
      <point x="1024" y="749" type="line" smooth="yes"/>
      <point x="1046" y="749"/>
      <point x="1063" y="747"/>
      <point x="1084" y="743" type="curve"/>
      <point x="1134" y="622" type="line"/>
      <point x="1205" y="633" type="line"/>
      <point x="1171" y="829" type="line"/>
      <point x="1110" y="824"/>
      <point x="1044" y="824"/>
      <point x="995" y="824" type="curve" smooth="yes"/>
      <point x="726" y="824" type="line" smooth="yes"/>
      <point x="661" y="824"/>
      <point x="605" y="833"/>
      <point x="546" y="833" type="curve" smooth="yes"/>
      <point x="230" y="833"/>
      <point x="66" y="636"/>
      <point x="66" y="403" type="curve" smooth="yes"/>
      <point x="66" y="145"/>
      <point x="248" y="-12"/>
    </contour>
    <contour>
      <point x="556" y="75" type="curve" smooth="yes"/>
      <point x="369" y="75"/>
      <point x="254" y="208"/>
      <point x="254" y="425" type="curve" smooth="yes"/>
      <point x="254" y="622"/>
      <point x="360" y="749"/>
      <point x="539" y="749" type="curve" smooth="yes"/>
      <point x="580" y="749"/>
      <point x="621" y="744"/>
      <point x="652" y="734" type="curve"/>
      <point x="657" y="704"/>
      <point x="661" y="619"/>
      <point x="661" y="536" type="curve" smooth="yes"/>
      <point x="661" y="300" type="line" smooth="yes"/>
      <point x="661" y="204"/>
      <point x="658" y="122"/>
      <point x="655" y="91" type="curve"/>
      <point x="625" y="82"/>
      <point x="586" y="75"/>
    </contour>
    <contour>
      <point x="1033" y="284" type="line"/>
      <point x="1101" y="284" type="line"/>
      <point x="1101" y="562" type="line"/>
      <point x="1033" y="562" type="line"/>
      <point x="1017" y="466" type="line"/>
      <point x="1005" y="465"/>
      <point x="979" y="463"/>
      <point x="945" y="463" type="curve" smooth="yes"/>
      <point x="869" y="463" type="line" smooth="yes"/>
      <point x="840" y="463"/>
      <point x="811" y="465"/>
      <point x="788" y="466" type="curve"/>
      <point x="788" y="379" type="line"/>
      <point x="811" y="380"/>
      <point x="840" y="383"/>
      <point x="869" y="383" type="curve" smooth="yes"/>
      <point x="945" y="383" type="line" smooth="yes"/>
      <point x="979" y="383"/>
      <point x="1005" y="380"/>
      <point x="1017" y="378" type="curve"/>
    </contour>
  </outline>
</glyph>
<glyph name="oe" format="2">
  <advance width="1116"/>
  <unicode hex="0153"/>
  <note>
oe
</note>
  <anchor x="597" y="610" name="above"/>
  <anchor x="597" y="0" name="below"/>
  <outline>
    <contour>
      <point x="368" y="-10" type="curve" smooth="yes"/>
      <point x="538" y="-10"/>
      <point x="644" y="132"/>
      <point x="644" y="309" type="curve" smooth="yes"/>
      <point x="644" y="492"/>
      <point x="536" y="621"/>
      <point x="361" y="621" type="curve" smooth="yes"/>
      <point x="194" y="621"/>
      <point x="53" y="490"/>
      <point x="53" y="300" type="curve" smooth="yes"/>
      <point x="53" y="116"/>
      <point x="182" y="-10"/>
    </contour>
    <contour>
      <point x="385" y="65" type="curve" smooth="yes"/>
      <point x="295" y="65"/>
      <point x="217" y="166"/>
      <point x="217" y="330" type="curve" smooth="yes"/>
      <point x="217" y="474"/>
      <point x="275" y="547"/>
      <point x="359" y="547" type="curve" smooth="yes"/>
      <point x="454" y="547"/>
      <point x="520" y="438"/>
      <point x="520" y="276" type="curve" smooth="yes"/>
      <point x="520" y="140"/>
      <point x="463" y="65"/>
    </contour>
    <contour>
      <point x="827" y="-10" type="curve" smooth="yes"/>
      <point x="930" y="-10"/>
      <point x="1021" y="40"/>
      <point x="1072" y="146" type="curve"/>
      <point x="1032" y="183" type="line"/>
      <point x="983" y="124"/>
      <point x="933" y="103"/>
      <point x="871" y="103" type="curve" smooth="yes"/>
      <point x="754" y="103"/>
      <point x="673" y="191"/>
      <point x="673" y="330" type="curve" smooth="yes"/>
      <point x="673" y="362" type="line" smooth="yes"/>
      <point x="673" y="481"/>
      <point x="733" y="552"/>
      <point x="812" y="552" type="curve" smooth="yes"/>
      <point x="880" y="552"/>
      <point x="931" y="502"/>
      <point x="931" y="396" type="curve" smooth="yes"/>
      <point x="931" y="357" type="line"/>
      <point x="955" y="384" type="line"/>
      <point x="660" y="384" type="line"/>
      <point x="657" y="316" type="line"/>
      <point x="1067" y="316" type="line"/>
      <point x="1067" y="344" type="line" smooth="yes"/>
      <point x="1067" y="517"/>
      <point x="973" y="620"/>
      <point x="827" y="621" type="curve" smooth="yes"/>
      <point x="664" y="622"/>
      <point x="539" y="484"/>
      <point x="539" y="305" type="curve" smooth="yes"/>
      <point x="539" y="112"/>
      <point x="661" y="-10"/>
    </contour>
  </outline>
</glyph>
<glyph name="florin" format="2">
  <advance width="844"/>
  <unicode hex="0192"/>
  <outline>
    <contour>
      <point x="159" y="-518" type="curve" smooth="yes"/>
      <point x="348" y="-518"/>
      <point x="520" y="-326"/>
      <point x="520" y="139" type="curve" smooth="yes"/>
      <point x="520" y="855" type="line"/>
      <point x="515" y="983" type="line"/>
      <point x="515" y="1169" type="line" smooth="yes"/>
      <point x="515" y="1367"/>
      <point x="565" y="1454"/>
      <point x="624" y="1482" type="curve"/>
      <point x="714" y="1401" type="line" smooth="yes"/>
      <point x="753" y="1362"/>
      <point x="787" y="1346"/>
      <point x="832" y="1346" type="curve" smooth="yes"/>
      <point x="886" y="1346"/>
      <point x="925" y="1377"/>
      <point x="925" y="1432" type="curve" smooth="yes"/>
      <point x="925" y="1519"/>
      <point x="823" y="1587"/>
      <point x="683" y="1587" type="curve" smooth="yes"/>
      <point x="458" y="1587"/>
      <point x="283" y="1393"/>
      <point x="283" y="1085" type="curve" smooth="yes"/>
      <point x="283" y="-11" type="line"/>
      <point x="283" y="-300"/>
      <point x="241" y="-385"/>
      <point x="219" y="-416" type="curve"/>
      <point x="126" y="-334" type="line" smooth="yes"/>
      <point x="89" y="-295"/>
      <point x="55" y="-279"/>
      <point x="6" y="-279" type="curve" smooth="yes"/>
      <point x="-44" y="-279"/>
      <point x="-79" y="-308"/>
      <point x="-79" y="-364" type="curve" smooth="yes"/>
      <point x="-79" y="-453"/>
      <point x="19" y="-518"/>
    </contour>
    <contour>
      <point x="117" y="855" type="line"/>
      <point x="764" y="855" type="line"/>
      <point x="764" y="983" type="line"/>
      <point x="436" y="983" type="line"/>
      <point x="283" y="988" type="line"/>
      <point x="225" y="967"/>
      <point x="175" y="952"/>
      <point x="117" y="944" type="curve"/>
    </contour>
  </outline>
</glyph>
<glyph name="ringhalfrightcentered" format="2">
  <advance width="1033"/>
  <unicode hex="02D2"/>
  <outline>
    <contour>
      <point x="601" y="1757" type="curve" smooth="yes"/>
      <point x="601" y="1940"/>
      <point x="486" y="2128"/>
      <point x="450" y="2128" type="curve" smooth="yes"/>
      <point x="442" y="2128"/>
      <point x="434" y="2125"/>
      <point x="434" y="2114" type="curve" smooth="yes"/>
      <point x="434" y="2080"/>
      <point x="538" y="1971"/>
      <point x="538" y="1757" type="curve" smooth="yes"/>
      <point x="538" y="1548"/>
      <point x="434" y="1440"/>
      <point x="434" y="1406" type="curve" smooth="yes"/>
      <point x="434" y="1395"/>
      <point x="442" y="1391"/>
      <point x="450" y="1391" type="curve" smooth="yes"/>
      <point x="486" y="1391"/>
      <point x="601" y="1579"/>
    </contour>
  </outline>
</glyph>
<glyph name="tildecomb" format="2">
  <unicode hex="0303"/>
  <anchor x="413" y="0" name="_above"/>
  <anchor x="389" y="502" name="above"/>
  <outline>
    <contour>
      <point x="557" y="147" type="curve" smooth="yes"/>
      <point x="470" y="147"/>
      <point x="356" y="313"/>
      <point x="245" y="313" type="curve" smooth="yes"/>
      <point x="146" y="313"/>
      <point x="60" y="199"/>
      <point x="60" y="83" type="curve" smooth="yes"/>
      <point x="60" y="37"/>
      <point x="79" y="-19"/>
      <point x="99" y="-19" type="curve" smooth="yes"/>
      <point x="126" y="-19"/>
      <point x="125" y="149"/>
      <point x="240" y="149" type="curve" smooth="yes"/>
      <point x="335" y="149"/>
      <point x="408" y="-16"/>
      <point x="554" y="-16" type="curve" smooth="yes"/>
      <point x="651" y="-16"/>
      <point x="737" y="97"/>
      <point x="737" y="214" type="curve" smooth="yes"/>
      <point x="737" y="259"/>
      <point x="717" y="316"/>
      <point x="698" y="316" type="curve" smooth="yes"/>
      <point x="671" y="316"/>
      <point x="672" y="147"/>
    </contour>
  </outline>
</glyph>
<glyph name="dotaccentcomb" format="2">
  <unicode hex="0307"/>
  <anchor x="178" y="0" name="_above"/>
  <anchor x="178" y="510" name="above"/>
  <outline>
    <contour>
      <point x="50" y="3" type="line"/>
      <point x="300" y="3" type="line"/>
      <point x="300" y="253" type="line"/>
      <point x="50" y="253" type="line"/>
    </contour>
  </outline>
</glyph>
<glyph name="ringbelowcomb" format="2">
  <unicode hex="0325"/>
  <anchor x="191" y="49" name="_below"/>
  <anchor x="194" y="-526" name="below"/>
  <outline>
    <contour>
      <point x="191" y="-381" type="curve" smooth="yes"/>
      <point x="296" y="-381"/>
      <point x="384" y="-295"/>
      <point x="384" y="-189" type="curve" smooth="yes"/>
      <point x="384" y="-86"/>
      <point x="296" y="0"/>
      <point x="191" y="0" type="curve" smooth="yes"/>
      <point x="86" y="0"/>
      <point x="-3" y="-86"/>
      <point x="-3" y="-189" type="curve" smooth="yes"/>
      <point x="-3" y="-295"/>
      <point x="86" y="-381"/>
    </contour>
    <contour>
      <point x="191" y="-316" type="curve" smooth="yes"/>
      <point x="121" y="-316"/>
      <point x="62" y="-259"/>
      <point x="62" y="-189" type="curve" smooth="yes"/>
      <point x="62" y="-120"/>
      <point x="120" y="-65"/>
      <point x="191" y="-65" type="curve" smooth="yes"/>
      <point x="262" y="-65"/>
      <point x="321" y="-120"/>
      <point x="321" y="-189" type="curve" smooth="yes"/>
      <point x="321" y="-261"/>
      <point x="262" y="-316"/>
    </contour>
  </outline>
</glyph>
